{"glyphs":{"0":{"ha":881,"x_min":27,"x_max":847,"o":"m 459 1005 q 625 962 553 1003 q 746 851 697 921 q 820 693 794 782 q 847 504 845 603 q 801 239 847 365 q 670 37 755 114 q 471 -39 584 -39 q 232 40 344 -39 q 74 241 120 119 q 27 501 28 363 q 30 518 30 510 q 82 756 33 642 q 219 942 132 871 q 459 1005 307 1014 m 459 968 q 203 515 247 960 q 221 260 203 374 q 288 76 240 147 q 462 -3 336 5 q 676 509 676 -3 q 459 968 666 968 z "},"1":{"ha":839,"x_min":82,"x_max":769,"o":"m 353 760 q 338 821 353 800 q 271 843 322 843 l 133 843 q 82 860 87 843 q 125 879 87 879 q 312 914 214 885 q 453 976 410 942 q 504 1007 491 1007 q 515 982 515 1007 l 515 196 q 668 42 515 42 q 700 35 689 34 q 769 0 768 13 q 82 -1 725 2 q 114 22 89 1 q 143 31 125 22 q 174 38 161 39 q 242 46 209 42 q 353 190 353 66 l 353 760 z "},"2":{"ha":839,"x_min":48,"x_max":786,"o":"m 190 811 q 267 757 241 793 q 293 678 293 721 q 265 606 293 634 q 185 575 237 577 q 157 578 176 578 q 80 629 109 586 q 48 735 51 672 q 90 871 50 806 q 217 978 130 936 q 435 1019 303 1019 q 596 981 521 1017 q 717 885 671 944 q 771 757 764 825 q 711 578 771 646 q 512 461 651 511 q 401 422 506 459 q 240 355 297 386 q 144 270 182 323 q 105 139 105 217 q 237 165 146 231 q 329 151 284 165 q 437 109 374 136 q 541 68 499 82 q 628 51 582 54 q 705 84 675 59 q 743 219 736 109 q 720 293 743 260 q 657 325 697 325 q 606 323 659 326 q 556 353 592 332 q 635 364 521 374 q 745 311 705 364 q 786 185 786 258 q 758 78 786 125 q 681 4 730 30 q 572 -22 632 -22 q 361 32 479 -22 q 151 103 204 103 q 111 87 128 103 q 87 48 94 71 q 110 26 88 38 q 136 0 132 13 q 114 -25 136 -25 q 73 -2 86 -25 q 57 56 60 22 q 52 114 54 91 q 86 252 53 192 q 173 356 120 313 q 278 429 225 399 q 426 504 332 458 q 534 605 496 537 q 572 749 572 672 q 518 907 572 842 q 370 974 464 971 q 247 944 300 974 q 164 871 193 915 q 133 783 135 827 q 140 765 137 776 q 147 747 142 753 q 168 738 153 741 q 199 773 199 738 q 190 811 199 791 m 577 342 l 576 342 l 577 342 z "},"3":{"ha":839,"x_min":32,"x_max":808,"o":"m 518 589 q 680 549 614 589 q 777 447 746 510 q 808 315 808 385 q 770 169 808 233 q 667 63 731 105 q 527 -1 604 21 q 372 -25 451 -22 q 207 10 285 -25 q 81 103 129 45 q 32 225 33 161 q 73 314 37 284 q 164 343 110 343 q 224 299 200 319 q 260 247 248 278 q 289 169 284 199 q 208 242 271 232 q 170 217 187 242 q 151 160 154 192 q 227 51 170 89 q 364 11 285 13 q 432 22 413 17 q 573 116 522 49 q 624 288 624 183 q 582 414 621 366 q 484 482 543 462 q 358 502 425 502 q 289 479 288 502 q 267 494 273 479 q 297 517 271 513 q 447 580 404 536 q 523 677 490 624 q 555 786 555 730 q 534 878 555 836 q 471 946 512 920 q 379 976 431 972 q 284 954 331 976 q 209 900 238 932 q 179 839 180 867 q 185 737 146 749 q 253 708 215 717 q 238 650 253 672 q 176 629 223 629 q 100 665 127 633 q 71 746 73 697 q 95 840 72 792 q 163 929 118 888 q 274 995 208 970 q 424 1019 340 1019 q 576 993 508 1019 q 686 922 645 967 q 732 822 727 877 q 681 687 732 749 q 518 589 630 625 z "},"4":{"ha":839,"x_min":-5,"x_max":846,"o":"m 429 268 q 122 307 261 307 q 12 303 74 308 q -5 301 1 303 q 14 333 -5 309 q 98 438 55 387 q 179 566 142 490 q 255 755 215 642 q 314 957 295 867 q 328 1158 314 980 q 370 1015 346 1094 q 353 847 370 931 q 298 685 335 763 q 209 533 260 607 q 100 393 158 458 q 199 401 145 401 q 429 372 306 401 l 429 615 q 425 710 425 634 q 425 800 425 786 q 447 816 428 809 q 518 904 487 851 q 586 1083 549 958 q 592 353 586 763 q 654 350 635 353 q 800 372 746 353 q 846 379 840 376 q 820 306 846 345 q 763 261 794 267 q 669 250 723 255 q 592 256 607 256 l 592 188 q 631 68 592 105 q 748 32 669 32 q 786 1 785 10 q 215 0 389 2 q 269 32 226 15 q 384 57 338 32 q 429 162 429 83 l 429 268 z "},"5":{"ha":839,"x_min":25,"x_max":811,"o":"m 157 629 q 398 652 262 672 q 533 637 468 652 q 654 593 598 623 q 747 527 709 564 q 800 429 785 491 q 811 342 811 375 q 763 165 811 248 q 618 29 716 81 q 382 -25 520 -24 q 201 10 283 -25 q 73 103 119 46 q 25 222 27 161 q 62 319 28 280 q 151 358 95 358 q 215 303 185 336 q 264 233 245 269 q 333 146 318 170 l 273 177 q 214 231 266 189 q 177 206 194 231 q 157 151 159 182 q 241 46 181 81 q 382 11 301 11 q 513 47 452 13 q 612 142 575 82 q 649 276 649 202 q 646 319 649 304 q 551 461 634 413 q 356 510 467 510 q 162 467 246 510 q 117 445 134 449 q 105 467 109 445 q 108 489 108 475 q 128 811 128 674 q 114 1004 127 940 q 157 993 121 997 l 626 993 q 735 998 689 993 l 694 890 q 683 859 686 866 q 665 848 679 852 q 621 843 651 843 l 168 843 q 157 629 168 708 z "},"6":{"ha":839,"x_min":24,"x_max":817,"o":"m 418 618 q 268 522 322 607 q 214 315 214 436 q 273 102 216 190 q 435 14 329 14 q 547 60 501 15 q 615 177 592 104 q 637 339 637 251 q 623 445 637 394 q 579 534 608 495 q 509 596 550 574 q 418 618 469 618 m 199 489 q 259 577 227 541 q 345 637 291 613 q 480 660 400 660 q 618 633 557 659 q 722 562 679 607 q 789 464 766 518 q 817 353 812 410 q 788 210 817 278 q 706 88 759 141 q 580 5 653 35 q 424 -25 508 -25 l 421 -25 q 206 47 297 -21 q 70 224 116 116 q 24 451 24 332 q 25 492 24 478 q 90 747 31 625 q 254 944 150 869 q 492 1019 358 1019 q 632 992 570 1019 q 728 925 694 965 q 763 846 763 884 q 740 801 763 817 q 711 793 718 786 q 635 914 699 853 q 494 962 571 975 q 323 889 393 962 q 226 702 253 817 q 199 489 199 588 z "},"7":{"ha":839,"x_min":25,"x_max":814,"o":"m 678 843 l 274 843 q 153 829 197 843 q 85 768 109 815 q 35 724 63 728 q 25 743 30 724 q 28 757 28 749 l 139 1010 q 183 1015 148 1041 q 268 996 218 990 l 768 996 q 814 996 761 992 q 724 847 799 966 q 591 611 649 727 q 492 354 533 494 q 447 68 450 213 q 474 1 480 4 q 396 0 468 -2 l 205 0 q 282 231 226 107 q 398 455 337 354 q 527 648 459 556 q 678 843 594 739 z "},"8":{"ha":839,"x_min":17,"x_max":825,"o":"m 546 555 q 760 458 695 530 q 825 293 825 387 q 797 171 825 229 q 715 68 769 113 q 585 -1 661 24 q 415 -26 509 -26 q 400 -26 411 -26 q 385 -25 390 -25 q 174 24 257 -17 q 54 127 91 65 q 17 261 17 189 q 37 345 18 304 q 91 419 57 387 q 173 474 125 452 q 274 502 220 496 q 118 601 163 537 q 74 757 74 665 q 105 855 77 808 q 183 939 133 902 q 300 996 233 975 q 445 1017 367 1017 q 557 1001 499 1017 q 663 956 614 986 q 741 881 711 926 q 771 777 771 835 q 714 650 771 708 q 546 555 657 592 m 512 575 q 688 771 654 628 q 661 877 688 829 q 569 953 634 924 q 445 982 504 982 q 337 959 389 982 q 232 883 286 935 q 177 775 179 832 q 185 732 181 752 q 293 644 206 675 q 512 575 379 612 m 304 486 q 178 404 235 466 q 118 263 120 341 q 149 139 120 198 q 252 45 177 80 q 404 11 328 11 q 535 38 474 11 q 648 116 597 65 q 700 239 700 168 q 524 410 700 361 l 304 486 z "},"9":{"ha":839,"x_min":26,"x_max":818,"o":"m 643 549 q 538 391 607 435 q 393 347 469 347 q 190 390 272 349 q 67 501 107 432 q 26 653 26 570 q 28 681 26 671 q 61 805 33 745 q 140 915 90 866 q 260 991 191 963 q 413 1019 329 1019 q 571 986 500 1019 q 692 896 641 953 q 773 765 743 839 q 814 608 804 690 q 818 533 818 568 q 789 331 818 430 q 701 153 759 233 q 559 26 643 73 q 370 -25 475 -22 q 179 12 260 -25 q 79 139 97 48 q 77 195 79 168 q 108 222 76 222 q 194 124 136 186 q 276 42 252 61 q 347 17 300 23 q 378 14 370 14 q 524 86 464 14 q 613 275 584 159 q 643 524 643 392 l 643 549 m 401 388 q 570 480 512 390 q 656 712 629 571 q 628 842 651 781 q 547 936 604 904 q 427 975 489 969 q 307 937 356 975 q 216 832 257 899 q 173 689 175 765 q 195 541 173 609 q 278 430 217 473 q 407 385 339 386 q 411 387 410 386 q 413 388 413 388 l 401 388 z "},"¦":{"ha":274,"x_min":162,"x_max":262,"o":"m 165 985 q 169 1022 165 1017 q 199 1028 174 1028 l 242 1028 q 259 1016 256 1028 q 262 974 262 1004 l 262 57 q 260 10 262 20 q 242 0 257 0 l 199 0 q 171 5 177 0 q 162 29 164 10 q 165 89 165 46 l 165 985 z "},"²":{"ha":502,"x_min":8,"x_max":492,"o":"m 100 896 q 150 863 132 886 q 168 814 168 839 q 149 771 168 788 q 95 751 130 753 q 79 754 89 754 q 30 785 48 759 q 8 849 11 812 q 37 931 10 892 q 120 995 63 970 q 258 1019 176 1019 q 365 997 316 1018 q 443 942 413 977 q 478 865 474 907 q 441 755 478 797 q 315 683 404 714 q 223 656 270 670 q 136 622 175 642 q 71 571 97 603 q 46 492 46 538 q 136 546 70 546 q 195 537 165 546 q 269 512 225 529 q 334 488 313 495 q 385 478 355 481 q 441 498 423 487 q 458 540 458 509 q 442 583 458 564 q 401 603 426 603 q 370 592 384 603 q 353 608 359 592 q 388 624 353 624 q 461 594 431 624 q 492 521 492 565 q 471 455 492 485 q 417 409 450 426 q 347 390 384 392 q 211 426 289 394 q 74 469 104 469 q 32 436 49 469 q 48 424 33 432 q 65 407 62 416 q 48 390 65 394 q 17 429 20 397 q 14 469 14 443 q 48 579 14 533 q 130 651 82 624 q 253 711 178 679 q 325 769 299 730 q 350 854 350 809 q 315 951 350 910 q 217 993 279 991 q 108 958 151 993 q 62 882 65 923 q 67 870 65 877 q 72 859 68 862 q 87 851 76 855 q 105 871 105 851 q 100 896 105 879 z "},"³":{"ha":502,"x_min":0,"x_max":502,"o":"m 315 763 q 456 713 411 763 q 502 586 502 663 q 427 452 497 510 q 219 390 358 394 q 114 412 164 390 q 32 469 63 433 q 0 543 1 504 q 28 604 4 579 q 87 629 51 629 q 120 603 104 621 q 153 560 137 585 q 178 490 157 538 q 111 550 164 525 q 79 512 84 550 q 219 413 110 417 q 258 418 247 418 q 349 474 316 432 q 382 581 382 516 q 355 656 380 628 q 291 696 330 685 q 208 708 252 708 q 155 706 159 708 q 105 711 155 704 q 160 731 165 731 q 301 789 262 748 q 339 882 339 830 q 307 959 339 927 q 225 993 276 991 q 137 967 177 993 q 95 911 97 941 q 106 874 97 899 q 122 840 114 849 q 129 815 129 831 q 126 788 129 793 q 95 783 124 783 q 45 806 62 785 q 25 857 27 827 q 53 934 27 896 q 131 997 80 972 q 253 1022 182 1022 q 351 1006 306 1022 q 423 962 396 989 q 453 903 450 934 q 315 763 453 805 z "},"¹":{"ha":502,"x_min":12,"x_max":469,"o":"m 205 814 q 203 879 205 861 q 189 904 200 897 q 149 911 177 911 l 62 911 q 12 910 52 912 q 62 933 12 924 q 279 1001 195 946 q 310 1048 295 1018 q 313 999 313 1010 l 313 974 l 313 581 q 319 480 313 507 q 353 442 326 453 q 453 432 381 432 q 469 421 469 432 q 458 410 469 410 l 52 410 q 32 421 38 410 q 48 432 36 432 l 93 432 q 158 439 135 432 q 193 476 180 447 q 205 569 205 506 l 205 814 z "},"¼":{"ha":1258,"x_min":-37,"x_max":1270,"o":"m 160 814 q 157 879 160 861 q 143 904 154 897 q 103 911 132 911 l 17 911 q -37 916 21 913 q 17 933 3 929 q 233 1001 150 946 q 261 1014 254 1014 q 265 999 265 1014 l 265 974 l 265 581 q 272 480 265 507 q 307 442 278 453 q 407 432 335 432 q 447 413 426 426 q 413 410 421 411 l 5 410 q -33 412 -3 409 q 3 432 6 431 l 47 432 q 112 439 90 432 q 147 476 134 447 q 160 569 160 506 l 160 814 m 903 1019 l 939 1019 q 957 1007 957 1019 q 950 982 957 992 l 435 28 q 418 5 425 9 q 393 0 412 0 l 361 0 q 339 11 343 0 q 350 33 341 19 q 358 48 358 46 l 854 965 q 875 1005 865 990 q 903 1019 885 1019 m 999 162 q 800 185 896 185 q 722 176 743 185 q 714 182 720 176 q 726 201 721 194 q 800 290 764 242 q 873 449 835 337 q 940 723 910 562 q 965 612 954 652 q 914 418 965 515 q 783 239 862 321 q 840 242 800 242 q 999 225 888 242 l 999 372 q 995 430 999 407 q 988 466 992 454 q 982 480 983 477 q 996 492 986 488 q 1098 628 1093 623 q 1104 436 1103 633 l 1104 211 q 1133 208 1124 211 q 1240 225 1201 212 q 1264 233 1255 233 q 1270 225 1270 233 q 1257 185 1270 200 q 1226 163 1245 170 q 1186 154 1208 157 q 1142 149 1164 151 q 1104 151 1129 151 l 1104 111 q 1129 41 1104 59 q 1204 22 1155 22 q 1253 0 1230 11 q 1201 0 1220 -3 l 885 0 q 851 3 874 1 q 890 22 889 23 q 999 97 999 22 l 999 162 z "},"½":{"ha":1258,"x_min":-28,"x_max":1264,"o":"m 897 1019 l 933 1019 q 953 1007 953 1019 q 944 982 953 994 l 429 28 q 415 5 421 10 q 390 0 408 0 l 358 0 q 336 11 340 0 q 345 33 337 19 q 353 48 353 46 l 849 965 q 897 1019 871 1019 m 168 814 q 165 879 168 861 q 151 904 163 897 q 108 911 138 911 l 22 911 q -27 908 -11 911 q 22 933 -27 922 q 242 1001 157 946 q 265 1014 262 1014 q 274 974 274 1014 l 274 581 q 280 480 274 507 q 315 442 287 453 q 415 432 343 432 q 460 413 432 432 q 418 410 460 402 l 11 410 q -28 410 -5 410 q 8 432 -28 421 l 54 432 q 120 439 97 432 q 155 476 142 447 q 168 569 168 506 l 168 814 m 871 478 q 921 445 902 468 q 939 396 939 422 q 920 353 939 370 q 865 333 900 335 q 849 336 860 336 q 801 367 819 340 q 782 429 783 394 q 845 551 783 499 q 1030 603 906 603 q 1180 556 1116 601 q 1250 447 1245 511 q 1213 339 1250 381 q 1087 265 1176 297 q 994 238 1041 252 q 908 204 947 223 q 842 153 868 184 q 817 74 817 121 q 906 128 841 128 q 967 120 936 128 q 1044 93 997 111 q 1109 69 1090 75 q 1158 60 1128 63 q 1229 122 1229 73 q 1213 166 1229 144 q 1175 188 1197 188 q 1124 190 1166 188 q 1158 205 1124 205 q 1233 177 1202 205 q 1264 103 1264 149 q 1218 12 1264 50 q 1118 -25 1172 -25 q 1055 -16 1085 -25 q 982 13 1025 -6 q 907 41 939 31 q 843 52 875 52 q 821 44 827 52 q 806 19 815 37 q 783 0 801 4 q 785 54 779 22 q 847 194 785 144 q 1022 293 909 244 q 1077 328 1055 306 q 1110 379 1099 351 q 1121 436 1121 407 q 1085 533 1121 494 q 987 575 1050 573 q 908 557 943 575 q 854 513 874 540 q 833 461 835 487 q 837 451 834 459 q 854 416 840 444 q 878 385 868 388 q 877 453 898 385 q 871 478 877 460 z "},"¾":{"ha":1258,"x_min":-8,"x_max":1264,"o":"m 993 160 q 794 182 890 182 q 717 174 738 182 q 708 179 714 174 q 714 187 710 182 q 722 199 718 192 q 796 286 760 238 q 862 411 831 334 q 922 654 893 489 q 953 645 947 654 q 960 610 960 635 q 935 477 960 544 q 869 348 910 410 q 779 236 827 287 q 843 242 813 242 q 993 222 915 242 l 993 370 q 979 478 993 434 q 993 489 983 486 q 1097 648 1097 648 q 1099 211 1097 648 q 1139 208 1129 211 q 1180 212 1162 210 q 1214 218 1198 214 q 1235 222 1230 221 q 1258 231 1249 231 q 1264 222 1264 231 q 1232 165 1264 178 q 1139 146 1200 153 q 1099 149 1124 149 l 1099 111 q 1125 40 1099 57 q 1201 22 1151 22 q 1243 0 1233 21 q 1198 -3 1216 -2 l 879 -3 q 836 3 851 -1 q 887 19 886 16 q 993 95 993 19 l 993 160 m 900 1019 l 936 1019 q 956 1007 956 1019 q 947 982 956 994 l 432 28 q 416 5 422 9 q 393 0 410 0 l 361 0 q 336 11 340 0 q 347 32 337 18 q 356 48 356 46 l 851 965 q 900 1019 874 1019 m 304 763 q 447 713 402 763 q 493 586 493 663 q 461 495 491 538 q 369 422 432 451 q 211 390 306 393 q 104 412 155 390 q 22 470 52 435 q -8 543 -8 506 q 16 604 -8 579 q 76 629 40 629 q 116 622 98 629 q 146 599 134 615 q 157 561 157 584 q 163 472 157 537 q 103 550 149 506 q 71 512 75 550 q 208 413 101 417 q 247 418 236 418 q 339 474 307 432 q 372 581 372 516 q 322 679 372 649 q 201 708 272 708 q 105 708 142 708 q 228 765 117 711 q 331 882 338 819 q 299 959 331 927 q 217 993 268 991 q 154 980 184 993 q 106 947 125 967 q 87 908 88 927 q 82 882 90 897 q 88 859 73 867 q 110 842 102 851 q 117 819 117 834 q 115 790 117 797 q 85 783 114 783 q 34 805 53 785 q 14 857 16 826 q 42 933 16 895 q 121 997 68 971 q 244 1022 173 1022 q 381 987 325 1022 q 442 903 438 951 q 304 763 442 802 z "},"Ð":{"ha":1161,"x_min":-23,"x_max":1129,"o":"m 214 782 q 198 889 214 852 q 146 942 183 926 q 40 957 109 957 q -13 994 18 957 q 615 996 89 990 q 836 956 739 996 q 997 848 933 916 q 1095 693 1062 779 q 1129 512 1128 606 q 1096 313 1129 405 q 998 149 1063 220 q 838 39 933 79 q 621 0 742 0 l 40 0 q -23 -1 13 0 q 52 21 -18 20 q 123 42 72 21 q 195 102 175 63 q 214 217 214 140 l 214 493 l 21 491 q 5 500 8 491 q 8 503 7 502 q 8 505 8 505 l 15 530 q 37 542 21 542 l 214 543 l 214 782 m 594 38 q 791 87 712 38 q 925 239 869 136 q 980 500 980 342 l 980 525 q 957 711 979 631 q 873 847 936 791 q 736 931 810 902 q 558 960 662 960 q 457 949 495 960 q 397 902 419 939 q 375 792 375 866 l 375 543 l 640 547 q 648 533 648 547 l 648 525 l 642 511 q 640 504 641 508 q 635 499 638 501 q 626 497 632 497 l 375 493 l 375 231 q 389 103 375 141 q 447 53 404 66 q 594 38 491 40 z "},"Ý":{"ha":939,"x_min":-126,"x_max":1056,"o":"m 388 424 l 131 822 q 64 911 93 881 q 9 950 34 941 q -52 960 -17 960 l -82 960 q -126 996 -126 979 q 456 996 -92 999 q 399 957 456 974 q 309 948 341 957 q 276 908 278 938 q 299 854 281 883 l 524 498 l 703 777 q 749 890 749 846 q 717 942 749 927 q 621 957 686 957 q 556 993 561 974 q 1056 996 616 996 q 1035 973 1056 988 q 1004 957 1014 957 q 903 926 962 957 q 777 800 844 894 l 546 469 l 546 258 q 557 131 546 176 q 591 65 569 85 q 640 43 614 45 q 723 38 666 40 q 761 2 755 33 q 166 1 761 0 q 208 38 172 22 q 261 35 242 38 q 326 49 299 37 q 370 101 352 62 q 388 217 388 141 l 388 424 m 576 1158 l 343 1083 q 328 1079 333 1080 q 313 1075 323 1078 q 304 1083 308 1075 q 323 1115 309 1101 l 483 1278 q 603 1344 521 1319 q 656 1316 633 1344 q 679 1256 679 1289 q 576 1158 679 1202 z "},"Þ":{"ha":914,"x_min":-32,"x_max":928,"o":"m 358 521 l 358 285 q 417 283 360 285 q 502 276 474 281 q 657 310 607 282 q 743 504 743 358 q 719 621 743 576 q 643 687 694 666 q 512 708 592 708 q 411 690 443 707 q 369 637 379 674 q 358 521 358 599 m 358 247 q 396 65 358 92 q 439 44 418 51 q 512 29 460 38 q 581 0 547 29 q -32 -1 489 -2 q 27 27 -32 14 q 57 35 46 27 q 162 71 133 39 q 199 253 199 105 l 199 738 q 191 861 199 816 q 160 928 183 905 q 113 951 143 946 q 29 957 83 957 q -19 996 -3 957 q 532 996 74 996 q 598 996 561 996 q 521 957 598 979 l 496 957 q 420 945 450 957 q 376 900 390 933 q 358 779 358 856 l 358 746 l 564 746 q 756 721 675 746 q 883 643 838 696 q 928 504 928 589 q 890 366 928 419 q 790 287 852 313 q 658 253 728 261 q 507 244 589 244 q 358 247 455 247 z "},"ð":{"ha":765,"x_min":19,"x_max":729,"o":"m 515 629 q 497 683 509 650 q 471 749 486 716 q 434 816 457 781 q 382 877 411 851 l 261 773 q 176 674 261 773 q 247 846 162 679 l 336 925 q 158 976 275 957 q 120 965 136 976 q 84 933 104 954 q 86 890 65 911 q 87 868 107 869 q 37 897 51 885 q 19 942 23 909 q 139 1017 30 1017 q 385 965 259 1017 l 467 1033 q 534 1105 484 1047 q 498 971 548 1105 l 447 930 q 561 823 510 887 q 648 682 611 759 q 705 523 685 605 q 729 361 726 441 q 691 157 729 236 q 597 40 653 78 q 492 -11 542 1 q 407 -22 442 -22 q 214 21 299 -22 q 92 136 130 65 q 48 300 53 206 q 51 316 51 308 q 95 481 54 406 q 208 603 137 557 q 385 651 279 649 q 515 629 460 651 m 379 618 q 279 579 319 617 q 220 474 239 541 q 199 318 200 408 q 379 8 199 12 q 393 11 388 11 q 535 101 497 15 q 572 328 572 186 q 527 539 568 460 q 379 618 486 618 z "},"ý":{"ha":692,"x_min":-55,"x_max":758,"o":"m 418 151 l 507 379 q 543 521 543 469 q 525 575 543 558 q 461 592 506 592 q 427 625 432 608 q 758 626 509 622 q 729 594 758 612 q 624 528 680 594 q 526 350 568 463 l 436 114 q 400 14 414 48 q 375 -43 387 -20 l 299 -196 q 233 -280 279 -241 q 131 -318 186 -318 q 57 -298 91 -318 q 19 -239 24 -277 q 25 -128 -3 -88 q 75 -209 53 -167 q 198 -244 129 -278 q 282 -157 260 -205 l 342 -28 l 157 388 q 87 525 116 481 q 45 577 59 569 q -7 598 31 585 q -55 625 -39 614 q 390 625 33 622 q 335 605 356 605 q 272 582 287 592 q 256 540 258 571 q 276 469 261 501 l 418 151 m 454 790 l 221 715 q 205 710 211 712 q 190 706 200 709 q 182 715 186 706 q 201 747 187 732 l 361 909 q 480 975 399 951 q 534 948 511 975 q 556 888 556 920 q 454 790 556 833 z "},"þ":{"ha":840,"x_min":-116,"x_max":772,"o":"m -11 -274 l 22 -274 q 77 -263 57 -274 q 108 -217 97 -253 q 119 -108 119 -181 l 119 763 q 109 851 119 822 q 80 889 98 880 q 29 897 62 897 l -3 897 q -116 892 -43 897 q -3 936 -116 911 q 113 957 57 936 q 205 1001 169 977 q 259 1162 238 1019 q 261 990 270 1162 l 261 524 q 346 617 291 585 q 469 649 401 649 q 641 610 566 649 q 739 501 715 570 q 770 352 763 432 q 772 320 772 341 q 735 151 772 231 q 644 24 699 71 q 483 -22 589 -22 q 357 5 408 -22 q 261 92 306 32 l 261 -114 q 273 -219 261 -184 q 306 -266 285 -255 q 361 -276 327 -276 l 421 -276 q 507 -308 439 -276 q -14 -310 418 -310 q -99 -311 -40 -310 q -11 -274 -99 -294 m 467 11 q 600 109 554 15 q 646 342 646 203 q 621 479 643 418 q 553 578 599 541 q 436 615 507 615 q 333 569 372 612 q 278 458 294 526 q 261 313 262 391 q 279 161 261 229 q 341 52 298 93 q 453 8 384 10 q 467 11 461 11 z "}," ":{"ha":421,"x_min":0,"x_max":0,"o":""},"!":{"ha":393,"x_min":92,"x_max":301,"o":"m 211 236 q 196 211 211 216 q 182 242 182 218 q 170 433 182 341 q 141 602 157 525 q 108 756 124 678 q 92 879 92 834 q 118 982 92 945 q 199 1019 145 1019 q 301 873 301 1019 q 287 756 297 810 q 255 594 277 703 q 222 404 233 486 q 211 236 211 323 m 196 157 q 263 131 238 157 q 288 71 288 106 q 264 4 288 33 q 196 -25 240 -25 q 135 1 160 -25 q 108 62 111 27 q 133 129 108 101 q 196 157 157 157 z "},"\"":{"ha":640,"x_min":95,"x_max":546,"o":"m 185 615 l 151 615 l 95 947 q 117 999 95 979 q 165 1019 139 1019 q 218 998 196 1019 q 239 939 239 976 l 185 615 m 455 615 l 401 944 q 422 1000 401 980 q 472 1019 442 1019 q 526 997 505 1019 q 546 936 546 974 l 489 615 l 455 615 z "},"#":{"ha":839,"x_min":32,"x_max":808,"o":"m 361 697 l 546 697 l 589 1014 l 678 1014 l 632 697 l 808 697 l 797 632 l 621 632 l 589 401 l 777 401 l 765 336 l 578 336 l 535 8 l 447 8 l 492 336 l 304 336 l 250 8 l 162 8 l 217 336 l 32 336 l 43 401 l 228 401 l 261 632 l 76 632 l 87 697 l 271 697 l 315 1014 l 404 1014 l 361 697 m 535 632 l 350 632 l 315 401 l 502 401 l 535 632 z "},"$":{"ha":839,"x_min":35,"x_max":804,"o":"m 606 979 l 675 1136 q 711 1158 687 1158 q 754 1147 754 1158 q 753 1143 754 1146 q 751 1139 751 1140 l 663 956 q 765 771 765 863 q 730 678 765 716 q 649 637 694 640 q 572 765 572 642 l 493 592 q 646 524 591 552 q 737 467 702 497 q 788 398 772 438 q 804 297 804 358 q 803 280 804 290 q 803 265 803 271 q 731 94 793 159 q 582 2 669 29 q 401 -25 495 -25 q 292 -14 342 -25 q 222 11 241 -2 l 157 -128 q 122 -151 146 -151 l 103 -151 q 79 -142 83 -151 q 95 -108 90 -121 l 160 29 q 35 225 41 105 q 165 376 58 376 q 231 348 205 376 q 256 261 256 320 l 256 231 l 364 464 q 254 511 300 488 q 170 565 208 534 q 111 638 133 596 q 89 735 89 681 q 142 896 92 833 q 270 986 193 959 q 429 1014 347 1014 q 606 979 545 1014 m 592 944 q 529 968 573 957 q 432 979 484 979 q 283 937 348 979 q 211 817 217 895 q 286 689 213 748 q 432 612 358 630 l 592 944 m 649 911 q 600 794 606 859 q 635 749 600 753 q 669 771 661 762 q 678 808 678 781 q 669 867 678 838 q 649 911 661 897 m 424 442 l 244 46 q 307 22 262 33 q 407 8 353 11 q 530 36 472 10 q 626 110 589 62 q 663 225 663 159 q 594 360 663 304 q 424 442 526 415 m 179 82 q 207 129 195 97 q 219 193 219 162 q 190 244 219 241 q 125 179 130 244 q 179 82 131 111 z "},"%":{"ha":1025,"x_min":28,"x_max":999,"o":"m 722 953 q 746 988 737 981 q 779 996 755 996 q 808 982 808 996 q 803 963 808 978 l 296 25 q 279 6 288 10 q 242 0 271 2 q 217 8 221 0 q 225 28 220 19 l 722 953 m 219 996 q 324 961 280 996 q 392 869 369 926 q 418 746 415 812 q 397 611 418 672 q 332 514 375 550 q 228 478 290 478 q 83 556 137 478 q 28 749 28 634 q 84 921 33 850 q 219 996 136 992 m 222 963 q 149 905 168 963 q 128 743 130 847 q 134 624 128 674 q 162 542 140 575 q 228 510 184 510 q 301 575 283 510 q 319 751 319 641 q 300 904 319 848 q 222 963 280 959 m 808 510 q 906 473 862 508 q 974 381 950 438 q 999 262 999 325 q 952 69 999 149 q 811 -11 906 -11 q 699 26 745 -11 q 631 125 653 64 q 608 256 608 186 q 633 381 609 322 q 703 475 658 439 q 808 510 749 510 m 800 478 q 728 415 748 478 q 706 250 708 352 q 729 91 706 155 q 800 22 752 26 q 866 55 843 22 q 896 138 889 87 q 903 258 903 188 q 800 478 903 478 z "},"&":{"ha":1181,"x_min":67,"x_max":1181,"o":"m 307 555 q 185 786 190 669 q 225 908 186 854 q 327 992 264 962 q 453 1022 389 1022 q 600 996 536 1022 q 696 926 663 970 q 729 830 729 883 q 661 692 729 757 q 458 592 594 626 l 779 236 q 828 375 828 323 q 665 475 828 475 q 590 508 595 491 q 1148 510 656 497 q 1078 485 1142 503 q 977 462 1016 485 q 913 405 939 439 q 848 292 887 371 q 806 205 809 212 q 890 111 858 142 q 974 56 922 79 q 1100 33 1025 33 q 1129 27 1117 25 q 1181 5 1152 25 q 843 0 731 0 q 782 20 811 0 q 708 92 753 40 q 376 -25 541 -25 q 243 -1 304 -25 q 149 67 181 23 q 93 164 117 110 q 67 273 68 217 q 134 444 69 368 q 307 555 200 519 m 445 615 q 575 707 532 649 q 618 828 618 764 q 577 937 618 892 q 469 982 536 982 q 368 947 407 982 q 328 849 330 911 q 359 736 330 797 q 445 615 388 675 m 315 532 q 254 473 278 508 q 217 396 229 438 q 203 307 204 354 q 236 170 207 235 q 319 65 265 105 q 447 22 373 25 q 678 119 564 27 l 315 532 z "},"'":{"ha":421,"x_min":117,"x_max":336,"o":"m 271 811 l 271 825 q 247 846 271 846 q 237 844 243 846 q 228 843 230 843 q 192 838 211 838 q 138 862 157 838 q 117 920 119 886 q 146 990 119 961 q 228 1019 174 1019 q 304 969 273 1014 q 336 868 336 924 q 314 763 336 820 q 253 663 292 706 q 165 610 213 620 q 151 626 158 613 q 190 667 154 638 q 271 811 252 727 z "},"(":{"ha":543,"x_min":65,"x_max":564,"o":"m 469 1010 q 512 1017 502 1017 q 532 1010 564 1032 q 528 1000 532 1004 q 513 992 525 997 q 492 982 500 987 q 350 856 407 941 q 268 661 294 770 q 242 435 242 551 q 270 204 243 314 q 346 12 296 94 q 464 -108 395 -70 q 505 -128 494 -122 q 543 -155 515 -134 l 543 -162 q 502 -151 543 -164 q 442 -133 486 -151 q 233 16 317 -74 q 108 214 149 106 q 65 436 67 322 q 115 682 67 565 q 254 886 163 800 q 469 1010 346 973 z "},")":{"ha":543,"x_min":-15,"x_max":479,"o":"m 87 1007 q 283 877 197 962 q 420 688 370 793 q 478 480 471 584 q 479 436 479 465 q 456 257 479 343 q 384 96 432 171 q 261 -40 336 21 q 87 -139 186 -101 q 28 -154 43 -154 q -15 -155 16 -154 q 8 -145 -12 -156 q 45 -124 29 -134 q 65 -111 62 -113 q 189 4 136 -73 q 272 190 242 81 q 301 426 301 298 q 245 771 299 621 q 65 982 191 921 q 41 992 49 988 q 18 1006 34 995 q 2 1022 2 1016 q 40 1017 2 1031 q 87 1007 54 1017 z "},"*":{"ha":839,"x_min":149,"x_max":692,"o":"m 399 773 q 401 783 401 777 q 383 835 401 796 q 357 896 365 875 q 347 947 349 917 q 367 1000 347 980 q 418 1019 388 1019 q 472 999 451 1019 q 493 939 493 978 q 465 852 493 910 q 436 782 437 794 q 439 777 437 781 q 442 773 440 773 q 450 771 447 771 q 496 802 461 771 q 550 848 531 833 q 603 873 570 863 q 625 878 615 878 q 673 854 655 878 q 692 800 692 831 q 675 752 692 767 q 631 734 659 738 q 578 726 604 730 q 509 732 541 726 q 472 738 476 738 q 461 729 461 738 q 474 709 461 719 q 522 678 487 700 q 580 637 557 656 q 612 594 603 618 q 615 569 615 589 q 590 519 615 542 q 535 493 565 495 q 486 526 500 498 q 459 584 469 555 q 444 646 450 612 q 434 690 437 680 q 424 700 432 700 q 407 684 413 700 q 389 619 401 668 q 364 540 376 570 q 304 498 349 504 q 252 521 277 498 q 225 572 227 543 q 258 632 229 602 q 312 670 274 646 q 366 706 350 694 q 382 729 382 718 q 353 738 378 738 q 231 729 343 738 q 172 751 190 737 q 149 803 153 765 q 169 854 149 831 q 219 877 189 877 q 288 851 254 877 q 319 826 289 851 q 369 787 349 801 q 399 773 388 773 z "},"+":{"ha":877,"x_min":57,"x_max":822,"o":"m 388 480 l 388 851 l 489 851 l 489 480 l 822 480 l 822 379 l 489 379 l 489 0 l 388 0 l 388 379 l 57 379 l 57 480 l 388 480 z "},",":{"ha":421,"x_min":128,"x_max":319,"o":"m 258 -48 l 258 -32 q 233 -11 258 -15 q 202 -17 199 -22 q 128 82 128 -17 q 161 139 134 116 q 208 157 189 162 q 286 111 257 152 q 319 29 316 71 q 288 -115 319 -47 q 211 -222 256 -182 q 151 -247 180 -247 q 139 -236 143 -247 q 168 -201 149 -216 q 229 -128 211 -164 q 258 -48 247 -93 z "},"-":{"ha":469,"x_min":17,"x_max":458,"o":"m 128 407 l 458 407 l 345 279 l 17 281 l 128 407 z "},".":{"ha":421,"x_min":132,"x_max":290,"o":"m 208 154 q 270 129 249 154 q 290 70 290 104 q 265 5 290 34 q 214 -25 239 -23 q 151 3 171 -25 q 132 67 132 31 q 155 127 132 103 q 208 154 178 151 z "},"/":{"ha":692,"x_min":-2,"x_max":682,"o":"m 575 1033 l 682 1040 q 643 968 682 1031 l 179 -79 q 145 -144 154 -134 q 117 -154 136 -154 l 52 -154 q -2 -153 71 -161 q 52 -83 44 -93 q 60 -71 60 -73 l 529 990 q 539 1013 535 1005 q 551 1028 543 1022 q 575 1033 559 1033 z "},":":{"ha":421,"x_min":136,"x_max":290,"o":"m 211 553 q 272 532 257 553 q 290 478 288 512 q 267 408 290 438 q 219 375 244 379 q 218 376 219 376 q 217 376 217 376 q 156 404 173 376 q 139 468 139 431 q 161 530 139 505 q 211 553 182 554 m 211 157 q 275 132 260 157 q 290 71 290 107 q 266 7 290 35 q 214 -25 241 -20 q 154 4 172 -25 q 136 64 136 33 q 159 130 136 101 q 211 157 183 158 z "},";":{"ha":421,"x_min":118,"x_max":310,"o":"m 208 546 q 270 518 252 546 q 288 452 288 490 q 261 391 286 416 q 208 367 236 366 q 152 392 170 367 q 134 453 134 417 q 158 517 134 490 q 208 546 181 544 m 258 -46 l 258 -29 q 242 -11 258 -15 q 182 -25 199 -25 q 133 3 148 -25 q 118 74 118 30 q 150 132 124 110 q 208 157 175 155 q 285 109 260 153 q 310 3 310 65 q 276 -124 310 -60 q 201 -228 241 -188 q 151 -247 175 -247 q 145 -245 147 -247 q 141 -240 143 -243 q 139 -233 140 -236 q 168 -201 142 -221 q 230 -122 208 -166 q 258 -46 253 -78 z "},"<":{"ha":877,"x_min":54,"x_max":826,"o":"m 146 429 l 825 92 l 817 -33 q 665 65 741 26 q 54 375 54 375 l 54 483 q 697 809 511 714 q 826 904 825 873 l 825 763 l 146 429 z "},"=":{"ha":877,"x_min":57,"x_max":822,"o":"m 822 608 l 822 507 l 57 507 l 57 608 l 822 608 m 57 350 l 822 350 l 822 253 l 57 253 l 57 350 z "},">":{"ha":877,"x_min":52,"x_max":825,"o":"m 735 426 l 54 760 l 57 897 q 214 790 139 828 q 825 480 825 480 l 825 372 q 244 77 437 175 q 52 -48 54 -19 l 54 92 l 735 426 z "},"?":{"ha":839,"x_min":60,"x_max":779,"o":"m 379 157 q 437 131 418 157 q 457 71 455 105 q 435 3 457 33 q 385 -25 412 -26 q 319 4 340 -25 q 298 68 298 33 q 324 131 298 104 q 379 157 350 157 m 361 228 l 353 367 q 377 441 353 409 q 454 517 401 474 q 535 593 506 561 q 578 667 565 624 q 594 768 594 721 q 534 923 594 866 q 375 979 473 979 q 258 950 312 978 q 173 873 205 923 q 142 757 142 823 q 157 721 143 734 q 188 706 171 708 q 228 723 201 706 q 252 784 254 741 q 291 679 275 774 q 263 608 291 642 q 199 572 236 574 q 99 616 137 572 q 60 726 62 660 q 102 865 61 798 q 225 976 142 932 q 432 1019 309 1019 q 594 989 513 1019 q 727 899 675 959 q 779 757 779 840 q 747 632 779 693 q 654 537 715 570 q 537 484 605 510 q 447 450 468 459 q 408 415 426 440 q 390 342 390 390 l 384 227 q 372 196 390 201 q 361 228 353 201 z "},"@":{"ha":1139,"x_min":40,"x_max":1104,"o":"m 773 783 l 900 783 l 732 333 q 720 276 724 308 q 771 228 720 232 q 910 288 848 241 q 1010 404 972 334 q 1056 553 1047 473 q 1057 583 1057 563 q 1003 771 1057 682 q 844 916 948 860 q 603 971 741 971 q 421 937 507 971 q 269 839 335 902 q 165 692 202 776 q 128 512 128 608 q 182 281 128 391 q 338 100 236 170 q 575 25 440 30 q 760 51 672 25 q 921 133 847 78 q 1047 271 995 189 l 1099 271 q 1035 175 1075 224 q 932 80 994 125 q 783 6 870 35 q 588 -22 695 -22 l 558 -22 q 340 29 437 -17 q 176 152 243 76 q 75 325 110 229 q 40 526 40 421 q 83 707 43 620 q 195 865 123 795 q 368 976 267 935 q 589 1019 469 1017 q 864 959 747 1019 q 1043 799 982 899 q 1104 586 1104 699 q 1076 439 1104 511 q 998 311 1049 368 q 880 221 948 254 q 735 188 812 189 q 612 265 645 188 q 429 188 531 192 q 336 212 378 188 q 270 284 295 237 q 244 396 246 331 q 275 542 249 470 q 346 673 300 614 q 456 767 392 732 q 597 803 520 803 q 751 724 702 803 l 773 783 m 726 672 q 696 731 723 703 q 637 763 670 759 q 517 703 573 763 q 421 549 462 643 q 367 339 372 444 q 445 231 372 231 q 536 260 485 231 q 621 379 588 289 l 726 672 z "},"A":{"ha":990,"x_min":-84,"x_max":1064,"o":"m 448 943 q 520 1068 493 1023 q 553 987 560 968 l 828 222 q 889 95 860 135 q 943 42 918 55 q 1015 29 968 29 q 1064 -1 1060 11 q 506 -1 825 4 q 551 29 509 14 q 627 48 568 29 q 686 114 686 68 q 669 196 686 146 l 608 372 l 265 372 l 225 261 q 196 136 201 196 q 223 57 198 80 q 309 25 248 34 q 342 1 336 10 q -77 0 276 0 q -60 20 -84 10 q 1 43 -36 30 q 72 77 37 56 q 127 143 107 98 q 182 262 146 189 l 407 863 q 448 943 406 858 m 594 407 l 435 839 l 276 407 l 594 407 z "},"B":{"ha":1013,"x_min":-8,"x_max":990,"o":"m 201 779 q 163 922 201 887 q 57 957 124 957 l 32 965 q -1 999 -1 982 q 22 996 -1 1021 l 600 996 q 840 942 763 996 q 930 783 918 888 l 930 749 q 675 546 930 569 q 833 510 763 545 q 944 424 903 476 q 990 315 984 371 q 972 205 990 259 q 913 103 954 150 q 807 28 872 57 q 651 0 741 0 l -8 1 q 36 29 -7 13 q 133 45 101 29 q 183 108 165 61 q 201 258 201 156 l 201 779 m 581 558 q 721 613 674 558 q 768 765 768 668 l 768 811 q 549 960 752 960 q 410 932 463 960 q 358 825 358 904 l 358 558 l 581 558 m 567 524 l 358 524 l 358 165 q 390 79 358 108 q 459 44 421 51 q 543 38 497 38 q 744 107 682 38 q 806 301 806 176 q 567 524 806 524 z "},"C":{"ha":1013,"x_min":38,"x_max":1015,"o":"m 811 955 q 782 1117 812 961 q 855 955 866 933 l 953 735 q 939 717 953 722 q 920 735 926 721 q 831 850 886 793 q 701 945 775 907 q 540 982 626 982 q 369 911 440 979 q 262 735 299 843 q 219 507 225 628 q 219 486 219 500 q 218 465 218 472 q 231 320 218 389 q 272 193 243 252 q 349 92 301 134 q 467 29 397 50 q 597 11 521 16 q 808 65 712 13 q 954 234 903 118 q 982 247 1015 322 q 981 239 982 244 q 979 231 979 233 q 810 28 906 80 q 594 -24 714 -24 q 574 -23 587 -24 q 555 -22 562 -22 q 273 52 388 -17 q 100 234 158 120 q 38 492 42 349 q 97 749 38 627 q 270 945 157 871 q 535 1019 384 1019 q 597 1016 566 1019 q 662 1006 628 1012 q 732 993 696 1000 q 811 955 782 976 z "},"D":{"ha":1161,"x_min":4,"x_max":1129,"o":"m 214 792 q 196 898 214 862 q 142 945 178 933 q 40 957 105 957 q 4 999 9 980 q 615 996 26 994 q 836 956 739 996 q 997 848 933 916 q 1095 693 1062 779 q 1129 512 1128 606 q 1096 313 1129 405 q 998 149 1063 220 q 838 39 933 79 q 621 0 742 0 l 4 0 q 47 26 10 7 q 82 38 69 26 q 151 52 124 40 q 196 107 178 65 q 214 233 214 149 l 214 792 m 594 38 q 791 87 712 38 q 921 238 869 136 q 972 497 972 340 l 972 523 q 950 709 971 628 q 869 845 928 789 q 736 931 810 902 q 558 960 662 960 q 457 949 495 960 q 397 902 419 939 q 375 792 375 866 l 375 231 q 389 103 375 141 q 447 53 404 66 q 594 38 491 40 z "},"E":{"ha":990,"x_min":7,"x_max":1025,"o":"m 208 754 q 192 886 208 841 q 149 943 175 930 q 85 957 123 957 l 38 957 q 7 998 12 979 q 646 996 159 990 q 750 999 713 996 q 797 1021 787 1002 q 773 1093 799 1047 q 830 1025 832 1021 l 933 768 q 945 709 933 766 q 908 764 936 726 q 808 868 868 825 q 673 933 748 910 q 521 957 597 956 q 403 923 436 957 q 370 814 370 889 l 370 550 l 507 550 q 613 560 569 550 q 693 605 656 570 q 733 716 730 641 q 753 787 750 756 l 753 262 q 732 321 753 272 q 665 475 728 435 q 507 515 601 515 l 370 515 l 370 205 q 411 76 370 115 q 553 36 452 36 q 568 37 558 36 q 586 38 578 38 q 732 69 662 40 q 865 152 803 98 q 971 276 927 206 q 993 315 981 292 q 1004 299 1025 368 q 999 276 1004 293 l 840 -79 q 784 -171 827 -109 q 810 -80 797 -117 q 778 -9 822 -28 q 549 0 733 11 l 10 -2 q 38 38 7 33 q 106 41 77 39 q 157 58 134 43 q 194 122 180 74 q 208 265 208 171 l 208 754 z "},"F":{"ha":840,"x_min":-11,"x_max":932,"o":"m 193 740 q 184 861 193 817 q 156 925 175 905 q 109 951 137 946 q 32 957 81 957 q 17 956 25 957 q -11 998 -11 980 q 618 996 98 997 q 685 1005 651 996 q 735 1025 718 1013 q 756 1036 745 1033 q 751 1107 766 1040 q 794 1039 758 1107 l 932 699 q 885 746 916 704 q 806 841 861 792 q 670 924 751 890 q 492 957 589 957 q 378 918 403 957 q 353 803 353 879 l 353 550 l 510 550 q 639 595 588 550 q 691 715 689 640 q 709 771 706 774 q 714 720 712 721 l 714 333 q 713 276 716 297 q 691 353 716 290 q 647 466 691 419 q 510 512 603 512 l 353 512 l 353 261 q 361 135 353 179 q 400 67 370 91 q 518 32 431 44 q 563 0 558 15 q 7 0 424 0 q 20 15 7 8 q 65 38 33 21 q 130 53 103 40 q 175 111 157 67 q 193 236 193 154 l 193 740 z "},"G":{"ha":1164,"x_min":14,"x_max":1203,"o":"m 840 1033 l 968 751 q 969 744 968 749 q 971 735 971 739 q 960 724 971 727 q 922 757 938 732 q 839 857 884 814 q 745 927 794 900 q 642 968 695 955 q 535 982 589 982 q 288 849 371 982 q 199 483 204 717 q 273 148 199 272 q 524 14 347 24 q 670 29 603 14 q 788 104 736 44 q 839 282 839 163 l 839 322 q 820 410 835 379 q 780 452 804 440 q 719 465 755 463 q 643 469 683 467 q 588 506 593 489 q 643 504 645 504 l 1144 504 q 1203 507 1158 505 q 1139 467 1183 490 q 999 336 999 467 q 996 265 999 304 q 1014 74 1003 100 q 1022 46 1022 56 q 1060 -8 1014 50 q 977 40 982 33 q 957 48 971 47 q 811 22 907 48 q 666 -15 714 -4 q 526 -25 618 -25 l 518 -25 q 298 22 393 -22 q 139 138 203 65 q 45 301 76 211 q 14 489 14 391 q 55 705 14 603 q 174 884 95 808 q 358 993 252 959 q 537 1017 427 1017 q 735 999 654 1017 q 823 969 812 957 q 805 1077 834 981 q 840 1033 817 1077 z "},"H":{"ha":1238,"x_min":5,"x_max":1232,"o":"m 214 792 q 196 900 214 864 q 150 946 178 936 q 76 957 121 957 l 38 957 q 9 996 14 982 q 581 996 419 996 q 535 957 581 979 q 444 944 476 957 q 394 882 412 931 q 375 729 375 832 l 375 558 l 868 558 l 868 694 q 858 846 868 792 q 829 923 849 900 q 780 952 809 946 q 692 957 751 957 q 660 995 665 978 q 1232 997 986 998 q 1183 957 1232 978 q 1095 947 1126 957 q 1046 898 1064 937 q 1028 777 1028 860 l 1028 199 q 1049 92 1028 127 q 1103 45 1071 58 q 1192 33 1134 33 q 1230 1 1223 15 q 651 1 1084 0 q 697 32 659 16 q 795 52 758 32 q 850 112 831 73 q 868 214 868 151 l 868 524 l 375 524 l 375 208 q 397 96 375 132 q 448 45 419 59 q 533 31 477 31 q 568 21 549 31 q 588 1 588 11 q 5 1 536 1 q 56 32 9 16 q 176 72 138 32 q 214 205 214 112 l 214 792 z "},"I":{"ha":615,"x_min":14,"x_max":602,"o":"m 228 751 q 196 918 228 878 q 105 957 164 957 l 60 957 q 14 997 19 980 q 602 995 151 996 q 555 960 602 978 q 462 950 495 960 q 408 902 429 941 q 388 779 388 863 l 388 208 q 408 99 388 136 q 464 50 428 62 q 551 32 500 38 q 582 21 566 31 q 596 2 598 10 q 22 0 514 1 q 54 29 33 9 q 158 47 123 29 q 211 104 193 65 q 228 217 228 142 l 228 751 z "},"J":{"ha":840,"x_min":-22,"x_max":895,"o":"m 526 768 q 508 892 526 850 q 460 945 489 933 q 389 962 431 957 l 360 962 q 307 999 314 984 q 895 997 345 996 q 880 976 895 988 q 848 963 866 963 l 822 957 q 752 946 781 957 q 705 896 724 935 q 686 779 686 857 l 686 301 q 650 130 686 197 q 557 30 614 64 q 436 -14 499 -3 q 304 -25 373 -25 q 143 5 218 -25 q 23 93 68 36 q -22 227 -22 150 q -17 276 -22 251 q 16 338 -8 317 q 71 358 41 358 q 128 338 105 358 q 151 285 151 318 q 104 281 126 264 q 52 278 81 297 q 27 221 22 259 q 49 157 33 182 q 149 51 86 90 q 307 11 212 13 q 432 34 384 11 q 503 106 480 56 q 526 236 526 155 l 526 768 z "},"K":{"ha":1085,"x_min":11,"x_max":1190,"o":"m 379 455 q 512 583 432 515 q 615 681 591 652 q 659 723 631 696 q 713 781 687 751 q 759 844 740 811 q 779 903 779 878 q 750 947 779 938 q 667 960 720 956 q 634 998 640 978 q 1124 997 666 999 q 1090 957 1124 980 q 979 927 1038 956 q 860 855 919 899 q 747 762 801 811 q 629 651 693 713 l 1010 108 q 1066 51 1037 73 q 1149 30 1095 30 q 1190 0 1190 11 q 642 0 979 3 q 678 35 646 18 q 717 37 696 36 q 754 43 738 39 q 783 58 771 47 q 794 87 794 68 q 751 193 794 129 l 515 537 l 379 410 l 379 219 q 402 102 379 142 q 457 49 425 61 q 526 35 488 37 q 553 38 540 38 q 585 1 585 19 q 12 1 432 1 q 54 33 16 22 q 109 38 76 34 q 166 58 141 42 q 205 115 190 74 q 219 233 219 157 l 219 779 q 200 900 219 861 q 153 947 180 938 q 82 956 125 956 q 46 957 68 957 q 11 994 16 977 q 584 997 68 994 q 537 960 584 980 q 416 924 454 960 q 379 808 379 889 l 379 455 z "},"L":{"ha":914,"x_min":13,"x_max":969,"o":"m 222 768 q 204 892 222 850 q 156 945 185 933 q 85 957 128 957 l 54 957 q 13 996 18 979 q 643 995 90 993 q 558 962 642 981 q 463 945 498 954 q 403 898 427 937 q 379 779 379 859 l 379 203 q 420 73 379 112 q 564 35 460 35 q 770 102 685 41 q 930 288 854 163 q 961 324 960 323 q 790 -76 969 324 q 785 -48 788 -71 q 706 1 772 2 q 561 0 640 0 l 13 0 q 57 33 17 21 q 222 71 223 25 q 222 211 222 117 l 222 768 z "},"M":{"ha":1310,"x_min":-1,"x_max":1310,"o":"m 242 914 l 242 225 q 396 32 234 32 q 441 -2 434 11 q 3 0 441 -8 q 38 33 12 17 q 163 110 124 33 q 203 342 203 187 l 203 789 q 178 907 203 871 q 125 957 153 944 q 38 970 97 969 q -1 998 5 994 q 342 996 196 993 q 371 991 364 996 q 388 960 379 987 q 401 925 398 933 l 649 353 l 925 944 q 949 988 942 981 q 982 996 956 996 l 1310 1000 q 1233 974 1300 1005 q 1147 923 1166 944 q 1119 859 1127 902 q 1110 743 1110 817 l 1110 261 q 1122 123 1117 166 q 1166 60 1126 79 q 1253 25 1205 40 q 1294 0 1301 10 l 738 2 q 781 30 748 15 q 867 39 843 32 q 912 66 892 46 q 943 132 933 85 q 953 261 953 178 l 953 928 q 568 102 610 178 q 559 137 575 97 q 540 185 543 178 l 242 914 z "},"N":{"ha":1064,"x_min":-4,"x_max":1105,"o":"m 236 896 l 236 322 q 259 132 236 194 q 320 54 282 70 q 418 38 357 38 q 471 0 471 21 q 0 3 -4 -5 q 35 38 4 24 q 110 56 76 38 q 172 145 145 74 q 199 361 199 217 l 199 914 q 62 957 172 957 l 43 957 q 2 1000 7 980 q 350 999 42 996 q 393 957 383 970 q 401 939 395 952 l 871 196 l 871 678 q 852 860 871 799 q 806 939 834 921 q 738 957 777 957 l 705 966 q 658 996 661 977 q 1105 998 789 993 q 1066 966 1100 985 q 938 893 969 966 q 906 689 906 820 l 911 -2 q 841 0 888 -2 q 236 896 831 0 z "},"O":{"ha":1085,"x_min":38,"x_max":1047,"o":"m 529 985 q 343 908 420 984 q 247 762 266 832 q 208 559 228 692 q 206 504 206 542 q 237 279 206 381 q 320 117 267 176 q 535 11 373 59 q 688 40 625 12 q 805 129 750 68 q 868 279 860 190 q 877 500 877 368 l 877 544 q 784 868 873 751 q 529 985 694 985 m 524 1017 q 541 1017 529 1017 q 557 1018 552 1018 q 759 979 670 1018 q 909 874 848 941 q 1006 719 970 808 q 1045 525 1041 630 q 1047 475 1047 492 q 1018 291 1047 378 q 924 133 988 205 q 764 19 860 61 q 546 -22 668 -22 l 512 -22 q 307 30 396 -15 q 162 147 217 75 q 72 312 107 219 q 38 504 38 405 q 96 748 40 632 q 261 937 152 863 q 524 1017 371 1011 z "},"P":{"ha":914,"x_min":-10,"x_max":942,"o":"m 201 703 q 188 869 201 814 q 150 940 174 924 q 87 957 126 957 l 38 963 q 0 1000 0 980 q 600 996 93 997 q 852 934 762 996 q 942 757 942 872 q 903 617 940 676 q 782 524 867 558 q 560 490 697 490 q 539 491 553 490 q 518 492 525 492 l 358 496 l 358 290 q 372 123 358 175 q 416 52 385 72 q 518 30 446 32 q 565 0 559 13 q -10 -2 69 1 q 37 30 -2 12 q 113 39 88 30 q 159 69 138 48 q 191 135 180 90 q 201 261 201 181 l 201 703 m 540 529 q 655 554 606 529 q 741 622 704 578 q 778 730 778 666 l 778 749 q 721 903 771 851 q 526 960 671 955 q 435 951 469 960 q 380 906 402 942 q 358 792 358 870 l 358 532 l 540 529 z "},"Q":{"ha":1085,"x_min":38,"x_max":1191,"o":"m 555 1019 q 765 975 672 1018 q 922 858 858 932 q 1020 691 987 784 q 1053 496 1053 597 q 1027 311 1052 396 q 945 156 1003 227 q 783 31 887 85 q 526 -54 680 -23 q 670 -95 595 -54 q 820 -215 745 -137 q 965 -294 896 -294 q 1095 -209 1043 -281 q 1164 -52 1146 -137 q 1185 16 1181 -26 q 1189 -61 1191 -61 q 1152 -193 1187 -127 q 1060 -328 1118 -258 q 881 -362 1002 -398 q 785 -284 815 -315 q 686 -184 755 -254 q 581 -89 617 -113 q 526 -74 557 -77 q 491 -83 507 -74 q 472 -105 474 -93 q 478 -146 475 -116 q 486 -188 481 -176 q 492 -213 492 -199 q 481 -263 492 -247 q 426 -279 470 -278 q 347 -208 352 -242 q 345 -186 345 -192 q 546 -29 345 -91 l 543 -25 q 323 24 418 -23 q 164 147 227 70 q 69 319 101 223 q 38 515 38 415 q 106 770 43 655 q 285 952 170 885 q 555 1019 401 1019 m 550 985 q 298 850 379 985 q 217 498 217 716 q 232 302 217 388 q 286 149 248 215 q 389 47 324 83 q 549 11 454 11 q 749 83 677 14 q 844 259 820 152 q 871 510 869 365 q 851 710 871 622 q 792 860 831 799 q 692 953 752 921 q 550 985 632 985 z "},"R":{"ha":1085,"x_min":8,"x_max":1193,"o":"m 225 740 q 214 863 225 818 q 182 928 202 908 q 135 952 161 948 q 62 957 109 957 q 8 994 13 975 q 594 996 50 998 q 804 973 720 996 q 936 901 889 951 q 987 773 982 852 q 714 504 987 539 l 925 151 q 981 90 948 115 q 1056 53 1015 65 q 1139 40 1097 40 q 1174 26 1155 40 q 1193 3 1193 12 q 1004 1 1172 3 q 836 0 836 -1 l 546 489 l 382 489 l 382 205 q 419 71 382 104 q 518 35 456 38 q 550 32 532 32 q 604 1 602 17 q 8 1 554 3 q 57 38 13 20 q 155 51 120 38 q 208 102 191 65 q 225 208 225 139 l 225 740 m 382 526 q 525 527 487 524 q 619 548 563 530 q 700 569 674 566 q 773 631 742 577 q 804 757 804 685 q 803 786 804 777 q 734 915 797 870 q 572 960 672 960 q 481 950 524 955 q 409 922 437 945 q 382 846 382 900 l 382 526 z "},"S":{"ha":914,"x_min":21,"x_max":890,"o":"m 668 982 q 670 1070 668 1018 q 695 1024 685 1070 l 829 746 l 841 709 q 797 749 822 715 q 643 912 748 842 q 415 982 538 982 q 278 925 336 978 q 219 792 219 871 q 254 715 225 747 q 329 663 284 684 q 445 624 374 643 q 558 594 516 605 q 751 515 677 565 q 858 405 825 466 q 890 276 890 343 q 835 113 890 181 q 692 10 780 44 q 510 -25 604 -25 q 408 -13 483 -25 q 299 0 333 -1 q 211 -121 201 -35 q 171 -40 203 -114 l 40 265 q 21 307 25 298 q 64 276 28 310 q 155 174 114 224 q 261 82 196 125 q 399 25 326 39 q 496 14 431 19 q 657 56 590 16 q 738 185 724 95 q 742 231 742 210 q 713 319 742 283 q 633 379 685 354 q 485 434 581 405 q 318 483 389 463 q 133 593 195 519 q 71 757 71 666 q 120 904 75 846 q 241 990 165 963 q 418 1018 318 1018 q 458 1017 445 1018 q 541 1007 487 1017 q 612 996 595 997 q 668 982 640 992 z "},"T":{"ha":914,"x_min":-79,"x_max":981,"o":"m 376 839 q 348 935 376 911 q 258 960 320 960 q 173 936 225 957 q 68 872 121 915 q -19 768 16 830 q -65 725 -49 730 q -60 760 -79 725 l 25 989 q 203 996 63 997 l 714 996 q 879 996 744 996 l 981 739 q 933 771 944 745 q 860 864 909 821 q 751 932 811 907 q 635 957 691 957 q 556 918 574 957 q 537 789 537 879 l 537 293 q 545 145 537 195 q 585 66 552 95 q 689 36 617 36 q 723 33 710 31 q 761 3 760 19 q 156 3 761 -4 q 193 40 160 24 q 247 38 228 40 q 316 56 289 39 q 360 123 343 72 q 376 274 376 174 l 376 839 z "},"U":{"ha":1085,"x_min":-43,"x_max":1137,"o":"m 165 754 q 148 887 165 842 q 101 944 130 931 q 29 957 73 957 l -8 965 q -43 997 -43 978 q 571 995 7 996 q 531 965 570 984 q 429 957 458 964 q 374 931 399 951 q 335 863 349 911 q 322 726 322 814 l 322 256 q 355 108 322 160 q 446 35 387 55 q 594 14 504 16 q 896 265 896 14 l 896 672 q 874 856 896 794 q 816 941 853 918 q 715 963 779 963 q 678 998 685 985 q 1107 996 724 997 q 1137 995 1116 996 q 1099 965 1135 984 q 1035 957 1056 963 q 989 926 1014 950 q 949 842 965 901 q 933 683 933 784 l 933 301 q 912 146 933 208 q 850 49 891 85 q 749 -3 808 13 q 603 -22 689 -20 l 555 -22 q 401 -11 470 -22 q 279 31 333 0 q 195 119 225 62 q 165 265 165 177 l 165 754 z "},"V":{"ha":939,"x_min":-82,"x_max":1087,"o":"m 549 174 l 763 746 q 786 857 786 810 q 675 953 786 953 q 628 996 633 975 q 1087 994 676 995 q 1025 953 1087 977 q 944 936 980 953 q 876 873 909 919 q 811 746 843 828 l 497 1 q 466 -25 479 -17 q 443 -1 455 -17 l 128 840 q 87 911 112 886 q 32 946 63 937 q -40 956 1 956 q -69 972 -56 956 q -82 996 -82 989 q 488 995 -36 998 q 439 956 488 979 q 340 940 377 956 q 301 879 303 925 q 313 830 308 844 l 549 174 z "},"W":{"ha":1310,"x_min":-27,"x_max":1380,"o":"m 146 803 q 85 927 123 887 q 7 968 47 968 q -14 980 -1 968 q -27 998 -27 992 q 415 996 6 995 q 375 961 409 983 q 301 865 299 947 q 315 797 303 849 l 483 188 l 635 746 q 606 833 619 794 q 578 900 592 873 q 542 947 563 927 q 487 966 521 966 q 464 998 472 988 q 885 996 527 997 q 916 996 894 996 q 875 965 909 985 q 802 940 825 965 q 777 863 779 916 q 789 783 783 809 l 963 188 l 1096 697 q 1115 825 1115 769 q 1078 937 1115 910 q 991 965 1041 965 q 957 996 960 985 q 1380 996 999 994 q 1348 961 1377 984 q 1234 904 1284 961 q 1133 672 1183 847 l 974 0 q 863 -35 873 -35 q 836 40 858 -35 l 657 683 l 504 151 q 418 1 480 115 q 374 -33 386 -32 q 356 22 369 -33 l 146 803 z "},"X":{"ha":1085,"x_min":-47,"x_max":1112,"o":"m 597 603 l 726 777 q 771 879 771 835 q 632 957 771 957 q 591 1000 596 980 q 1096 1000 675 999 q 1061 966 1084 992 q 916 908 983 966 q 794 789 848 850 l 615 578 l 925 144 q 1003 58 970 79 q 1069 35 1036 38 q 1108 3 1112 10 q 573 2 1103 -3 q 612 38 573 20 q 707 47 673 38 q 740 89 740 57 q 703 179 740 126 l 510 455 l 382 288 q 296 108 301 180 q 415 38 299 38 q 452 -2 452 17 q -47 2 281 1 q -19 35 -47 20 q 103 74 43 41 q 212 150 162 106 q 296 239 261 194 l 489 486 l 228 857 q 54 957 162 957 q 5 996 11 979 q 555 996 60 996 q 504 960 555 980 q 396 908 399 960 q 418 860 403 881 l 597 603 z "},"Y":{"ha":939,"x_min":-126,"x_max":1056,"o":"m 388 424 l 131 822 q 64 911 93 881 q 9 950 34 941 q -52 960 -17 960 l -82 960 q -126 996 -126 979 q 456 996 -92 999 q 399 957 456 974 q 309 948 341 957 q 276 908 278 938 q 299 854 281 883 l 524 498 l 703 777 q 749 890 749 846 q 717 942 749 927 q 621 957 686 957 q 556 993 561 974 q 1056 996 616 996 q 1035 973 1056 988 q 1004 957 1014 957 q 903 926 962 957 q 777 800 844 894 l 546 469 l 546 258 q 557 131 546 176 q 591 65 569 85 q 640 43 614 45 q 723 38 666 40 q 761 2 755 33 q 166 1 761 0 q 208 38 172 22 q 261 35 242 38 q 326 49 299 37 q 370 101 352 62 q 388 217 388 141 l 388 424 z "},"Z":{"ha":914,"x_min":-3,"x_max":928,"o":"m 651 908 q 663 936 663 923 q 600 957 663 957 q 355 947 439 957 q 205 899 270 938 q 45 725 140 859 q 48 751 42 725 q 51 762 50 755 q 54 771 53 768 l 165 1044 q 185 1071 177 1071 q 210 1046 190 1064 q 259 1010 230 1029 q 436 996 288 991 l 851 996 q 911 993 877 996 q 879 947 911 979 l 274 108 q 250 60 253 74 q 272 41 252 45 q 342 38 292 38 q 432 35 399 38 q 567 46 506 37 q 688 82 628 56 q 803 158 749 107 q 893 288 857 209 q 917 313 903 313 q 783 -62 928 313 q 751 -105 769 -105 q 756 -62 766 -96 q 668 -8 748 -15 q 478 0 588 0 l -3 0 q 14 29 2 12 q 29 54 25 47 l 651 908 z "},"[":{"ha":543,"x_min":92,"x_max":523,"o":"m 92 922 q 96 980 92 962 q 118 1009 100 999 q 179 1019 137 1019 l 522 1021 q 492 987 518 987 l 315 987 q 261 959 272 987 q 250 877 250 931 l 250 -40 q 339 -119 250 -119 l 489 -119 q 523 -142 523 -128 q 179 -151 455 -146 q 113 -135 135 -151 q 92 -79 92 -118 l 92 922 z "},"\\":{"ha":436,"x_min":-137,"x_max":570,"o":"m -92 979 q -137 1028 -137 1018 q -114 1037 -137 1038 q -71 1036 -92 1036 l -17 1036 q 17 1025 21 1036 q 38 968 14 1013 l 535 43 q 570 0 570 14 q 461 0 535 3 q 440 3 447 0 q 426 18 433 7 q 418 32 420 30 l -92 979 z "},"]":{"ha":543,"x_min":-33,"x_max":453,"o":"m 453 922 l 453 -79 q 432 -135 453 -118 q 367 -151 411 -151 l -25 -157 q 57 -119 33 -124 l 205 -119 q 296 -40 296 -119 l 296 877 q 284 959 296 931 q 228 987 273 987 l 54 987 q -33 1025 -31 1013 q 367 1019 96 1022 q 426 1009 408 1019 q 449 980 445 999 q 453 922 453 962 z "},"^":{"ha":877,"x_min":18,"x_max":851,"o":"m 439 906 l 146 313 l 18 261 l 388 996 l 496 996 l 851 277 l 735 313 l 439 906 z "},"_":{"ha":694,"x_min":0,"x_max":694,"o":"m 0 -89 l 694 -89 l 694 -217 l 0 -217 l 0 -89 z "},"`":{"ha":529,"x_min":97,"x_max":458,"o":"m 160 792 q 97 863 102 810 q 121 923 102 897 q 174 950 140 950 q 253 908 215 950 l 413 746 q 458 695 445 714 q 420 702 443 691 q 393 714 397 712 l 160 792 z "},"a":{"ha":765,"x_min":38,"x_max":773,"o":"m 478 379 l 478 483 q 443 579 478 542 q 350 615 407 615 q 284 604 316 615 q 233 575 253 593 q 168 480 214 556 q 174 424 168 446 q 144 399 179 401 q 54 475 61 408 q 93 557 56 515 q 197 625 131 598 q 347 651 264 651 q 621 469 621 651 l 621 142 q 681 46 621 46 q 705 51 695 46 q 722 64 716 56 q 739 92 729 73 q 760 140 748 111 q 771 100 773 140 q 725 13 771 49 q 626 -22 679 -22 q 475 117 479 -22 q 478 146 478 128 q 380 22 454 66 q 225 -22 306 -22 q 97 17 152 -22 q 38 117 42 56 q 71 238 38 189 q 164 316 104 287 q 301 360 224 346 q 478 379 377 374 m 478 345 q 464 345 473 345 q 450 346 455 346 q 321 327 382 346 q 222 269 260 307 q 148 170 183 231 q 151 154 149 165 q 153 138 152 143 q 196 70 164 94 q 304 48 228 45 q 388 76 348 50 q 453 148 428 101 q 478 258 478 194 l 478 345 z "},"b":{"ha":840,"x_min":-85,"x_max":810,"o":"m 247 507 q 464 651 323 651 q 644 609 568 651 q 760 496 720 566 q 808 345 801 426 q 810 315 810 335 q 766 151 810 230 q 642 24 723 72 q 455 -25 561 -25 q 370 -13 402 -25 q 278 30 338 0 q 193 60 219 60 q 113 33 136 91 q 82 -14 92 3 q 76 -3 80 -14 q 105 228 105 88 l 105 749 q 98 847 105 813 q 60 900 91 880 q -38 920 29 920 q -85 950 -85 933 q 13 958 -84 950 q 166 976 110 965 q 233 1036 221 987 q 247 1004 247 1036 l 247 979 l 247 507 m 450 618 q 303 533 353 614 q 247 319 254 452 q 246 283 246 307 q 297 88 246 161 q 439 8 349 15 q 614 95 537 8 q 691 313 691 181 q 673 449 691 380 q 589 568 655 519 q 450 618 522 618 z "},"c":{"ha":692,"x_min":14,"x_max":694,"o":"m 379 651 q 509 635 449 651 q 605 588 569 618 q 643 521 641 558 q 619 447 643 471 q 558 421 595 423 q 506 441 527 423 q 483 488 485 459 q 555 546 566 520 q 478 594 544 572 q 364 615 411 615 q 258 580 303 615 q 188 483 213 544 q 162 345 164 421 q 165 331 165 339 q 202 192 168 258 q 291 84 235 125 q 413 38 346 42 q 646 136 546 38 q 685 166 673 166 q 675 131 694 166 q 613 67 675 129 q 484 -10 551 5 q 356 -25 417 -25 q 164 18 241 -25 q 51 131 87 61 q 14 283 14 201 q 17 325 14 298 q 70 481 25 406 q 195 603 115 555 q 379 651 275 650 z "},"d":{"ha":914,"x_min":46,"x_max":908,"o":"m 594 537 l 594 711 q 584 850 594 805 q 551 907 573 895 q 489 920 530 920 l 436 920 q 388 946 392 929 q 546 965 455 941 q 683 1014 637 988 q 724 1030 712 1030 q 738 990 738 1030 l 738 963 l 738 165 q 755 78 738 107 q 787 38 772 50 q 908 -2 803 26 q 632 0 868 -2 q 601 5 607 0 q 594 35 594 10 l 594 95 q 513 7 564 38 q 401 -25 462 -23 q 213 23 293 -25 q 90 150 132 72 q 46 315 47 228 q 48 328 48 322 q 92 486 52 412 q 210 606 132 560 q 396 651 288 651 q 476 637 435 651 q 549 598 516 624 q 594 537 581 572 m 404 615 q 297 578 345 614 q 202 488 249 542 q 160 352 155 435 q 209 126 160 220 q 407 8 258 32 q 597 325 597 8 q 553 529 597 443 q 404 615 510 615 z "},"e":{"ha":765,"x_min":40,"x_max":751,"o":"m 162 555 q 276 609 207 592 q 420 626 346 626 q 646 515 559 625 q 663 495 683 455 q 682 469 643 535 q 687 318 721 402 l 172 305 q 258 105 189 167 q 469 46 328 43 q 708 166 610 41 q 743 228 733 213 q 743 188 751 228 q 738 165 743 182 q 644 62 701 105 q 517 -3 586 18 q 375 -25 448 -25 q 204 17 277 -25 q 89 128 131 58 q 40 301 44 206 q 73 442 42 375 q 162 555 104 509 m 158 365 l 578 366 q 628 387 628 363 q 571 510 644 425 q 375 575 503 588 q 241 530 294 575 q 170 436 188 484 q 158 365 171 429 z "},"f":{"ha":469,"x_min":-12,"x_max":603,"o":"m 40 608 l 100 624 q 151 667 151 624 q 168 805 151 725 q 249 960 184 885 q 445 1036 315 1035 q 603 908 588 1040 q 595 871 603 879 q 555 838 587 863 q 522 877 524 841 q 517 942 521 912 q 488 995 524 991 q 421 1001 452 1000 q 336 952 376 1001 q 296 828 296 902 l 296 624 l 430 613 q 465 598 465 613 q 429 592 443 591 l 296 592 l 296 176 q 309 85 296 116 q 347 44 322 55 q 415 32 372 34 q 450 35 429 35 q 490 3 490 24 q -12 3 467 -7 q 22 35 -12 24 q 106 44 80 35 q 142 83 133 54 q 151 176 151 112 l 151 592 l 32 592 q 0 606 4 592 q 40 608 5 608 z "},"g":{"ha":765,"x_min":5,"x_max":765,"o":"m 480 629 q 569 691 509 659 q 678 724 629 724 q 739 704 713 724 q 765 651 765 684 q 742 598 765 621 q 683 572 719 574 q 683 653 721 606 q 567 649 670 670 q 518 612 545 649 q 619 532 582 594 q 657 396 657 470 q 615 262 657 319 q 505 175 573 205 q 361 144 436 145 q 293 152 338 145 q 222 160 248 160 q 166 144 189 160 q 144 117 144 129 q 161 78 144 91 q 202 61 178 65 q 259 57 227 58 q 304 54 292 56 l 376 54 q 510 49 450 54 q 623 27 570 43 q 708 -22 675 12 q 743 -108 742 -56 q 624 -311 743 -259 q 358 -364 505 -364 q 164 -339 243 -364 q 46 -275 85 -314 q 5 -196 7 -236 q 37 -139 5 -161 q 122 -114 68 -116 q 168 -119 156 -119 q 118 -150 136 -127 q 88 -200 101 -172 q 219 -304 93 -278 q 388 -328 308 -328 q 516 -312 458 -328 q 608 -265 574 -295 q 646 -196 643 -235 q 609 -104 646 -148 q 500 -54 572 -60 q 300 -45 429 -48 q 149 -43 209 -43 q 71 -11 90 -44 q 52 68 52 22 q 105 150 59 118 q 205 182 150 182 q 100 263 139 203 q 60 396 62 324 q 107 528 65 470 q 216 617 149 586 q 358 649 282 649 q 480 629 421 649 m 364 615 q 228 565 284 615 q 172 405 172 514 q 214 241 172 303 q 361 179 257 180 q 500 239 448 179 q 555 403 552 298 q 370 615 530 603 l 364 615 z "},"h":{"ha":939,"x_min":-5,"x_max":938,"o":"m 318 515 q 395 563 355 538 q 472 606 434 587 q 549 637 510 625 q 629 649 589 649 q 771 496 771 649 l 771 199 q 785 83 771 119 q 824 40 799 47 q 903 32 850 32 q 938 2 938 19 q 491 -2 919 6 q 532 32 496 16 q 580 41 561 32 q 613 85 599 49 q 665 488 626 122 q 578 597 665 597 q 318 478 494 597 l 318 193 q 339 64 318 95 q 393 29 360 32 q 415 32 404 32 q 455 2 439 32 q 8 2 397 -3 q 46 35 13 22 q 76 32 65 35 q 151 66 126 34 q 176 199 176 97 l 176 732 q 165 855 176 815 q 131 907 154 895 q 62 935 107 920 l -5 933 q 4 949 -5 942 q 29 956 14 956 q 153 967 79 956 q 275 1006 226 979 q 318 1073 328 1060 q 318 960 328 1073 l 318 515 z "},"i":{"ha":469,"x_min":0,"x_max":496,"o":"m 250 890 q 309 861 291 890 q 327 797 327 832 q 301 732 327 760 q 247 708 276 705 q 194 736 211 710 q 177 797 177 763 q 202 861 177 833 q 250 890 228 890 m 174 407 q 148 502 174 478 q 85 540 123 526 l 17 543 q 46 564 22 564 q 152 574 96 566 q 253 613 209 582 q 313 671 286 625 q 318 583 330 671 l 318 179 q 342 61 318 89 q 418 32 367 34 q 452 25 434 25 q 481 2 496 11 q 0 0 444 -1 q 38 35 8 23 q 94 38 63 36 q 142 54 126 40 q 166 104 158 68 q 174 208 174 140 l 174 407 z "},"j":{"ha":370,"x_min":-196,"x_max":296,"o":"m 201 890 q 261 859 247 890 q 275 793 275 828 q 250 730 275 758 q 203 708 226 702 q 150 740 162 708 q 138 808 138 771 q 163 870 138 844 q 201 890 189 896 m 151 370 q 129 496 151 466 q 63 535 107 526 l -22 545 q 25 564 -10 550 q 97 574 53 564 q 183 601 142 585 q 244 632 225 617 q 290 688 275 653 q 293 608 293 601 l 296 0 q 246 -191 296 -116 q 127 -300 196 -266 q 0 -333 58 -333 q -148 -300 -100 -333 q -196 -219 -196 -268 q -171 -180 -194 -196 q -117 -162 -149 -164 q -98 -192 -84 -165 q -103 -263 -112 -220 q 32 -299 -95 -312 q 111 -258 73 -299 q 151 -11 151 -204 l 151 370 z "},"k":{"ha":863,"x_min":-43,"x_max":946,"o":"m 304 301 l 399 364 q 515 450 458 396 q 583 553 583 506 q 532 592 583 592 l 488 600 q 432 620 436 606 q 905 622 506 620 q 884 605 905 616 q 851 594 864 594 q 722 552 798 592 q 532 426 646 511 l 743 128 q 809 62 773 87 q 877 38 845 38 q 946 0 946 21 q 461 0 902 1 q 512 32 516 35 q 532 29 524 32 q 583 65 583 29 q 510 211 583 113 l 418 336 l 304 265 l 304 182 q 311 106 304 137 q 343 53 317 74 q 418 32 368 32 q 436 0 436 18 q -3 2 287 0 q 29 35 1 20 q 62 32 52 35 q 136 65 113 34 q 160 188 160 97 l 160 706 q 148 853 160 809 q 108 909 135 898 q -43 941 80 920 q 18 950 28 951 q 143 956 72 950 q 260 991 214 963 q 279 1022 267 996 q 297 1048 291 1048 q 304 974 299 1013 l 304 301 z "},"l":{"ha":469,"x_min":-42,"x_max":467,"o":"m 160 771 q 135 891 160 863 q 60 928 110 920 l -42 936 q 0 956 -42 956 q 196 987 142 962 q 272 1029 249 1012 q 298 1056 294 1047 q 304 982 306 1021 l 304 190 q 315 98 304 132 q 354 50 326 65 q 435 35 382 35 q 467 0 467 21 q -5 0 466 -5 q 35 35 0 18 q 111 43 86 35 q 148 86 136 52 q 160 199 160 121 l 160 771 z "},"m":{"ha":1310,"x_min":-1,"x_max":1332,"o":"m 304 532 q 462 619 397 587 q 581 651 528 651 q 678 622 643 649 q 724 535 713 595 q 876 615 793 578 q 1004 651 959 651 q 1104 618 1064 649 q 1144 515 1144 588 l 1144 214 q 1152 103 1144 139 q 1176 52 1160 66 q 1221 31 1192 39 q 1287 21 1250 24 q 1315 2 1332 -9 q 885 2 1274 -3 q 907 19 895 10 q 970 42 949 19 q 997 98 990 65 q 1004 188 1004 131 l 1004 447 q 922 578 1004 578 q 724 498 859 578 l 724 185 q 740 67 724 109 q 801 25 756 25 q 840 2 841 14 q 456 -2 622 3 q 486 23 459 5 q 538 38 521 25 q 567 81 554 50 q 581 179 581 112 l 581 453 q 498 581 581 581 q 416 559 461 581 q 304 498 370 537 l 304 203 q 319 64 304 103 q 385 25 335 25 q 427 0 424 9 q 5 0 309 2 q 31 19 8 9 q 57 29 47 19 q 116 42 96 31 q 148 93 137 54 q 160 217 160 133 l 160 382 q 135 499 160 472 q 65 526 111 526 l 38 526 q -1 524 43 528 q 31 552 4 532 q 166 587 103 574 q 253 617 229 600 q 305 665 251 605 q 304 615 301 621 l 304 532 z "},"n":{"ha":840,"x_min":-20,"x_max":868,"o":"m 282 518 q 564 651 458 648 q 669 612 629 651 q 708 504 708 573 l 708 214 q 717 100 708 138 q 742 50 726 62 q 796 31 759 38 q 842 22 834 24 q 868 0 865 8 q 450 1 659 1 q 483 28 462 15 q 529 43 515 31 q 554 94 543 55 q 564 214 564 132 l 564 469 q 489 578 564 578 q 282 486 424 578 l 282 174 q 306 59 282 94 q 375 24 329 24 q 415 3 417 1 q -20 1 338 -2 q 15 23 -17 11 q 52 32 38 23 q 118 64 94 34 q 142 182 142 94 l 142 407 q 118 504 142 478 q 48 529 95 529 q 19 530 34 532 q -20 529 5 529 q 8 547 -12 536 q 222 624 140 572 q 278 680 270 658 q 282 624 280 618 l 282 518 z "},"o":{"ha":793,"x_min":70,"x_max":723,"o":"m 390 649 q 546 614 468 650 q 660 528 625 579 q 709 419 695 477 q 719 282 723 360 q 673 124 715 187 q 565 18 630 61 q 393 -25 500 -25 q 202 25 269 -30 q 103 158 135 81 q 70 336 71 234 q 115 489 74 417 q 221 604 156 562 q 390 649 286 647 m 388 615 q 250 536 299 613 q 196 325 201 458 q 242 95 196 182 q 393 8 288 8 q 510 46 461 8 q 579 140 559 84 q 597 327 600 197 q 574 471 592 413 q 507 573 556 530 q 388 615 458 615 z "},"p":{"ha":840,"x_min":-40,"x_max":773,"o":"m -14 -286 q 37 -276 18 -284 q 75 -258 55 -268 q 105 -218 94 -247 q 117 -133 117 -189 l 117 424 q 102 496 117 473 q 65 524 87 519 q 0 529 42 529 q -39 524 -40 529 q 0 567 -39 544 q 111 593 50 571 q 217 640 173 614 q 262 704 253 681 q 261 626 266 672 l 261 529 q 346 623 293 591 q 467 654 400 654 q 602 630 539 654 q 692 563 664 607 q 745 464 720 519 q 773 347 770 409 q 687 80 773 179 q 478 -19 601 -19 q 371 0 413 -19 q 309 40 329 19 q 261 100 290 61 l 261 -92 q 271 -205 261 -166 q 300 -257 281 -244 q 348 -278 319 -271 q 414 -287 377 -286 q 447 -306 447 -302 q -36 -303 429 -302 q -14 -286 -36 -290 m 455 14 q 604 112 558 16 q 649 328 649 209 q 593 535 649 453 q 442 618 538 618 q 303 529 345 614 q 261 319 261 444 q 305 99 261 184 q 450 11 349 13 q 453 13 452 13 q 455 14 455 14 z "},"q":{"ha":840,"x_min":58,"x_max":891,"o":"m 583 100 q 542 42 572 71 q 470 -6 511 13 q 388 -25 429 -25 q 192 22 271 -25 q 85 150 113 70 q 58 325 58 229 q 84 445 59 387 q 145 549 109 503 q 244 622 181 595 q 382 651 307 649 q 473 637 436 651 q 563 593 510 622 q 640 564 616 565 q 695 611 668 544 q 726 699 710 653 q 732 591 735 699 q 729 364 729 483 l 729 -139 q 745 -232 729 -202 q 786 -273 760 -262 q 864 -285 812 -285 q 891 -306 890 -301 q 399 -308 813 -301 q 431 -290 403 -294 q 569 -234 554 -259 q 583 -157 583 -208 l 583 100 m 388 8 q 586 325 586 8 q 540 545 584 475 q 388 615 496 615 q 247 529 293 611 q 196 336 201 448 q 217 174 196 248 q 281 54 238 99 q 388 8 325 8 z "},"r":{"ha":615,"x_min":-5,"x_max":588,"o":"m 304 526 q 347 561 313 533 q 407 608 381 589 q 463 639 433 627 q 518 651 492 651 q 577 622 566 649 q 588 558 588 595 q 566 505 588 528 q 535 486 544 483 q 495 495 512 486 q 474 535 478 505 q 458 573 469 565 q 404 555 447 582 q 359 537 375 549 q 304 489 342 524 l 304 253 q 316 101 304 146 q 355 40 328 57 q 455 23 383 23 q 518 0 514 7 q 2 -5 474 2 q 40 35 6 13 q 60 32 54 35 q 136 63 112 34 q 160 193 160 93 l 160 410 q 135 504 160 481 q 65 526 110 526 l -5 527 q 147 581 85 556 q 244 626 209 606 q 301 683 249 618 q 304 610 301 598 l 304 526 z "},"s":{"ha":692,"x_min":12,"x_max":675,"o":"m 543 651 l 635 405 q 581 439 597 430 q 521 528 561 489 q 434 590 481 567 q 342 615 386 612 q 223 583 271 615 q 174 502 176 551 q 176 493 176 498 q 228 429 182 449 q 370 396 273 409 q 518 372 468 382 q 606 333 569 362 q 663 168 675 284 q 634 77 663 113 q 543 9 605 41 q 407 -22 481 -22 q 296 -14 361 -22 q 225 -5 230 -6 q 150 -7 164 11 q 142 -52 133 -31 q 117 -11 130 -52 l 12 281 q 102 176 47 247 q 195 76 156 105 q 281 30 234 47 q 379 8 328 13 q 498 46 452 11 q 543 144 543 81 q 513 211 541 187 q 439 246 484 235 q 317 266 393 257 q 205 282 240 275 q 86 342 127 298 q 55 443 45 386 q 87 542 57 494 q 166 618 118 589 q 282 649 214 647 q 346 647 315 649 q 401 642 376 645 q 445 637 427 639 q 502 631 482 629 q 496 726 514 667 q 543 651 524 679 z "},"t":{"ha":543,"x_min":-22,"x_max":575,"o":"m 146 592 l -22 590 q 102 642 43 615 q 206 727 161 668 q 285 985 250 785 q 290 626 280 900 l 483 626 q 545 610 495 623 q 483 592 463 585 l 290 592 l 290 174 q 319 60 290 93 q 401 22 349 27 q 543 128 513 22 q 563 186 548 134 q 575 119 573 122 q 509 13 575 51 q 372 -25 444 -25 q 146 157 146 -25 l 146 592 z "},"u":{"ha":840,"x_min":-55,"x_max":881,"o":"m 567 111 q 477 53 498 67 q 416 20 455 40 q 335 -8 378 0 q 253 -17 292 -17 q 149 25 182 -17 q 117 133 117 66 l 117 379 q 107 472 117 440 q 78 515 97 504 q 28 526 59 526 l -55 523 q 100 581 30 558 q 201 626 171 604 q 261 691 242 629 q 261 171 254 82 q 345 46 261 50 q 375 48 356 48 q 567 142 444 64 l 567 418 q 541 503 567 480 q 469 526 516 526 l 385 522 q 532 574 447 547 q 669 637 616 601 q 708 683 668 633 q 711 581 708 628 l 711 196 q 724 84 711 118 q 762 48 738 50 q 881 0 786 47 q 600 0 589 -10 q 567 29 567 0 l 567 111 z "},"v":{"ha":692,"x_min":-60,"x_max":761,"o":"m 122 445 q 55 563 84 535 q -5 602 25 592 l -60 623 q 373 623 30 622 q 333 595 367 612 q 270 583 291 595 q 247 540 249 570 q 265 472 253 507 l 407 136 l 515 404 q 546 521 546 476 q 463 596 551 596 q 421 620 429 608 q 761 623 531 620 q 725 600 754 617 q 627 539 667 590 q 561 424 587 489 l 353 -72 q 310 17 324 -11 l 122 445 z "},"w":{"ha":1064,"x_min":-25,"x_max":1129,"o":"m 396 139 l 510 450 q 454 558 476 528 q 401 605 431 587 q 363 626 378 622 q 745 623 423 626 q 686 594 745 616 q 626 537 628 571 q 646 472 631 506 l 786 139 l 871 372 q 906 515 906 466 q 886 579 906 558 q 815 600 866 600 q 771 625 785 615 q 1129 622 826 622 q 1090 594 1100 598 q 981 526 1034 594 q 885 336 929 458 l 745 -47 q 524 407 703 16 l 348 -42 q 119 455 301 83 q 68 551 93 520 q 33 586 44 581 q -25 625 21 591 q 330 625 50 625 q 293 598 302 606 q 239 546 248 585 q 245 525 241 539 q 253 498 249 511 l 396 139 z "},"x":{"ha":740,"x_min":-67,"x_max":804,"o":"m 401 404 l 439 445 q 492 540 492 501 q 480 573 492 568 q 431 594 468 578 q 388 626 394 610 q 771 625 485 622 q 713 596 738 611 q 644 571 681 589 q 567 526 607 554 q 502 472 527 498 l 418 382 l 618 151 q 729 36 690 75 q 786 -1 767 -3 q 358 0 804 1 q 395 27 370 10 q 454 37 435 27 q 472 71 472 47 q 413 176 472 105 l 318 288 l 236 199 q 190 105 195 158 q 213 47 192 73 q 280 22 234 22 q 318 -2 308 6 q -67 -3 196 -1 q -23 23 -53 3 q 28 44 0 23 q 100 99 56 65 q 190 188 143 133 l 299 313 l 179 447 q 91 549 115 523 q 51 582 66 575 q -5 600 35 590 q -37 623 -33 615 q 358 625 11 626 q 307 602 336 607 q 275 570 279 597 q 318 510 279 546 l 401 404 z "},"y":{"ha":692,"x_min":-55,"x_max":758,"o":"m 418 151 l 507 379 q 543 521 543 469 q 525 575 543 558 q 461 592 506 592 q 427 625 432 608 q 758 626 509 622 q 729 594 758 612 q 624 528 680 594 q 526 350 568 463 l 436 114 q 400 14 414 48 q 375 -43 387 -20 l 299 -196 q 233 -280 279 -241 q 131 -318 186 -318 q 57 -298 91 -318 q 19 -239 24 -277 q 25 -128 -3 -88 q 75 -209 53 -167 q 198 -244 129 -278 q 282 -157 260 -205 l 342 -28 l 157 388 q 87 525 116 481 q 45 577 59 569 q -7 598 31 585 q -55 625 -39 614 q 390 625 33 622 q 335 605 356 605 q 272 582 287 592 q 256 540 258 571 q 276 469 261 501 l 418 151 z "},"z":{"ha":717,"x_min":13,"x_max":685,"o":"m 439 558 q 450 581 450 569 q 424 592 450 592 q 87 432 174 592 q 21 371 71 420 q 139 632 14 371 q 177 693 153 664 q 274 624 171 597 l 624 624 q 685 642 651 623 q 610 558 685 636 l 242 85 q 222 48 228 64 q 242 38 225 38 q 304 32 251 38 q 649 225 551 38 q 679 294 641 215 q 567 -29 679 253 q 537 -62 552 -62 q 527 -2 540 -42 q 426 0 514 -2 l 13 0 q 98 102 23 14 l 439 558 z "},"{":{"ha":472,"x_min":-11,"x_max":471,"o":"m -11 435 l -11 439 q 108 472 70 449 q 154 521 145 494 q 162 589 162 547 l 162 822 q 202 957 162 915 q 297 1025 241 1000 q 460 1087 354 1049 q 304 871 335 990 l 304 621 q 281 517 304 555 q 217 463 257 479 q 117 439 178 447 l 117 435 q 260 386 216 422 q 304 276 304 350 l 304 0 q 343 -83 310 -49 q 471 -188 376 -118 q 314 -144 371 -163 q 207 -102 258 -125 q 162 0 155 -80 l 162 288 q 119 388 162 346 q -11 435 76 431 z "},"|":{"ha":436,"x_min":166,"x_max":271,"o":"m 168 982 q 171 1028 168 1021 q 269 1031 174 1036 l 268 993 l 271 -2 q 166 0 268 0 l 168 982 z "},"}":{"ha":472,"x_min":2,"x_max":480,"o":"m 480 435 l 480 429 q 363 395 400 417 q 318 346 327 373 q 310 276 310 319 l 310 46 q 286 -66 310 -25 q 219 -117 262 -107 q 127 -154 177 -127 q 2 -194 77 -180 q 165 -5 143 -128 l 165 244 q 189 349 165 311 q 252 403 213 387 q 353 429 292 420 l 353 435 q 210 480 255 445 q 165 592 165 516 l 165 865 q 125 968 156 907 q 4 1073 94 1030 q 142 1027 80 1061 q 256 964 203 992 q 310 865 310 936 l 310 581 q 352 479 310 520 q 480 435 394 437 z "},"~":{"ha":877,"x_min":17,"x_max":860,"o":"m 17 339 q 256 537 118 537 q 342 523 301 537 q 442 481 384 509 q 541 438 500 453 q 624 421 581 422 q 713 455 671 423 q 797 561 755 486 l 860 507 q 738 359 796 404 q 618 313 680 315 q 536 329 576 314 q 437 373 495 345 q 338 415 379 401 q 253 429 298 429 q 182 411 211 429 q 132 363 153 393 q 89 285 111 332 l 17 339 z "},"Ä":{"ha":990,"x_min":-84,"x_max":1064,"o":"m 448 943 q 520 1068 493 1023 q 553 987 560 968 l 828 222 q 889 95 860 135 q 943 42 918 55 q 1015 29 968 29 q 1064 -1 1060 11 q 506 -1 825 4 q 551 29 509 14 q 627 48 568 29 q 686 114 686 68 q 669 196 686 146 l 608 372 l 265 372 l 225 261 q 196 136 201 196 q 223 57 198 80 q 309 25 248 34 q 342 1 336 10 q -77 0 276 0 q -60 20 -84 10 q 1 43 -36 30 q 72 77 37 56 q 127 143 107 98 q 182 262 146 189 l 407 863 q 448 943 406 858 m 594 407 l 435 839 l 276 407 l 594 407 m 341 1343 q 402 1322 379 1343 q 430 1267 426 1300 q 407 1191 430 1222 q 341 1159 384 1161 q 338 1161 340 1160 q 336 1161 337 1161 q 272 1192 295 1163 q 249 1260 249 1220 q 276 1319 251 1294 q 341 1343 301 1343 m 642 1343 q 712 1316 686 1343 q 740 1254 738 1290 q 713 1191 740 1220 q 650 1161 685 1161 q 583 1189 608 1161 q 555 1252 558 1216 q 580 1313 555 1285 q 642 1343 605 1341 z "},"Å":{"ha":990,"x_min":-84,"x_max":1064,"o":"m 448 943 q 520 1068 493 1023 q 553 987 560 968 l 828 222 q 889 95 860 135 q 943 42 918 55 q 1015 29 968 29 q 1064 -1 1060 11 q 506 -1 825 4 q 551 29 509 14 q 627 48 568 29 q 686 114 686 68 q 669 196 686 146 l 608 372 l 265 372 l 225 261 q 196 136 201 196 q 223 57 198 80 q 309 25 248 34 q 342 1 336 10 q -77 0 276 0 q -60 20 -84 10 q 1 43 -36 30 q 72 77 37 56 q 127 143 107 98 q 182 262 146 189 l 407 863 q 448 943 406 858 m 594 407 l 435 839 l 276 407 l 594 407 m 496 1354 q 552 1339 527 1354 q 590 1299 577 1323 q 604 1252 604 1275 q 576 1170 604 1205 q 499 1135 547 1135 q 418 1165 451 1135 q 382 1238 384 1196 q 385 1249 385 1243 q 417 1322 387 1290 q 496 1354 447 1354 m 490 1306 q 450 1287 468 1306 q 431 1243 433 1267 q 449 1202 431 1220 q 493 1183 468 1183 q 539 1201 523 1183 q 556 1246 556 1219 q 537 1288 556 1271 q 490 1306 518 1306 z "},"Ç":{"ha":1013,"x_min":35,"x_max":1012,"o":"m 436 -8 q 271 52 346 4 q 143 172 196 99 q 62 334 90 245 q 35 518 35 423 q 73 704 38 615 q 171 862 107 792 q 324 974 234 932 q 524 1017 414 1015 q 655 1006 582 1017 q 735 996 728 996 q 797 969 763 998 q 837 964 831 941 q 814 1067 845 992 q 840 1028 828 1067 l 957 735 l 990 643 q 920 732 971 649 q 838 851 897 792 q 704 947 780 910 q 553 985 627 985 q 328 871 423 982 q 222 518 234 760 q 221 468 221 502 q 249 258 221 347 q 326 116 277 170 q 440 37 376 62 q 581 11 504 12 q 586 13 584 13 q 589 14 588 14 q 818 77 730 14 q 963 256 906 140 q 1001 378 971 276 q 996 261 1012 378 q 990 239 996 254 q 939 146 967 190 q 864 65 910 103 q 746 1 818 26 q 576 -24 675 -24 q 498 -19 538 -24 l 498 -85 q 514 -82 505 -83 q 532 -79 524 -81 q 602 -103 577 -79 q 626 -154 626 -126 q 583 -221 626 -198 q 492 -244 540 -244 q 385 -211 397 -244 q 399 -199 385 -203 q 464 -211 413 -211 q 533 -201 497 -211 q 569 -171 569 -190 q 475 -111 565 -124 q 436 -119 447 -117 l 436 -8 z "},"É":{"ha":990,"x_min":7,"x_max":1025,"o":"m 208 754 q 192 886 208 841 q 149 943 175 930 q 85 957 123 957 l 38 957 q 7 998 12 979 q 646 996 159 990 q 750 999 713 996 q 797 1021 787 1002 q 773 1093 799 1047 q 830 1025 832 1021 l 933 768 q 945 709 933 766 q 908 764 936 726 q 808 868 868 825 q 673 933 748 910 q 521 957 597 956 q 403 923 436 957 q 370 814 370 889 l 370 550 l 507 550 q 613 560 569 550 q 693 605 656 570 q 733 716 730 641 q 753 787 750 756 l 753 262 q 732 321 753 272 q 665 475 728 435 q 507 515 601 515 l 370 515 l 370 205 q 411 76 370 115 q 553 36 452 36 q 568 37 558 36 q 586 38 578 38 q 732 69 662 40 q 865 152 803 98 q 971 276 927 206 q 993 315 981 292 q 1004 299 1025 368 q 999 276 1004 293 l 840 -79 q 784 -171 827 -109 q 810 -80 797 -117 q 778 -9 822 -28 q 549 0 733 11 l 10 -2 q 38 38 7 33 q 106 41 77 39 q 157 58 134 43 q 194 122 180 74 q 208 265 208 171 l 208 754 m 603 1161 l 370 1086 q 354 1082 359 1083 q 339 1078 349 1081 q 331 1086 335 1078 q 350 1118 336 1104 l 510 1281 q 629 1347 548 1322 q 683 1319 660 1347 q 705 1259 705 1292 q 603 1161 705 1205 z "},"Ñ":{"ha":1064,"x_min":-4,"x_max":1105,"o":"m 236 896 l 236 322 q 259 132 236 194 q 320 54 282 70 q 418 38 357 38 q 471 0 471 21 q 0 3 -4 -5 q 35 38 4 24 q 110 56 76 38 q 172 145 145 74 q 199 361 199 217 l 199 914 q 62 957 172 957 l 43 957 q 2 1000 7 980 q 350 999 42 996 q 393 957 383 970 q 401 939 395 952 l 871 196 l 871 678 q 852 860 871 799 q 806 939 834 921 q 738 957 777 957 l 705 966 q 658 996 661 977 q 1105 998 789 993 q 1066 966 1100 985 q 938 893 969 966 q 906 689 906 820 l 911 -2 q 841 0 888 -2 q 236 896 831 0 m 336 1189 q 390 1254 353 1226 q 467 1281 428 1281 q 524 1267 493 1279 q 587 1244 554 1256 q 646 1229 620 1232 q 717 1278 692 1235 q 729 1289 722 1289 q 740 1263 740 1289 q 686 1169 734 1206 q 581 1124 638 1131 q 542 1134 560 1127 q 493 1154 524 1140 q 438 1176 461 1168 q 393 1183 416 1183 q 360 1168 379 1183 q 336 1149 342 1152 q 328 1161 332 1149 q 332 1177 330 1167 q 336 1189 335 1187 z "},"Ö":{"ha":1085,"x_min":38,"x_max":1047,"o":"m 529 985 q 343 908 420 984 q 247 762 266 832 q 208 559 228 692 q 206 504 206 542 q 237 279 206 381 q 320 117 267 176 q 535 11 373 59 q 688 40 625 12 q 805 129 750 68 q 868 279 860 190 q 877 500 877 368 l 877 544 q 784 868 873 751 q 529 985 694 985 m 524 1017 q 541 1017 529 1017 q 557 1018 552 1018 q 759 979 670 1018 q 909 874 848 941 q 1006 719 970 808 q 1045 525 1041 630 q 1047 475 1047 492 q 1018 291 1047 378 q 924 133 988 205 q 764 19 860 61 q 546 -22 668 -22 l 512 -22 q 307 30 396 -15 q 162 147 217 75 q 72 312 107 219 q 38 504 38 405 q 96 748 40 632 q 261 937 152 863 q 524 1017 371 1011 m 389 1343 q 450 1322 427 1343 q 478 1267 473 1300 q 454 1191 478 1222 q 389 1159 431 1161 q 386 1161 387 1160 q 384 1161 384 1161 q 319 1192 343 1163 q 296 1260 296 1220 q 323 1319 298 1294 q 389 1343 348 1343 m 689 1343 q 759 1316 733 1343 q 788 1254 785 1290 q 760 1191 788 1220 q 697 1161 733 1161 q 631 1189 656 1161 q 603 1252 605 1216 q 628 1313 603 1285 q 689 1343 652 1341 z "},"Ü":{"ha":1085,"x_min":-43,"x_max":1137,"o":"m 165 754 q 148 887 165 842 q 101 944 130 931 q 29 957 73 957 l -8 965 q -43 997 -43 978 q 571 995 7 996 q 531 965 570 984 q 429 957 458 964 q 374 931 399 951 q 335 863 349 911 q 322 726 322 814 l 322 256 q 355 108 322 160 q 446 35 387 55 q 594 14 504 16 q 896 265 896 14 l 896 672 q 874 856 896 794 q 816 941 853 918 q 715 963 779 963 q 678 998 685 985 q 1107 996 724 997 q 1137 995 1116 996 q 1099 965 1135 984 q 1035 957 1056 963 q 989 926 1014 950 q 949 842 965 901 q 933 683 933 784 l 933 301 q 912 146 933 208 q 850 49 891 85 q 749 -3 808 13 q 603 -22 689 -20 l 555 -22 q 401 -11 470 -22 q 279 31 333 0 q 195 119 225 62 q 165 265 165 177 l 165 754 m 392 1343 q 453 1322 429 1343 q 480 1267 476 1300 q 457 1191 480 1222 q 392 1159 434 1161 q 388 1161 390 1160 q 386 1161 387 1161 q 322 1192 346 1163 q 299 1260 299 1220 q 326 1319 301 1294 q 392 1343 351 1343 m 692 1343 q 762 1316 736 1343 q 790 1254 788 1290 q 763 1191 790 1220 q 700 1161 735 1161 q 633 1189 659 1161 q 606 1252 608 1216 q 630 1313 606 1285 q 692 1343 655 1341 z "},"á":{"ha":765,"x_min":38,"x_max":773,"o":"m 478 379 l 478 483 q 443 579 478 542 q 350 615 407 615 q 284 604 316 615 q 233 575 253 593 q 168 480 214 556 q 174 424 168 446 q 144 399 179 401 q 54 475 61 408 q 93 557 56 515 q 197 625 131 598 q 347 651 264 651 q 621 469 621 651 l 621 142 q 681 46 621 46 q 705 51 695 46 q 722 64 716 56 q 739 92 729 73 q 760 140 748 111 q 771 100 773 140 q 725 13 771 49 q 626 -22 679 -22 q 475 117 479 -22 q 478 146 478 128 q 380 22 454 66 q 225 -22 306 -22 q 97 17 152 -22 q 38 117 42 56 q 71 238 38 189 q 164 316 104 287 q 301 360 224 346 q 478 379 377 374 m 478 345 q 464 345 473 345 q 450 346 455 346 q 321 327 382 346 q 222 269 260 307 q 148 170 183 231 q 151 154 149 165 q 153 138 152 143 q 196 70 164 94 q 304 48 228 45 q 388 76 348 50 q 453 148 428 101 q 478 258 478 194 l 478 345 m 489 790 l 256 715 q 240 710 245 712 q 225 706 235 709 q 217 715 221 706 q 236 747 222 732 l 396 909 q 515 975 434 951 q 569 948 546 975 q 591 888 591 920 q 489 790 591 833 z "},"à":{"ha":765,"x_min":38,"x_max":773,"o":"m 478 379 l 478 483 q 443 579 478 542 q 350 615 407 615 q 284 604 316 615 q 233 575 253 593 q 168 480 214 556 q 174 424 168 446 q 144 399 179 401 q 54 475 61 408 q 93 557 56 515 q 197 625 131 598 q 347 651 264 651 q 621 469 621 651 l 621 142 q 681 46 621 46 q 705 51 695 46 q 722 64 716 56 q 739 92 729 73 q 760 140 748 111 q 771 100 773 140 q 725 13 771 49 q 626 -22 679 -22 q 475 117 479 -22 q 478 146 478 128 q 380 22 454 66 q 225 -22 306 -22 q 97 17 152 -22 q 38 117 42 56 q 71 238 38 189 q 164 316 104 287 q 301 360 224 346 q 478 379 377 374 m 478 345 q 464 345 473 345 q 450 346 455 346 q 321 327 382 346 q 222 269 260 307 q 148 170 183 231 q 151 154 149 165 q 153 138 152 143 q 196 70 164 94 q 304 48 228 45 q 388 76 348 50 q 453 148 428 101 q 478 258 478 194 l 478 345 m 279 792 q 217 863 221 810 q 241 923 222 897 q 293 950 260 950 q 372 908 334 950 l 532 746 q 577 695 564 714 q 539 702 562 691 q 512 714 517 712 l 279 792 z "},"â":{"ha":765,"x_min":38,"x_max":773,"o":"m 478 379 l 478 483 q 443 579 478 542 q 350 615 407 615 q 284 604 316 615 q 233 575 253 593 q 168 480 214 556 q 174 424 168 446 q 144 399 179 401 q 54 475 61 408 q 93 557 56 515 q 197 625 131 598 q 347 651 264 651 q 621 469 621 651 l 621 142 q 681 46 621 46 q 705 51 695 46 q 722 64 716 56 q 739 92 729 73 q 760 140 748 111 q 771 100 773 140 q 725 13 771 49 q 626 -22 679 -22 q 475 117 479 -22 q 478 146 478 128 q 380 22 454 66 q 225 -22 306 -22 q 97 17 152 -22 q 38 117 42 56 q 71 238 38 189 q 164 316 104 287 q 301 360 224 346 q 478 379 377 374 m 478 345 q 464 345 473 345 q 450 346 455 346 q 321 327 382 346 q 222 269 260 307 q 148 170 183 231 q 151 154 149 165 q 153 138 152 143 q 196 70 164 94 q 304 48 228 45 q 388 76 348 50 q 453 148 428 101 q 478 258 478 194 l 478 345 m 125 733 l 356 961 q 384 980 375 980 q 413 961 393 980 l 646 727 q 686 679 667 706 q 627 709 649 693 l 385 849 l 148 715 q 79 680 126 702 q 125 733 102 708 z "},"ä":{"ha":765,"x_min":38,"x_max":773,"o":"m 478 379 l 478 483 q 443 579 478 542 q 350 615 407 615 q 284 604 316 615 q 233 575 253 593 q 168 480 214 556 q 174 424 168 446 q 144 399 179 401 q 54 475 61 408 q 93 557 56 515 q 197 625 131 598 q 347 651 264 651 q 621 469 621 651 l 621 142 q 681 46 621 46 q 705 51 695 46 q 722 64 716 56 q 739 92 729 73 q 760 140 748 111 q 771 100 773 140 q 725 13 771 49 q 626 -22 679 -22 q 475 117 479 -22 q 478 146 478 128 q 380 22 454 66 q 225 -22 306 -22 q 97 17 152 -22 q 38 117 42 56 q 71 238 38 189 q 164 316 104 287 q 301 360 224 346 q 478 379 377 374 m 478 345 q 464 345 473 345 q 450 346 455 346 q 321 327 382 346 q 222 269 260 307 q 148 170 183 231 q 151 154 149 165 q 153 138 152 143 q 196 70 164 94 q 304 48 228 45 q 388 76 348 50 q 453 148 428 101 q 478 258 478 194 l 478 345 m 231 974 q 292 952 268 974 q 319 897 315 930 q 296 822 319 852 q 231 789 273 791 q 227 791 229 791 q 225 792 226 792 q 161 822 184 794 q 138 890 138 851 q 165 949 140 925 q 231 974 190 974 m 531 974 q 601 947 575 974 q 629 885 627 920 q 602 821 629 850 q 539 792 574 792 q 472 819 497 792 q 445 882 447 847 q 469 944 445 916 q 531 974 494 971 z "},"ã":{"ha":765,"x_min":38,"x_max":773,"o":"m 478 379 l 478 483 q 443 579 478 542 q 350 615 407 615 q 284 604 316 615 q 233 575 253 593 q 168 480 214 556 q 174 424 168 446 q 144 399 179 401 q 54 475 61 408 q 93 557 56 515 q 197 625 131 598 q 347 651 264 651 q 621 469 621 651 l 621 142 q 681 46 621 46 q 705 51 695 46 q 722 64 716 56 q 739 92 729 73 q 760 140 748 111 q 771 100 773 140 q 725 13 771 49 q 626 -22 679 -22 q 475 117 479 -22 q 478 146 478 128 q 380 22 454 66 q 225 -22 306 -22 q 97 17 152 -22 q 38 117 42 56 q 71 238 38 189 q 164 316 104 287 q 301 360 224 346 q 478 379 377 374 m 478 345 q 464 345 473 345 q 450 346 455 346 q 321 327 382 346 q 222 269 260 307 q 148 170 183 231 q 151 154 149 165 q 153 138 152 143 q 196 70 164 94 q 304 48 228 45 q 388 76 348 50 q 453 148 428 101 q 478 258 478 194 l 478 345 m 162 820 q 217 884 179 857 q 293 911 254 911 q 350 898 320 909 q 414 874 381 886 q 472 860 447 862 q 543 908 519 865 q 556 920 549 920 q 567 893 567 920 q 513 799 561 837 q 407 754 465 761 q 368 764 386 757 q 319 785 350 771 q 265 806 288 799 q 219 814 242 814 q 187 798 205 814 q 162 779 168 782 q 154 792 158 779 q 159 807 156 797 q 162 820 162 818 z "},"å":{"ha":765,"x_min":38,"x_max":773,"o":"m 478 379 l 478 483 q 443 579 478 542 q 350 615 407 615 q 284 604 316 615 q 233 575 253 593 q 168 480 214 556 q 174 424 168 446 q 144 399 179 401 q 54 475 61 408 q 93 557 56 515 q 197 625 131 598 q 347 651 264 651 q 621 469 621 651 l 621 142 q 681 46 621 46 q 705 51 695 46 q 722 64 716 56 q 739 92 729 73 q 760 140 748 111 q 771 100 773 140 q 725 13 771 49 q 626 -22 679 -22 q 475 117 479 -22 q 478 146 478 128 q 380 22 454 66 q 225 -22 306 -22 q 97 17 152 -22 q 38 117 42 56 q 71 238 38 189 q 164 316 104 287 q 301 360 224 346 q 478 379 377 374 m 478 345 q 464 345 473 345 q 450 346 455 346 q 321 327 382 346 q 222 269 260 307 q 148 170 183 231 q 151 154 149 165 q 153 138 152 143 q 196 70 164 94 q 304 48 228 45 q 388 76 348 50 q 453 148 428 101 q 478 258 478 194 l 478 345 m 385 985 q 441 969 416 985 q 479 929 466 954 q 493 882 492 905 q 465 801 493 836 q 388 765 436 765 q 307 796 340 765 q 271 868 273 826 q 274 879 274 873 q 306 953 276 921 q 385 985 336 985 m 379 936 q 339 917 357 936 q 319 873 321 898 q 338 832 319 850 q 382 814 357 814 q 428 832 411 814 q 445 877 445 849 q 426 919 445 901 q 379 936 407 936 z "},"ç":{"ha":692,"x_min":19,"x_max":700,"o":"m 276 -17 q 134 42 192 -2 q 48 150 77 85 q 19 293 19 215 q 70 476 19 394 q 205 603 120 558 q 390 649 290 649 q 496 636 442 649 q 590 596 550 623 q 640 532 630 570 q 645 503 645 514 q 619 444 645 466 q 555 421 593 423 q 535 442 523 423 q 548 494 548 460 q 372 615 543 614 q 260 580 307 615 q 190 488 214 545 q 162 367 165 431 q 195 214 169 287 q 274 93 221 142 q 407 40 327 44 q 551 66 497 40 q 643 133 605 92 q 700 209 682 177 q 657 97 672 135 q 535 14 613 54 q 339 -25 457 -25 l 339 -87 q 379 -79 367 -82 q 447 -106 424 -81 q 469 -162 469 -132 q 430 -220 467 -195 q 333 -244 393 -244 q 225 -211 236 -244 q 242 -201 225 -204 q 282 -212 251 -203 q 324 -222 314 -220 q 365 -205 335 -224 q 401 -161 395 -186 q 373 -126 401 -143 q 313 -108 344 -110 q 276 -117 295 -113 l 276 -17 z "},"é":{"ha":765,"x_min":40,"x_max":751,"o":"m 162 555 q 276 609 207 592 q 420 626 346 626 q 646 515 559 625 q 663 495 683 455 q 682 469 643 535 q 687 318 721 402 l 172 305 q 258 105 189 167 q 469 46 328 43 q 708 166 610 41 q 743 228 733 213 q 743 188 751 228 q 738 165 743 182 q 644 62 701 105 q 517 -3 586 18 q 375 -25 448 -25 q 204 17 277 -25 q 89 128 131 58 q 40 301 44 206 q 73 442 42 375 q 162 555 104 509 m 158 365 l 578 366 q 628 387 628 363 q 571 510 644 425 q 375 575 503 588 q 241 530 294 575 q 170 436 188 484 q 158 365 171 429 m 486 787 l 253 712 q 238 708 243 709 q 222 704 233 706 q 214 712 218 704 q 233 744 219 730 l 393 906 q 512 972 431 948 q 566 945 543 972 q 589 885 589 917 q 486 787 589 831 z "},"è":{"ha":765,"x_min":40,"x_max":751,"o":"m 162 555 q 276 609 207 592 q 420 626 346 626 q 646 515 559 625 q 663 495 683 455 q 682 469 643 535 q 687 318 721 402 l 172 305 q 258 105 189 167 q 469 46 328 43 q 708 166 610 41 q 743 228 733 213 q 743 188 751 228 q 738 165 743 182 q 644 62 701 105 q 517 -3 586 18 q 375 -25 448 -25 q 204 17 277 -25 q 89 128 131 58 q 40 301 44 206 q 73 442 42 375 q 162 555 104 509 m 158 365 l 578 366 q 628 387 628 363 q 571 510 644 425 q 375 575 503 588 q 241 530 294 575 q 170 436 188 484 q 158 365 171 429 m 279 790 q 217 861 221 808 q 241 921 222 895 q 293 948 260 948 q 372 906 334 948 l 532 744 q 577 693 564 712 q 539 700 562 689 q 512 712 517 710 l 279 790 z "},"ê":{"ha":765,"x_min":40,"x_max":751,"o":"m 162 555 q 276 609 207 592 q 420 626 346 626 q 646 515 559 625 q 663 495 683 455 q 682 469 643 535 q 687 318 721 402 l 172 305 q 258 105 189 167 q 469 46 328 43 q 708 166 610 41 q 743 228 733 213 q 743 188 751 228 q 738 165 743 182 q 644 62 701 105 q 517 -3 586 18 q 375 -25 448 -25 q 204 17 277 -25 q 89 128 131 58 q 40 301 44 206 q 73 442 42 375 q 162 555 104 509 m 158 365 l 578 366 q 628 387 628 363 q 571 510 644 425 q 375 575 503 588 q 241 530 294 575 q 170 436 188 484 q 158 365 171 429 m 125 733 l 356 961 q 384 980 375 980 q 413 961 393 980 l 646 727 q 686 679 667 706 q 627 709 649 693 l 385 849 l 148 715 q 79 680 126 702 q 125 733 102 708 z "},"ë":{"ha":765,"x_min":40,"x_max":751,"o":"m 162 555 q 276 609 207 592 q 420 626 346 626 q 646 515 559 625 q 663 495 683 455 q 682 469 643 535 q 687 318 721 402 l 172 305 q 258 105 189 167 q 469 46 328 43 q 708 166 610 41 q 743 228 733 213 q 743 188 751 228 q 738 165 743 182 q 644 62 701 105 q 517 -3 586 18 q 375 -25 448 -25 q 204 17 277 -25 q 89 128 131 58 q 40 301 44 206 q 73 442 42 375 q 162 555 104 509 m 158 365 l 578 366 q 628 387 628 363 q 571 510 644 425 q 375 575 503 588 q 241 530 294 575 q 170 436 188 484 q 158 365 171 429 m 231 974 q 292 952 268 974 q 319 897 315 930 q 296 822 319 852 q 231 789 273 791 q 227 791 229 791 q 225 792 226 792 q 161 822 184 794 q 138 890 138 851 q 165 949 140 925 q 231 974 190 974 m 531 974 q 601 947 575 974 q 629 885 627 920 q 602 821 629 850 q 539 792 574 792 q 472 819 497 792 q 445 882 447 847 q 469 944 445 916 q 531 974 494 971 z "},"í":{"ha":469,"x_min":15,"x_max":476,"o":"m 177 406 q 152 504 177 479 q 85 528 126 528 l 49 528 q 15 545 20 528 q 46 563 20 563 q 269 634 193 577 q 305 651 294 651 q 320 594 320 651 l 320 167 q 347 64 320 91 q 416 34 374 37 q 456 37 435 37 q 476 21 476 37 q 462 2 476 2 l 46 2 q 20 16 25 2 q 55 37 26 37 l 80 37 q 132 48 112 39 q 164 92 152 57 q 177 198 177 126 l 177 406 m 347 792 l 113 717 q 98 712 103 714 q 83 708 93 711 q 74 717 78 708 q 94 749 79 734 l 253 911 q 373 977 291 953 q 426 950 404 977 q 449 890 449 922 q 347 792 449 836 z "},"ì":{"ha":469,"x_min":14,"x_max":475,"o":"m 176 404 q 151 502 176 477 q 85 526 126 526 l 48 526 q 14 543 19 526 q 46 561 19 561 q 268 632 192 575 q 304 649 294 649 q 319 592 319 649 l 319 165 q 347 62 319 89 q 415 32 374 35 q 455 35 435 35 q 475 19 475 35 q 461 0 475 0 l 46 0 q 19 14 24 0 q 54 35 25 35 l 79 35 q 131 46 112 37 q 164 90 151 55 q 176 196 176 124 l 176 404 m 129 794 q 66 865 71 813 q 90 926 71 899 q 142 953 109 953 q 221 911 184 953 l 381 749 q 427 697 414 716 q 389 705 411 694 q 362 716 366 715 l 129 794 z "},"î":{"ha":469,"x_min":-71,"x_max":536,"o":"m 176 404 q 151 502 176 477 q 85 526 126 526 l 48 526 q 14 543 19 526 q 46 561 19 561 q 268 632 192 575 q 304 649 294 649 q 319 592 319 649 l 319 165 q 347 62 319 89 q 415 32 374 35 q 455 35 435 35 q 475 19 475 35 q 461 0 475 0 l 46 0 q 19 14 24 0 q 54 35 25 35 l 79 35 q 131 46 112 37 q 164 90 151 55 q 176 196 176 124 l 176 404 m -24 735 l 206 963 q 234 982 226 982 q 263 963 243 982 l 496 729 q 536 681 517 708 q 477 711 499 695 l 235 851 l -2 717 q -71 682 -23 704 q -24 735 -48 710 z "},"ï":{"ha":469,"x_min":-7,"x_max":484,"o":"m 176 404 q 151 502 176 477 q 85 526 126 526 l 48 526 q 14 543 19 526 q 46 561 19 561 q 268 632 192 575 q 304 649 294 649 q 319 592 319 649 l 319 165 q 347 62 319 89 q 415 32 374 35 q 455 35 435 35 q 475 19 475 35 q 461 0 475 0 l 46 0 q 19 14 24 0 q 54 35 25 35 l 79 35 q 131 46 112 37 q 164 90 151 55 q 176 196 176 124 l 176 404 m 85 974 q 146 952 123 974 q 174 897 170 930 q 151 822 174 852 q 85 789 127 791 q 82 791 84 791 q 80 792 81 792 q 16 822 39 794 q -7 890 -7 851 q 20 949 -5 925 q 85 974 45 974 m 386 974 q 456 947 430 974 q 484 885 482 920 q 457 821 484 850 q 394 792 429 792 q 327 819 352 792 q 299 882 302 847 q 324 944 299 916 q 386 974 349 971 z "},"ñ":{"ha":840,"x_min":-20,"x_max":868,"o":"m 282 518 q 564 651 458 648 q 669 612 629 651 q 708 504 708 573 l 708 214 q 717 100 708 138 q 742 50 726 62 q 796 31 759 38 q 842 22 834 24 q 868 0 865 8 q 450 1 659 1 q 483 28 462 15 q 529 43 515 31 q 554 94 543 55 q 564 214 564 132 l 564 469 q 489 578 564 578 q 282 486 424 578 l 282 174 q 306 59 282 94 q 375 24 329 24 q 415 3 417 1 q -20 1 338 -2 q 15 23 -17 11 q 52 32 38 23 q 118 64 94 34 q 142 182 142 94 l 142 407 q 118 504 142 478 q 48 529 95 529 q 19 530 34 532 q -20 529 5 529 q 8 547 -12 536 q 222 624 140 572 q 278 680 270 658 q 282 624 280 618 l 282 518 m 219 820 q 274 884 236 857 q 350 911 311 911 q 407 898 377 909 q 471 874 438 886 q 529 860 504 862 q 600 908 576 865 q 613 920 606 920 q 624 893 624 920 q 570 799 618 837 q 464 754 522 761 q 425 764 443 757 q 376 785 407 771 q 322 806 345 799 q 276 814 299 814 q 244 798 262 814 q 219 779 225 782 q 211 792 215 779 q 216 807 213 797 q 219 820 219 818 z "},"ó":{"ha":765,"x_min":59,"x_max":712,"o":"m 379 649 q 535 614 457 650 q 649 528 614 579 q 698 419 684 477 q 708 282 712 360 q 662 124 705 187 q 555 18 620 61 q 382 -25 490 -25 q 191 25 258 -30 q 92 158 124 81 q 59 336 60 234 q 104 489 63 417 q 210 604 145 562 q 379 649 275 647 m 377 615 q 239 536 289 613 q 185 325 190 458 q 231 95 185 182 q 382 8 277 8 q 499 46 451 8 q 569 140 548 84 q 586 327 589 197 q 563 471 581 413 q 496 573 545 530 q 377 615 447 615 m 489 790 l 256 715 q 240 710 245 712 q 225 706 235 709 q 217 715 221 706 q 236 747 222 732 l 396 909 q 515 975 434 951 q 569 948 546 975 q 591 888 591 920 q 489 790 591 833 z "},"ò":{"ha":765,"x_min":59,"x_max":712,"o":"m 379 649 q 535 614 457 650 q 649 528 614 579 q 698 419 684 477 q 708 282 712 360 q 662 124 705 187 q 555 18 620 61 q 382 -25 490 -25 q 191 25 258 -30 q 92 158 124 81 q 59 336 60 234 q 104 489 63 417 q 210 604 145 562 q 379 649 275 647 m 377 615 q 239 536 289 613 q 185 325 190 458 q 231 95 185 182 q 382 8 277 8 q 499 46 451 8 q 569 140 548 84 q 586 327 589 197 q 563 471 581 413 q 496 573 545 530 q 377 615 447 615 m 279 792 q 217 863 221 810 q 241 923 222 897 q 293 950 260 950 q 372 908 334 950 l 532 746 q 577 695 564 714 q 539 702 562 691 q 512 714 517 712 l 279 792 z "},"ô":{"ha":765,"x_min":59,"x_max":712,"o":"m 379 649 q 535 614 457 650 q 649 528 614 579 q 698 419 684 477 q 708 282 712 360 q 662 124 705 187 q 555 18 620 61 q 382 -25 490 -25 q 191 25 258 -30 q 92 158 124 81 q 59 336 60 234 q 104 489 63 417 q 210 604 145 562 q 379 649 275 647 m 377 615 q 239 536 289 613 q 185 325 190 458 q 231 95 185 182 q 382 8 277 8 q 499 46 451 8 q 569 140 548 84 q 586 327 589 197 q 563 471 581 413 q 496 573 545 530 q 377 615 447 615 m 125 735 l 356 963 q 384 982 375 982 q 413 963 393 982 l 646 729 q 686 681 667 708 q 627 711 649 695 l 385 851 l 148 717 q 79 682 126 704 q 125 735 102 710 z "},"ö":{"ha":765,"x_min":59,"x_max":712,"o":"m 379 649 q 535 614 457 650 q 649 528 614 579 q 698 419 684 477 q 708 282 712 360 q 662 124 705 187 q 555 18 620 61 q 382 -25 490 -25 q 191 25 258 -30 q 92 158 124 81 q 59 336 60 234 q 104 489 63 417 q 210 604 145 562 q 379 649 275 647 m 377 615 q 239 536 289 613 q 185 325 190 458 q 231 95 185 182 q 382 8 277 8 q 499 46 451 8 q 569 140 548 84 q 586 327 589 197 q 563 471 581 413 q 496 573 545 530 q 377 615 447 615 m 231 974 q 292 952 268 974 q 319 897 315 930 q 296 822 319 852 q 231 789 273 791 q 227 791 229 791 q 225 792 226 792 q 161 822 184 794 q 138 890 138 851 q 165 949 140 925 q 231 974 190 974 m 531 974 q 601 947 575 974 q 629 885 627 920 q 602 821 629 850 q 539 792 574 792 q 472 819 497 792 q 445 882 447 847 q 469 944 445 916 q 531 974 494 971 z "},"õ":{"ha":765,"x_min":59,"x_max":712,"o":"m 379 649 q 535 614 457 650 q 649 528 614 579 q 698 419 684 477 q 708 282 712 360 q 662 124 705 187 q 555 18 620 61 q 382 -25 490 -25 q 191 25 258 -30 q 92 158 124 81 q 59 336 60 234 q 104 489 63 417 q 210 604 145 562 q 379 649 275 647 m 377 615 q 239 536 289 613 q 185 325 190 458 q 231 95 185 182 q 382 8 277 8 q 499 46 451 8 q 569 140 548 84 q 586 327 589 197 q 563 471 581 413 q 496 573 545 530 q 377 615 447 615 m 187 820 q 241 884 204 857 q 318 911 279 911 q 375 898 345 909 q 438 874 406 886 q 497 860 471 862 q 568 908 544 865 q 581 920 573 920 q 591 893 591 920 q 537 799 586 837 q 432 754 489 761 q 393 764 411 757 q 344 785 375 771 q 290 806 312 799 q 244 814 267 814 q 212 798 230 814 q 187 779 193 782 q 179 792 183 779 q 184 807 181 797 q 187 820 186 818 z "},"ú":{"ha":840,"x_min":-55,"x_max":881,"o":"m 567 111 q 477 53 498 67 q 416 20 455 40 q 335 -8 378 0 q 253 -17 292 -17 q 149 25 182 -17 q 117 133 117 66 l 117 379 q 107 472 117 440 q 78 515 97 504 q 28 526 59 526 l -55 523 q 100 581 30 558 q 201 626 171 604 q 261 691 242 629 q 261 171 254 82 q 345 46 261 50 q 375 48 356 48 q 567 142 444 64 l 567 418 q 541 503 567 480 q 469 526 516 526 l 385 522 q 532 574 447 547 q 669 637 616 601 q 708 683 668 633 q 711 581 708 628 l 711 196 q 724 84 711 118 q 762 48 738 50 q 881 0 786 47 q 600 0 589 -10 q 567 29 567 0 l 567 111 m 532 794 l 299 720 q 283 715 289 716 q 268 711 278 714 q 260 720 264 711 q 279 751 265 737 l 439 914 q 558 980 477 956 q 612 952 589 980 q 634 892 634 925 q 532 794 634 838 z "},"ù":{"ha":840,"x_min":-55,"x_max":881,"o":"m 567 111 q 477 53 498 67 q 416 20 455 40 q 335 -8 378 0 q 253 -17 292 -17 q 149 25 182 -17 q 117 133 117 66 l 117 379 q 107 472 117 440 q 78 515 97 504 q 28 526 59 526 l -55 523 q 100 581 30 558 q 201 626 171 604 q 261 691 242 629 q 261 171 254 82 q 345 46 261 50 q 375 48 356 48 q 567 142 444 64 l 567 418 q 541 503 567 480 q 469 526 516 526 l 385 522 q 532 574 447 547 q 669 637 616 601 q 708 683 668 633 q 711 581 708 628 l 711 196 q 724 84 711 118 q 762 48 738 50 q 881 0 786 47 q 600 0 589 -10 q 567 29 567 0 l 567 111 m 314 792 q 252 863 256 810 q 276 923 257 897 q 328 950 295 950 q 407 908 369 950 l 567 746 q 612 695 599 714 q 574 702 597 691 q 547 714 552 712 l 314 792 z "},"û":{"ha":840,"x_min":-55,"x_max":881,"o":"m 567 111 q 477 53 498 67 q 416 20 455 40 q 335 -8 378 0 q 253 -17 292 -17 q 149 25 182 -17 q 117 133 117 66 l 117 379 q 107 472 117 440 q 78 515 97 504 q 28 526 59 526 l -55 523 q 100 581 30 558 q 201 626 171 604 q 261 691 242 629 q 261 171 254 82 q 345 46 261 50 q 375 48 356 48 q 567 142 444 64 l 567 418 q 541 503 567 480 q 469 526 516 526 l 385 522 q 532 574 447 547 q 669 637 616 601 q 708 683 668 633 q 711 581 708 628 l 711 196 q 724 84 711 118 q 762 48 738 50 q 881 0 786 47 q 600 0 589 -10 q 567 29 567 0 l 567 111 m 165 735 l 396 963 q 424 982 415 982 q 453 963 433 982 l 686 729 q 726 681 707 708 q 667 711 689 695 l 425 851 l 188 717 q 119 682 166 704 q 165 735 142 710 z "},"ü":{"ha":840,"x_min":-55,"x_max":881,"o":"m 567 111 q 477 53 498 67 q 416 20 455 40 q 335 -8 378 0 q 253 -17 292 -17 q 149 25 182 -17 q 117 133 117 66 l 117 379 q 107 472 117 440 q 78 515 97 504 q 28 526 59 526 l -55 523 q 100 581 30 558 q 201 626 171 604 q 261 691 242 629 q 261 171 254 82 q 345 46 261 50 q 375 48 356 48 q 567 142 444 64 l 567 418 q 541 503 567 480 q 469 526 516 526 l 385 522 q 532 574 447 547 q 669 637 616 601 q 708 683 668 633 q 711 581 708 628 l 711 196 q 724 84 711 118 q 762 48 738 50 q 881 0 786 47 q 600 0 589 -10 q 567 29 567 0 l 567 111 m 272 974 q 333 952 310 974 q 361 897 356 930 q 337 822 361 852 q 272 789 314 791 q 269 791 270 791 q 267 792 267 792 q 202 822 226 794 q 179 890 179 851 q 206 949 181 925 q 272 974 231 974 m 572 974 q 642 947 616 974 q 671 885 668 920 q 643 821 671 850 q 581 792 616 792 q 514 819 539 792 q 486 882 488 847 q 511 944 486 916 q 572 974 535 971 z "},"†":{"ha":839,"x_min":151,"x_max":683,"o":"m 404 654 q 394 746 404 710 q 362 839 383 782 q 339 925 340 897 q 363 993 339 969 q 421 1017 387 1017 q 476 995 454 1017 q 498 933 498 974 q 492 877 498 898 q 469 818 485 857 q 444 743 452 779 q 436 654 436 707 q 490 668 459 654 q 552 695 521 681 q 606 708 583 708 q 663 689 643 708 q 683 637 683 669 q 663 591 683 610 q 603 572 643 572 q 568 580 584 575 q 526 598 553 586 q 477 617 498 611 q 435 624 457 624 q 512 418 435 523 q 472 267 486 351 q 454 95 458 183 q 446 -128 449 6 q 442 -310 444 -262 l 399 -310 q 395 -135 397 -279 q 387 92 392 9 q 368 259 382 174 q 325 418 353 344 q 383 516 361 461 q 404 626 404 571 q 362 619 381 626 q 303 595 343 612 q 242 572 263 577 q 151 640 157 572 q 176 692 154 673 q 239 711 198 711 q 295 694 268 708 q 345 668 322 680 q 404 654 368 657 z "},"¢":{"ha":839,"x_min":71,"x_max":787,"o":"m 773 1036 q 787 1025 787 1036 q 754 953 787 1013 l 667 797 q 700 717 700 758 q 621 651 700 655 q 589 657 598 657 l 385 296 q 493 271 443 275 q 691 365 610 278 q 755 433 740 438 q 738 370 762 421 q 724 339 738 357 q 605 235 684 283 q 426 185 526 186 q 328 201 375 189 l 231 22 q 219 2 226 17 q 198 -30 212 -12 q 171 -48 184 -48 l 152 -48 q 132 -34 136 -48 q 149 -1 134 -25 q 171 38 163 23 l 276 222 q 126 337 179 253 q 71 524 73 420 q 125 702 78 618 q 249 839 171 787 q 424 890 327 890 q 621 833 521 890 l 697 971 q 718 1001 712 996 q 753 1036 725 1007 l 773 1036 m 543 694 q 558 745 558 702 q 549 792 558 787 q 527 824 549 811 q 476 845 505 838 q 429 851 447 851 q 279 773 328 851 q 214 581 230 694 q 331 318 219 418 l 543 694 z "},"£":{"ha":839,"x_min":5,"x_max":830,"o":"m 447 160 q 458 231 458 194 q 436 319 458 280 q 382 387 413 358 q 300 451 350 415 q 236 498 250 487 l 87 498 q 57 504 60 498 q 59 508 58 507 q 60 510 60 510 l 68 540 q 89 550 71 550 l 185 550 q 117 726 121 632 q 165 878 119 810 q 286 982 212 945 q 445 1019 361 1019 q 581 1007 518 1019 q 621 1017 606 1007 q 648 1041 635 1026 q 667 1056 661 1056 q 692 1022 680 1056 l 803 749 l 803 735 q 792 722 803 724 q 771 749 783 724 q 684 864 736 810 q 568 951 632 918 q 436 985 503 985 q 305 934 354 985 q 247 803 256 884 q 274 713 249 755 q 330 640 299 670 q 426 549 360 609 l 621 549 l 635 549 q 646 540 646 549 l 646 535 l 637 515 q 625 501 632 504 q 594 498 618 498 l 464 498 q 532 325 532 430 q 523 251 532 288 q 499 188 513 215 q 472 151 485 161 q 640 108 572 113 q 743 140 698 111 q 789 222 789 170 q 762 294 789 264 q 686 325 735 325 q 649 310 673 316 q 621 333 626 310 q 634 354 621 345 q 669 364 647 364 q 749 340 712 364 q 808 277 786 316 q 830 196 830 238 q 800 84 830 135 q 718 4 770 33 q 606 -25 667 -25 q 487 -2 547 -25 q 390 52 428 20 q 190 -25 294 -25 q 98 -5 140 -25 q 32 48 56 15 q 5 119 7 82 q 60 213 16 182 q 171 244 104 244 q 447 160 301 244 m 367 68 q 133 201 235 201 q 40 114 55 201 q 85 39 40 70 q 196 5 130 8 q 367 68 295 11 z "},"§":{"ha":839,"x_min":52,"x_max":786,"o":"m 171 635 q 111 773 116 689 q 152 892 113 837 q 265 982 191 948 q 442 1017 339 1017 q 563 1005 497 1017 q 678 964 629 993 q 729 890 727 936 q 708 844 729 861 q 654 825 686 827 q 594 865 598 830 q 557 945 587 920 q 472 979 527 970 q 435 982 447 982 q 335 959 380 982 q 264 899 290 936 q 236 822 238 862 q 296 726 241 759 q 471 653 318 713 q 640 586 624 593 q 747 500 708 559 q 786 370 786 441 q 678 151 786 244 q 749 -19 749 84 q 707 -164 749 -95 q 588 -277 666 -234 q 407 -319 511 -319 q 224 -292 302 -319 q 106 -219 146 -264 q 65 -124 65 -173 q 68 -97 65 -105 q 93 -57 74 -72 q 136 -40 112 -42 q 181 -56 163 -40 q 199 -100 199 -72 q 196 -128 199 -119 q 190 -161 190 -144 q 249 -247 190 -215 q 390 -279 309 -279 q 507 -255 451 -279 q 597 -183 563 -230 q 632 -74 632 -136 q 601 12 632 -25 q 526 72 570 49 q 439 108 482 96 q 251 175 327 143 q 116 265 176 207 q 52 410 55 324 q 171 635 56 524 m 228 586 q 171 464 175 522 q 222 373 172 411 q 358 303 272 335 q 517 245 444 272 q 621 193 591 218 q 667 315 667 256 q 622 408 667 370 q 530 464 578 445 q 376 521 482 483 q 228 586 270 559 z "},"•":{"ha":773,"x_min":136,"x_max":646,"o":"m 388 768 q 525 729 468 768 q 612 633 582 690 q 646 521 642 575 q 612 394 646 456 q 518 293 578 332 q 388 253 458 254 q 387 255 388 255 q 385 256 386 256 q 255 296 312 258 q 167 396 198 333 q 136 535 136 459 q 175 648 141 594 q 265 735 209 702 q 388 768 321 768 z "},"¶":{"ha":839,"x_min":0,"x_max":941,"o":"m 467 502 q 408 497 439 499 q 356 493 377 495 q 87 566 174 495 q 0 751 0 637 q 35 876 0 820 q 136 964 69 932 q 299 996 203 996 l 817 996 q 931 996 896 996 q 878 975 931 990 q 814 960 824 960 l 786 960 q 728 946 749 960 q 696 896 707 933 q 686 786 686 858 l 686 -171 q 693 -236 686 -214 q 716 -264 701 -257 q 754 -272 731 -271 q 814 -274 777 -273 q 941 -312 840 -274 q 826 -312 888 -313 l 608 -310 l 608 914 q 600 948 608 936 q 578 960 591 960 q 555 946 565 960 q 546 908 546 933 l 546 -310 l 336 -310 q 260 -313 328 -313 q 336 -274 330 -276 q 382 -271 370 -274 q 431 -265 413 -271 q 457 -238 448 -259 q 467 -171 467 -216 l 467 502 m 467 532 l 467 817 q 425 932 467 906 q 322 957 384 957 q 220 908 253 956 q 188 757 188 860 q 228 588 188 644 q 367 532 268 532 l 467 532 z "},"ß":{"ha":990,"x_min":-7,"x_max":944,"o":"m 632 581 q 798 544 728 578 q 906 448 868 510 q 944 304 943 387 q 904 148 944 224 q 792 23 863 71 q 635 -25 721 -25 q 520 1 575 -25 q 431 73 465 26 q 396 182 397 121 q 430 283 398 241 q 515 333 461 326 q 618 301 585 333 q 651 219 651 269 q 624 149 651 177 q 549 122 597 122 q 591 216 564 153 q 577 253 591 239 q 542 268 564 268 q 507 252 523 268 q 461 162 492 236 q 502 54 461 99 q 612 8 543 8 q 742 85 703 8 q 782 271 782 161 q 738 468 782 384 q 592 553 694 553 q 532 541 557 553 q 464 502 507 530 l 390 592 q 386 597 389 593 q 382 603 383 602 q 401 610 382 610 l 415 610 q 468 570 451 596 q 657 638 566 573 q 749 808 749 703 q 690 933 738 890 q 546 976 642 976 q 436 944 486 976 q 357 849 386 912 q 328 700 328 786 q 331 572 329 656 q 335 435 333 488 q 338 322 336 382 q 339 190 339 261 q 324 58 339 117 q 276 0 309 0 l 48 0 q -7 -1 28 0 q 54 35 -2 17 q 142 55 109 35 q 189 125 175 76 q 204 258 204 174 q 203 310 204 292 l 193 608 q 225 794 193 716 q 310 918 257 872 q 425 986 362 964 q 550 1010 487 1007 q 705 985 628 1010 q 832 908 782 960 q 882 782 882 856 q 815 650 882 705 q 632 581 749 595 z "},"®":{"ha":1244,"x_min":135,"x_max":1126,"o":"m 615 1019 q 828 978 731 1019 q 987 861 925 936 q 1086 696 1048 787 q 1126 512 1124 606 q 1090 313 1126 410 q 987 139 1055 216 q 833 19 919 61 q 635 -22 747 -22 q 373 46 493 -22 q 194 234 253 114 q 135 493 135 354 q 138 542 135 508 q 208 773 148 663 q 367 950 268 883 q 615 1019 466 1018 m 612 939 q 392 877 487 937 q 258 721 298 818 q 214 508 217 625 q 240 344 214 422 q 308 202 266 266 q 429 100 350 138 q 612 57 509 62 q 804 98 720 57 q 945 206 888 138 q 1022 352 1001 274 q 1043 512 1043 430 q 982 724 1043 627 q 827 880 922 820 q 612 939 731 939 m 445 722 q 441 756 445 747 q 424 770 438 766 q 393 780 410 773 l 375 803 l 637 803 q 778 764 730 803 q 825 663 825 726 q 788 562 825 605 q 669 507 751 519 l 669 504 q 730 471 708 503 q 778 377 752 439 q 827 284 804 315 q 861 241 850 253 l 890 225 l 814 225 q 741 258 765 225 q 697 354 718 291 q 657 449 677 417 q 597 480 638 480 l 535 480 l 535 301 q 547 265 535 271 q 606 225 560 258 l 375 225 q 439 275 433 264 q 445 307 445 285 l 445 722 m 535 711 l 535 524 l 608 524 q 707 563 685 524 q 729 660 729 602 q 710 746 729 718 q 643 777 692 774 l 572 777 q 543 763 550 777 q 535 711 535 750 z "},"©":{"ha":1244,"x_min":137,"x_max":1111,"o":"m 801 751 l 858 570 l 808 605 q 651 738 777 737 q 544 706 589 738 q 476 621 498 674 q 453 504 453 568 q 493 341 453 404 q 606 258 534 279 q 657 250 640 252 q 751 276 709 252 q 814 347 794 300 l 870 375 q 808 268 839 300 q 727 218 777 235 q 608 201 677 201 q 504 223 551 202 q 423 286 457 245 q 381 383 389 326 q 372 512 372 440 q 411 654 372 589 q 505 755 449 718 q 637 792 560 792 q 801 751 732 792 m 624 942 q 445 903 525 940 q 321 806 366 867 q 246 669 276 745 q 213 512 216 593 q 239 346 213 427 q 318 201 265 266 q 439 98 370 136 q 608 57 508 60 q 848 120 747 57 q 992 287 950 182 q 1035 514 1035 391 q 1001 676 1035 600 q 908 813 968 753 q 780 907 848 873 q 624 942 712 942 m 624 1017 q 829 976 736 1017 q 978 865 922 935 q 1069 708 1033 795 q 1109 531 1106 621 q 1110 516 1109 526 q 1111 502 1111 506 q 1077 308 1111 402 q 977 138 1043 214 q 825 19 910 62 q 621 -25 740 -25 q 422 19 507 -25 q 271 142 338 63 q 176 317 204 221 q 137 523 147 413 q 175 705 141 618 q 273 862 209 792 q 421 974 338 933 q 624 1017 505 1016 z "},"™":{"ha":1335,"x_min":52,"x_max":1286,"o":"m 233 963 l 188 963 q 104 941 122 963 q 85 865 85 920 l 52 865 l 52 996 l 507 996 l 507 863 l 475 863 q 463 930 475 909 q 425 957 450 951 q 349 963 400 963 l 319 963 l 319 535 q 324 496 319 509 q 338 479 329 484 q 363 474 348 474 q 404 472 378 473 l 404 445 l 146 445 l 146 472 q 205 476 187 472 q 228 492 222 480 q 233 535 233 505 l 233 963 m 606 968 l 606 996 l 773 996 l 950 600 l 1118 996 l 1286 996 l 1286 965 q 1238 963 1250 965 q 1224 951 1226 960 q 1221 911 1221 941 l 1221 535 q 1233 488 1221 501 q 1286 472 1245 474 l 1286 445 l 1061 445 l 1061 472 q 1117 484 1104 474 q 1129 532 1129 493 l 1129 947 l 922 445 l 911 445 l 706 944 l 706 526 q 713 486 706 496 q 735 475 720 475 q 773 472 751 474 l 773 445 l 592 445 l 592 472 q 610 469 606 472 q 646 482 635 472 q 657 521 657 491 l 657 922 q 649 959 657 950 q 606 968 641 968 z "},"´":{"ha":529,"x_min":103,"x_max":477,"o":"m 375 792 l 142 717 q 126 712 132 714 q 111 708 121 711 q 103 717 107 708 q 122 749 108 734 l 282 911 q 401 977 320 953 q 455 950 432 977 q 477 890 477 922 q 375 792 477 836 z "},"¨":{"ha":689,"x_min":100,"x_max":592,"o":"m 193 974 q 254 952 231 974 q 282 897 277 930 q 258 822 282 852 q 193 789 235 791 q 190 791 191 791 q 188 792 188 792 q 123 822 147 794 q 100 890 100 851 q 127 949 102 925 q 193 974 152 974 m 493 974 q 563 947 537 974 q 592 885 589 920 q 564 821 592 850 q 502 792 537 792 q 435 819 460 792 q 407 882 409 847 q 432 944 407 916 q 493 974 456 971 z "},"Æ":{"ha":1522,"x_min":-121,"x_max":1572,"o":"m 724 957 q 751 988 740 981 q 777 996 761 996 l 794 996 l 1099 996 q 1147 993 1129 996 q 1288 968 1220 996 q 1366 966 1355 940 q 1340 1071 1366 996 q 1380 1019 1358 1071 l 1510 684 q 1451 760 1492 689 q 1296 901 1409 844 q 1047 957 1184 957 q 897 817 897 957 l 897 550 l 1076 550 q 1180 574 1140 550 q 1241 600 1220 597 q 1281 797 1261 603 q 1292 729 1293 735 l 1296 277 q 1265 401 1276 283 q 1079 515 1253 519 l 897 515 l 897 185 q 927 85 897 117 q 1005 45 957 53 q 1133 38 1052 38 q 1274 62 1207 38 q 1403 144 1341 87 q 1517 293 1465 201 q 1561 358 1525 313 q 1392 -65 1572 358 q 1352 -144 1376 -103 q 1340 -65 1340 -144 q 1129 0 1325 0 l 517 -1 q 563 27 522 17 q 597 35 582 27 q 669 48 638 37 q 720 95 699 59 q 740 199 740 130 l 740 515 l 450 515 l 307 318 q 217 128 221 202 q 372 35 219 35 q 412 3 399 35 q -121 3 352 3 q -79 35 -121 18 q 11 69 -45 35 q 135 172 67 104 q 271 333 204 240 l 724 957 m 740 928 l 469 550 l 740 550 l 740 928 z "},"Ø":{"ha":1085,"x_min":77,"x_max":1009,"o":"m 833 1042 q 866 1099 842 1059 q 905 1138 890 1138 l 934 1141 q 959 1132 959 1141 q 908 1028 959 1124 l 851 930 q 939 805 915 882 q 986 647 964 729 q 1009 480 1009 565 q 976 286 1009 379 q 910 158 952 217 q 830 62 868 99 q 718 0 792 24 q 558 -25 643 -25 q 319 22 450 -25 l 243 -99 q 209 -127 233 -127 l 175 -127 q 152 -116 155 -127 q 203 -35 152 -115 l 261 57 q 160 179 188 107 q 105 334 131 251 q 77 505 79 417 q 133 741 82 640 q 217 885 172 822 q 350 983 261 947 q 537 1019 439 1019 q 792 963 666 1019 l 833 1042 m 760 908 q 553 987 671 987 q 400 945 472 987 q 280 814 328 903 q 222 592 231 725 q 217 492 222 561 q 304 128 221 257 l 760 908 m 797 849 l 353 71 q 546 8 425 13 q 673 35 613 10 q 778 113 733 61 q 843 244 823 165 q 868 480 868 352 q 849 703 868 601 q 797 849 830 806 z "},"±":{"ha":877,"x_min":54,"x_max":822,"o":"m 54 567 l 388 567 l 388 851 l 489 851 l 489 567 l 820 567 l 820 467 l 489 467 l 489 188 l 388 188 l 388 467 l 54 467 l 54 567 m 54 103 l 822 103 l 822 0 l 54 0 l 54 103 z "},"¥":{"ha":839,"x_min":0,"x_max":839,"o":"m 475 493 l 586 849 q 594 900 594 878 q 575 946 594 933 q 512 960 555 960 q 489 974 494 960 q 518 996 493 996 l 808 996 q 839 976 839 996 q 803 957 839 957 q 698 923 744 957 q 615 786 652 889 l 555 618 l 720 618 q 755 616 748 618 q 763 606 763 613 l 754 583 q 729 567 751 572 q 724 569 726 568 q 722 569 723 569 l 540 569 l 510 480 l 726 480 q 760 469 760 480 l 760 464 l 754 442 q 714 432 749 432 l 498 432 l 498 160 q 512 82 498 108 q 554 46 526 55 q 637 38 583 38 q 669 17 669 38 q 637 0 669 0 l 214 0 q 182 19 187 0 q 219 38 187 38 q 322 59 289 38 q 356 157 356 81 l 356 432 l 108 432 q 79 442 82 432 q 82 450 82 445 l 89 469 q 100 480 93 480 l 122 480 l 331 480 l 313 569 l 108 569 q 76 578 81 569 q 80 585 78 582 q 82 589 81 588 l 92 610 q 105 618 92 618 l 125 618 l 293 618 l 242 754 q 176 884 210 839 q 113 942 142 929 q 54 956 85 956 l 29 956 q 0 974 4 956 q 40 996 4 996 l 407 996 q 436 976 436 996 q 413 957 436 957 q 353 944 372 957 q 333 906 335 932 q 353 839 336 887 l 475 493 z "},"µ":{"ha":840,"x_min":-88,"x_max":846,"o":"m 567 111 q 496 52 529 80 q 436 8 463 25 q 383 -17 410 -8 q 322 -25 356 -25 q 256 -19 300 -25 q 255 -193 279 -145 q 238 -273 252 -242 q 201 -304 224 -304 q 151 -270 156 -304 q 145 -186 145 -235 l 117 379 q 108 473 117 441 q 81 515 99 504 q 29 526 62 526 l 0 526 q -88 525 -23 528 q 0 564 -88 543 q 99 584 28 564 q 201 626 171 604 q 258 736 233 631 q 261 615 258 669 l 261 171 q 345 46 261 50 q 375 48 356 48 q 567 142 444 64 l 567 418 q 541 503 567 480 q 469 526 516 526 l 436 526 q 325 525 409 526 q 429 564 330 543 q 549 582 483 564 q 669 637 616 601 q 711 736 680 652 q 711 581 711 656 l 711 196 q 724 84 709 154 q 790 23 740 13 q 846 0 815 23 l 600 0 q 567 29 567 0 l 567 111 z "},"ª":{"ha":839,"x_min":114,"x_max":729,"o":"m 486 836 l 486 922 q 475 955 486 939 q 443 981 463 971 q 401 993 423 992 q 340 978 365 993 q 313 933 315 963 q 319 893 319 923 q 306 856 319 871 q 262 839 292 840 q 247 840 258 840 q 196 896 201 844 q 233 967 199 940 q 315 1005 267 994 q 407 1017 362 1017 q 500 1003 458 1017 q 567 964 542 990 q 592 903 592 938 l 592 665 q 629 608 592 608 q 667 643 658 608 q 681 660 671 660 q 697 635 697 660 q 581 549 697 566 q 512 575 541 550 q 483 646 483 600 q 415 577 461 602 q 315 550 368 552 q 174 669 190 558 q 217 757 175 719 q 330 815 259 795 q 486 836 400 836 m 486 806 q 343 771 393 806 q 290 689 293 737 q 296 665 296 667 q 367 608 315 611 q 422 626 394 609 q 468 674 451 644 q 486 738 486 703 l 486 806 m 188 472 l 700 472 q 729 464 729 472 q 728 458 729 463 q 726 453 726 454 l 722 436 q 714 425 717 427 q 700 421 712 423 q 683 424 697 424 l 176 424 q 114 432 117 424 q 117 442 117 436 l 128 464 q 139 471 132 470 q 188 472 147 472 z "},"º":{"ha":839,"x_min":111,"x_max":726,"o":"m 426 1019 q 553 986 499 1019 q 635 898 607 952 q 665 782 664 844 q 635 671 665 725 q 550 584 605 617 q 426 550 495 550 q 292 584 348 550 q 207 672 235 617 q 176 789 178 727 q 179 794 178 792 q 179 797 179 797 q 248 957 182 896 q 426 1019 314 1019 m 426 993 q 327 938 360 993 q 293 789 293 884 q 424 581 293 584 q 518 641 490 581 q 546 792 546 701 q 426 993 542 989 m 151 472 l 703 472 q 726 461 726 472 l 726 453 l 720 432 q 694 424 714 424 l 142 424 q 111 429 116 424 q 117 439 117 440 l 128 464 q 142 472 132 472 l 151 472 z "},"æ":{"ha":1229,"x_min":60,"x_max":1184,"o":"m 615 518 q 721 615 645 579 q 883 650 797 650 q 898 649 889 650 q 911 649 907 649 q 1066 598 999 642 q 1153 478 1134 553 q 1163 443 1157 467 q 1175 404 1169 418 q 1181 353 1181 390 l 654 353 q 653 311 653 339 q 726 102 653 177 q 908 25 800 27 q 1126 114 1034 30 q 1176 171 1143 128 q 1144 87 1184 171 q 1019 9 1100 41 q 849 -22 937 -22 q 665 23 749 -22 q 532 165 581 68 q 465 63 512 106 q 357 -3 418 20 q 233 -25 296 -25 q 110 3 151 -34 q 67 104 69 41 q 62 150 62 131 q 178 331 62 277 q 489 385 293 385 l 507 385 l 507 483 q 361 615 507 608 q 285 606 320 615 q 229 579 250 596 q 140 516 207 563 q 146 497 142 509 q 154 474 151 485 q 155 432 157 464 q 133 404 154 400 q 81 428 102 406 q 60 489 60 449 q 101 568 60 531 q 208 627 142 605 q 345 651 274 649 q 458 637 403 651 q 554 593 513 623 q 615 518 596 564 m 1028 436 q 982 571 1026 530 q 871 612 939 612 q 722 546 779 612 q 657 385 665 480 l 993 385 q 1021 391 1014 385 q 1028 418 1028 396 l 1028 436 m 507 353 q 330 334 401 353 q 221 269 259 315 q 182 149 182 224 q 228 71 184 102 q 328 38 272 40 q 416 62 376 39 q 482 132 457 84 q 507 253 507 180 l 507 353 z "},"ø":{"ha":765,"x_min":37,"x_max":729,"o":"m 535 621 l 603 743 q 683 826 617 777 q 654 735 691 826 l 578 597 q 690 470 652 545 q 729 310 729 396 q 684 140 729 217 q 561 19 639 63 q 390 -25 483 -25 q 244 0 322 -25 l 203 -74 q 191 -96 196 -86 q 125 -143 185 -105 q 160 -52 111 -143 l 199 22 q 87 136 119 70 q 39 255 54 203 q 38 350 37 291 q 94 499 47 430 q 215 610 140 569 q 379 651 289 651 q 535 621 453 651 m 507 564 q 385 615 466 615 q 267 568 308 615 q 214 458 227 521 q 196 307 201 394 q 239 89 200 166 l 507 564 m 537 524 l 268 43 q 385 8 329 13 q 516 73 466 11 q 569 253 565 135 q 563 421 569 354 q 537 524 557 489 z "},"¿":{"ha":839,"x_min":87,"x_max":777,"o":"m 486 396 l 486 256 q 461 179 486 213 q 383 102 436 146 q 302 28 330 58 q 261 -46 274 -2 q 244 -144 249 -100 q 275 -260 246 -212 q 354 -333 304 -308 q 467 -358 404 -358 q 632 -293 565 -354 q 700 -133 700 -232 q 680 -68 698 -112 q 645 -23 663 -25 q 618 -122 616 -23 q 624 -146 624 -139 q 549 -57 551 -129 q 577 16 550 -17 q 640 48 605 48 q 740 5 704 48 q 777 -108 777 -39 q 736 -245 777 -178 q 613 -356 696 -312 q 410 -399 530 -399 q 251 -373 322 -399 q 148 -304 180 -347 q 99 -204 116 -260 q 87 -136 92 -180 q 122 -11 90 -71 q 185 85 153 50 q 300 136 231 110 q 392 172 369 161 q 433 207 416 182 q 450 279 450 231 l 450 393 q 467 424 450 424 q 486 396 486 424 m 464 455 q 407 478 425 455 q 388 536 389 501 q 410 604 388 574 q 455 637 433 634 q 520 606 500 637 q 540 537 540 574 q 516 474 540 499 q 464 455 491 449 z "},"¡":{"ha":393,"x_min":94,"x_max":304,"o":"m 214 375 q 227 191 214 269 q 269 -35 239 113 q 304 -261 299 -184 q 200 -422 304 -410 q 95 -268 94 -418 q 110 -144 95 -222 q 142 11 125 -67 q 170 181 158 89 q 182 372 182 272 q 198 410 184 410 q 214 375 216 410 m 199 455 q 139 485 158 455 q 120 551 120 515 q 150 613 125 586 q 199 637 174 639 q 263 608 241 637 q 284 539 284 578 q 259 480 284 506 q 199 455 234 455 z "},"¬":{"ha":877,"x_min":115,"x_max":820,"o":"m 722 518 l 115 518 l 115 618 l 820 618 l 820 190 l 722 190 l 722 518 z "},"ƒ":{"ha":839,"x_min":-131,"x_max":830,"o":"m 336 651 l 242 651 q 214 667 220 651 q 239 686 218 686 l 313 686 q 338 692 333 686 q 356 724 344 698 q 385 793 357 727 q 444 907 413 860 q 529 986 475 953 q 663 1019 583 1018 q 830 939 814 1019 q 812 882 830 902 q 765 860 794 862 q 727 877 740 863 q 698 920 714 891 q 669 962 683 948 q 629 976 655 976 q 535 906 574 976 q 505 841 516 879 q 486 765 493 803 q 472 686 479 727 l 610 686 q 635 667 635 686 q 608 651 635 651 l 472 651 l 367 151 q 273 -75 336 4 q 146 -179 210 -154 q 25 -203 82 -203 q -89 -174 -47 -203 q -131 -105 -131 -146 q -113 -61 -131 -80 q -68 -38 -95 -42 q -27 -55 -40 -41 q -1 -99 -14 -70 q 22 -142 12 -127 q 65 -162 38 -162 q 130 -129 97 -162 q 192 -31 164 -96 q 236 122 220 34 l 336 651 z "},"«":{"ha":469,"x_min":19,"x_max":441,"o":"m 205 526 q 247 565 219 540 q 249 557 249 565 q 219 507 249 548 l 136 345 l 228 154 q 257 112 231 149 q 256 109 257 111 q 251 106 255 108 q 232 123 248 109 q 211 142 216 137 l 40 319 q 19 342 21 339 q 35 364 22 349 l 205 526 m 390 529 q 428 563 401 540 q 431 555 431 563 q 407 510 431 556 l 319 347 l 413 157 q 441 112 418 145 q 440 109 441 111 q 436 106 439 107 q 416 126 432 109 q 399 144 399 144 l 225 319 q 215 329 221 323 q 207 337 209 334 q 203 342 204 339 q 219 367 207 354 l 390 529 z "},"»":{"ha":469,"x_min":52,"x_max":450,"o":"m 265 162 q 244 149 260 156 q 242 154 242 149 q 253 182 248 172 l 336 345 l 244 535 q 242 543 243 537 q 239 550 240 548 q 244 555 239 555 q 261 549 252 555 l 432 372 q 450 347 450 352 q 436 325 450 339 l 265 162 m 82 160 q 60 146 76 153 q 54 151 60 146 q 60 165 55 155 q 65 179 64 176 l 151 342 l 60 535 q 52 550 54 547 q 57 555 52 555 q 74 549 64 555 l 247 370 q 262 345 262 354 q 253 325 262 335 l 82 160 z "},"…":{"ha":1389,"x_min":142,"x_max":1250,"o":"m 228 157 q 298 131 271 157 q 325 71 325 105 q 300 4 325 32 q 233 -25 275 -25 q 164 5 186 -25 q 142 71 142 36 q 166 129 142 100 q 228 157 191 157 m 692 157 q 761 131 734 157 q 789 71 787 105 q 763 4 789 33 q 697 -25 737 -25 q 628 5 650 -25 q 606 71 606 36 q 629 129 606 101 q 692 157 653 157 m 1153 157 q 1223 131 1196 157 q 1250 71 1250 105 q 1224 4 1250 33 q 1158 -25 1198 -25 q 1089 5 1111 -25 q 1067 71 1067 36 q 1090 128 1067 100 q 1153 157 1114 155 z "},"À":{"ha":990,"x_min":-84,"x_max":1064,"o":"m 448 943 q 520 1068 493 1023 q 553 987 560 968 l 828 222 q 889 95 860 135 q 943 42 918 55 q 1015 29 968 29 q 1064 -1 1060 11 q 506 -1 825 4 q 551 29 509 14 q 627 48 568 29 q 686 114 686 68 q 669 196 686 146 l 608 372 l 265 372 l 225 261 q 196 136 201 196 q 223 57 198 80 q 309 25 248 34 q 342 1 336 10 q -77 0 276 0 q -60 20 -84 10 q 1 43 -36 30 q 72 77 37 56 q 127 143 107 98 q 182 262 146 189 l 407 863 q 448 943 406 858 m 594 407 l 435 839 l 276 407 l 594 407 m 390 1161 q 328 1232 333 1180 q 352 1293 333 1266 q 404 1320 371 1320 q 483 1278 446 1320 l 643 1116 q 689 1064 675 1083 q 651 1072 673 1061 q 624 1083 628 1082 l 390 1161 z "},"Ã":{"ha":990,"x_min":-84,"x_max":1064,"o":"m 448 943 q 520 1068 493 1023 q 553 987 560 968 l 828 222 q 889 95 860 135 q 943 42 918 55 q 1015 29 968 29 q 1064 -1 1060 11 q 506 -1 825 4 q 551 29 509 14 q 627 48 568 29 q 686 114 686 68 q 669 196 686 146 l 608 372 l 265 372 l 225 261 q 196 136 201 196 q 223 57 198 80 q 309 25 248 34 q 342 1 336 10 q -77 0 276 0 q -60 20 -84 10 q 1 43 -36 30 q 72 77 37 56 q 127 143 107 98 q 182 262 146 189 l 407 863 q 448 943 406 858 m 594 407 l 435 839 l 276 407 l 594 407 m 296 1189 q 350 1254 313 1226 q 427 1281 387 1281 q 484 1267 453 1279 q 547 1244 514 1256 q 606 1229 580 1232 q 676 1278 652 1235 q 689 1289 682 1289 q 700 1263 700 1289 q 646 1169 694 1206 q 540 1124 598 1131 q 502 1134 519 1127 q 452 1154 484 1140 q 398 1176 421 1168 q 353 1183 375 1183 q 320 1168 339 1183 q 296 1149 301 1152 q 288 1161 292 1149 q 292 1177 289 1167 q 296 1189 295 1187 z "},"Õ":{"ha":1085,"x_min":38,"x_max":1047,"o":"m 529 985 q 343 908 420 984 q 247 762 266 832 q 208 559 228 692 q 206 504 206 542 q 237 279 206 381 q 320 117 267 176 q 535 11 373 59 q 688 40 625 12 q 805 129 750 68 q 868 279 860 190 q 877 500 877 368 l 877 544 q 784 868 873 751 q 529 985 694 985 m 524 1017 q 541 1017 529 1017 q 557 1018 552 1018 q 759 979 670 1018 q 909 874 848 941 q 1006 719 970 808 q 1045 525 1041 630 q 1047 475 1047 492 q 1018 291 1047 378 q 924 133 988 205 q 764 19 860 61 q 546 -22 668 -22 l 512 -22 q 307 30 396 -15 q 162 147 217 75 q 72 312 107 219 q 38 504 38 405 q 96 748 40 632 q 261 937 152 863 q 524 1017 371 1011 m 347 1189 q 401 1254 364 1226 q 478 1281 439 1281 q 535 1267 505 1279 q 598 1244 566 1256 q 657 1229 631 1232 q 728 1278 704 1235 q 741 1289 733 1289 q 751 1263 751 1289 q 697 1169 746 1206 q 592 1124 649 1131 q 553 1134 571 1127 q 504 1154 535 1140 q 450 1176 472 1168 q 404 1183 427 1183 q 372 1168 390 1183 q 347 1149 353 1152 q 339 1161 343 1149 q 344 1177 341 1167 q 347 1189 347 1187 z "},"Œ":{"ha":1671,"x_min":35,"x_max":1698,"o":"m 887 863 l 887 944 q 895 980 887 969 q 918 993 903 991 q 968 996 934 996 l 1300 996 q 1474 1039 1450 996 q 1494 1069 1485 1069 q 1528 1017 1512 1069 l 1631 779 q 1633 754 1633 771 q 1622 743 1633 747 q 1588 782 1604 750 q 1509 863 1566 823 q 1371 930 1453 904 q 1196 957 1290 957 q 1088 923 1129 957 q 1047 833 1047 890 l 1047 550 l 1213 550 q 1353 591 1301 550 q 1406 724 1406 632 q 1418 754 1406 754 q 1437 722 1437 754 l 1437 325 q 1421 301 1437 301 q 1406 325 1406 301 q 1400 395 1403 372 q 1382 448 1397 419 q 1329 496 1367 477 q 1224 515 1291 515 l 1047 515 l 1047 179 q 1095 74 1047 107 q 1244 40 1143 40 q 1401 57 1331 40 q 1540 132 1471 75 q 1668 299 1610 189 q 1690 313 1678 313 q 1698 299 1698 313 q 1696 279 1698 288 l 1551 -43 q 1514 -100 1527 -100 q 1494 -71 1504 -100 q 1431 -14 1479 -29 q 1313 0 1384 0 l 987 0 q 955 -1 976 0 q 925 -3 934 -3 q 896 6 905 -3 q 887 40 887 15 l 887 128 q 791 32 851 67 q 668 -15 731 -3 q 546 -28 605 -28 l 502 -28 q 256 60 362 -17 q 92 261 150 137 q 35 529 35 385 q 72 699 39 614 q 166 856 104 784 q 321 972 228 928 q 535 1017 415 1016 q 654 1004 589 1017 q 783 957 720 991 q 887 863 847 923 m 535 985 q 395 945 454 984 q 300 842 337 907 q 246 695 264 778 q 225 524 228 613 q 223 469 223 506 q 259 224 223 327 q 366 67 295 122 q 543 11 437 13 q 757 70 681 11 q 860 235 832 129 q 887 504 887 342 l 887 529 q 849 782 886 681 q 734 934 812 883 q 535 985 656 985 z "},"œ":{"ha":1283,"x_min":38,"x_max":1258,"o":"m 660 489 q 786 606 706 563 q 956 649 865 649 q 1067 626 1018 649 q 1130 588 1110 606 q 1173 543 1151 569 q 1210 515 1196 517 q 1240 498 1240 511 q 1196 472 1240 490 l 726 285 q 813 120 751 180 q 956 52 875 60 q 1210 162 1117 52 q 1253 201 1241 201 q 1258 188 1258 201 q 1250 157 1258 169 q 1175 75 1229 118 q 1048 3 1121 32 q 903 -25 975 -25 q 654 117 744 -25 q 562 31 612 62 q 465 -11 513 0 q 367 -22 417 -22 q 188 26 262 -21 q 76 153 114 73 q 38 333 38 234 q 79 484 39 411 q 196 602 119 556 q 382 649 274 649 q 480 637 431 649 q 577 590 528 626 q 660 489 626 554 m 376 615 q 231 533 273 614 q 185 322 190 453 q 184 306 185 317 q 183 289 183 295 q 202 154 183 215 q 260 54 220 93 q 361 11 299 15 q 490 44 446 11 q 554 141 535 77 q 581 319 573 205 q 564 466 581 400 q 503 574 547 532 q 385 615 459 615 l 376 615 m 1025 436 q 1064 469 1064 450 q 1061 484 1064 477 q 1058 492 1058 492 q 896 610 1001 610 q 797 576 840 610 q 733 488 755 542 q 708 379 710 435 q 720 313 713 334 l 1025 436 z "},"–":{"ha":694,"x_min":0,"x_max":763,"o":"m 68 407 l 763 407 l 694 279 l 0 279 l 68 407 z "},"—":{"ha":1389,"x_min":0,"x_max":1454,"o":"m 62 407 l 1449 407 l 1454 407 l 1389 279 l 3 279 l 0 279 l 62 407 z "},"“":{"ha":765,"x_min":82,"x_max":651,"o":"m 205 792 q 214 793 208 792 q 225 794 220 794 q 280 770 255 794 q 304 711 304 745 q 278 640 304 665 q 211 612 253 615 q 130 649 167 615 q 85 738 92 683 q 82 769 82 760 q 108 880 82 827 q 172 969 135 933 q 236 1017 209 1006 l 244 1017 q 262 999 262 1017 q 247 979 262 987 q 146 803 180 937 q 165 782 146 784 q 205 792 185 784 m 550 792 q 559 793 552 792 q 569 794 565 794 q 627 771 603 794 q 651 711 651 747 q 624 638 651 664 q 555 610 597 612 q 476 646 512 612 q 432 735 439 680 q 429 771 429 760 q 456 880 429 828 q 518 968 482 932 q 583 1014 555 1003 l 592 1014 q 610 996 610 1014 q 594 976 610 984 q 492 803 525 941 q 510 779 492 784 q 550 792 525 782 z "},"”":{"ha":765,"x_min":119,"x_max":686,"o":"m 564 840 q 543 836 553 840 q 488 863 512 838 q 464 922 464 889 q 489 992 464 968 q 553 1017 515 1017 q 637 984 598 1017 q 683 896 675 951 q 686 861 686 871 q 660 751 686 803 q 596 663 633 699 q 532 615 559 627 q 521 612 526 615 q 502 632 506 612 q 521 654 507 647 q 589 731 560 678 q 618 828 618 783 q 600 849 618 849 q 564 840 590 849 m 217 840 q 196 836 210 840 q 142 863 164 838 q 119 922 119 887 q 144 994 119 969 q 208 1019 170 1019 q 291 987 254 1019 q 336 897 328 954 q 339 863 339 872 q 312 752 339 805 q 250 664 286 700 q 185 615 213 628 q 174 612 179 615 q 154 632 159 612 q 174 657 159 650 q 243 730 213 676 q 274 828 274 784 q 256 849 274 849 q 217 840 243 849 z "},"‘":{"ha":421,"x_min":82,"x_max":310,"o":"m 189 760 q 214 763 195 763 q 272 749 247 763 q 310 711 298 735 q 283 640 310 665 q 214 612 256 615 q 131 649 170 615 q 85 738 92 683 q 82 769 82 760 q 108 880 82 827 q 172 969 135 933 q 236 1017 209 1006 l 244 1017 q 262 999 262 1017 q 247 979 262 987 q 146 803 180 937 q 159 772 140 785 q 189 760 175 757 z "},"’":{"ha":421,"x_min":117,"x_max":336,"o":"m 271 811 l 271 825 q 247 846 271 846 q 237 844 243 846 q 228 843 230 843 q 192 838 211 838 q 138 862 157 838 q 117 920 119 886 q 146 990 119 961 q 228 1019 174 1019 q 304 969 273 1014 q 336 868 336 924 q 314 763 336 820 q 253 663 292 706 q 165 610 213 620 q 151 626 158 613 q 190 667 154 638 q 271 811 252 727 z "},"ÿ":{"ha":692,"x_min":-55,"x_max":758,"o":"m 418 151 l 507 379 q 543 521 543 469 q 525 575 543 558 q 461 592 506 592 q 427 625 432 608 q 758 626 509 622 q 729 594 758 612 q 624 528 680 594 q 526 350 568 463 l 436 114 q 400 14 414 48 q 375 -43 387 -20 l 299 -196 q 233 -280 279 -241 q 131 -318 186 -318 q 57 -298 91 -318 q 19 -239 24 -277 q 25 -128 -3 -88 q 75 -209 53 -167 q 198 -244 129 -278 q 282 -157 260 -205 l 342 -28 l 157 388 q 87 525 116 481 q 45 577 59 569 q -7 598 31 585 q -55 625 -39 614 q 390 625 33 622 q 335 605 356 605 q 272 582 287 592 q 256 540 258 571 q 276 469 261 501 l 418 151 m 196 974 q 257 952 233 974 q 284 897 280 930 q 261 822 284 852 q 196 789 238 791 q 192 791 194 791 q 190 792 191 792 q 126 822 150 794 q 103 890 103 851 q 130 949 105 925 q 196 974 155 974 m 496 974 q 566 947 540 974 q 594 885 592 920 q 567 821 594 850 q 504 792 539 792 q 437 819 463 792 q 410 882 412 847 q 434 944 410 916 q 496 974 459 971 z "},"¤":{"ha":839,"x_min":0,"x_max":839,"o":"m 151 822 q 424 922 279 922 q 689 830 569 922 l 783 917 l 828 873 l 738 783 q 794 700 771 746 q 828 605 817 654 q 839 507 839 557 q 735 233 839 350 l 825 144 l 782 100 l 694 188 q 415 87 553 90 q 149 188 277 89 l 60 100 l 17 144 l 105 233 q 0 507 5 365 q 31 655 2 591 q 105 782 61 719 l 17 873 l 62 917 l 151 822 m 421 854 q 279 827 343 854 q 170 753 216 801 q 98 647 123 706 q 68 524 72 588 q 93 385 68 452 q 163 268 118 319 q 272 186 209 216 q 410 154 335 156 q 558 183 491 154 q 673 262 625 212 q 746 373 721 311 q 771 502 771 435 q 744 638 771 574 q 670 751 718 703 q 558 827 622 800 q 421 854 493 854 z "},"‹":{"ha":282,"x_min":19,"x_max":236,"o":"m 205 526 q 234 546 220 534 q 219 507 229 526 l 136 345 q 222 135 236 116 q 40 319 208 154 q 19 342 21 339 q 35 364 22 349 l 205 526 z "},"›":{"ha":282,"x_min":57,"x_max":268,"o":"m 85 160 q 62 146 78 153 q 57 151 62 146 q 62 163 58 155 q 68 179 66 172 l 154 342 l 62 532 q 57 549 57 543 q 62 553 57 553 q 79 546 70 553 l 250 370 q 268 345 268 351 q 256 322 268 338 l 85 160 z "},"":{"ha":939,"x_min":28,"x_max":917,"o":"m 185 592 l 62 592 q 35 608 41 592 q 62 626 40 626 l 151 626 q 185 657 185 626 q 238 912 185 801 q 467 1033 290 1023 q 514 1035 483 1035 q 685 1006 624 1035 q 768 939 746 978 q 773 908 773 922 q 748 863 773 881 q 689 843 723 845 q 615 900 627 848 q 571 983 603 964 q 483 1004 539 1001 q 401 984 436 1004 q 347 926 366 963 q 328 839 328 889 l 328 626 l 610 626 q 722 640 689 626 q 735 645 727 642 q 746 649 742 649 q 762 636 760 649 q 765 583 765 624 l 765 214 q 771 98 765 132 q 804 50 777 65 q 896 35 831 35 q 917 17 917 35 q 897 0 917 0 l 46 0 q 28 14 30 0 q 60 35 30 35 q 131 41 107 35 q 170 77 156 47 q 185 171 185 106 l 185 592 m 524 592 l 328 592 l 328 171 q 359 68 328 104 q 478 32 391 32 q 553 44 523 34 q 602 88 582 54 q 621 190 621 122 l 621 447 q 602 558 621 524 q 524 592 584 592 z "},"":{"ha":914,"x_min":25,"x_max":920,"o":"m 185 592 l 54 592 q 32 606 36 592 q 57 624 37 624 l 146 624 q 176 632 168 624 q 185 667 185 640 q 223 845 185 760 q 334 981 262 929 q 498 1033 406 1033 q 559 1023 532 1033 q 630 990 585 1013 q 700 960 674 967 q 728 962 713 960 q 749 965 743 965 q 762 959 759 965 q 765 933 765 953 l 765 171 q 777 87 765 116 q 816 46 788 58 q 900 35 845 35 q 920 17 920 35 q 914 5 920 10 q 900 0 908 0 l 54 0 q 25 14 30 0 q 57 35 29 35 q 140 46 113 35 q 175 88 166 58 q 185 176 185 117 l 185 592 m 621 873 q 597 871 606 873 q 504 950 522 875 q 482 987 500 972 q 436 1001 463 1001 q 361 950 394 1001 q 328 794 328 900 l 328 624 l 472 624 q 493 608 493 624 q 472 592 493 592 l 328 592 l 328 179 q 360 68 328 103 q 475 32 393 32 q 585 68 550 34 q 621 171 621 102 l 621 873 z "},"‡":{"ha":839,"x_min":149,"x_max":683,"o":"m 407 654 q 396 740 407 702 q 362 840 385 778 q 339 925 340 903 q 350 960 345 944 q 363 988 355 975 q 386 1009 371 1001 q 421 1017 400 1017 q 477 995 455 1017 q 498 936 498 974 q 477 848 498 913 q 446 743 456 783 q 436 651 436 703 q 487 666 454 651 q 552 694 519 680 q 603 708 585 708 q 664 689 645 708 q 683 640 683 670 q 663 590 683 611 q 608 569 643 569 q 517 600 577 575 q 435 624 457 624 q 452 508 439 558 q 480 425 464 459 q 515 358 496 391 q 459 231 482 307 q 436 71 436 154 q 477 79 456 71 q 543 106 498 87 q 606 128 588 125 q 662 109 643 128 q 681 57 681 89 q 664 11 681 30 q 612 -8 647 -8 q 556 5 587 -8 q 493 32 524 19 q 436 46 461 46 q 432 14 436 35 q 441 -42 433 -14 q 466 -111 450 -70 q 490 -179 483 -153 q 498 -231 498 -206 q 475 -296 498 -273 q 418 -319 452 -319 q 363 -296 385 -319 q 342 -225 342 -273 q 365 -142 346 -192 q 392 -57 383 -92 q 407 43 402 -23 q 363 37 381 43 q 317 18 345 32 q 275 -1 289 5 q 233 -8 260 -6 q 173 11 195 -8 q 149 57 151 30 q 169 105 151 85 q 219 128 187 126 q 269 120 246 128 q 334 92 291 111 q 393 71 376 72 q 404 74 399 74 q 391 195 404 141 q 360 290 378 249 q 328 361 341 331 q 407 624 407 490 q 356 614 382 624 q 291 589 330 605 q 242 572 252 572 q 154 643 160 572 q 173 689 154 670 q 222 708 191 708 q 267 702 246 708 q 318 681 288 695 q 366 661 348 668 q 407 654 385 655 z "},"·":{"ha":421,"x_min":140,"x_max":288,"o":"m 208 515 q 267 489 248 515 q 288 430 286 463 q 262 358 288 388 q 208 333 235 329 q 154 366 168 335 q 140 438 140 396 q 167 494 142 470 q 208 515 192 519 z "},"„":{"ha":765,"x_min":139,"x_max":667,"o":"m 258 -46 l 258 -29 q 242 -11 258 -15 q 219 -27 199 -25 q 162 2 185 -27 q 140 75 140 31 q 172 133 146 110 q 245 155 197 155 q 310 108 297 151 q 322 3 322 64 q 288 -124 322 -61 q 201 -228 253 -188 q 159 -245 175 -247 q 141 -240 143 -243 q 139 -233 140 -236 q 168 -201 142 -221 q 230 -122 208 -166 q 258 -46 253 -78 m 606 -48 q 602 -21 606 -28 q 586 -11 598 -13 q 561 -20 581 -13 q 545 -26 540 -28 q 489 3 511 -26 q 466 76 466 33 q 555 157 481 159 q 636 108 606 153 q 667 0 667 63 q 634 -124 667 -63 q 549 -228 601 -186 q 504 -248 518 -250 q 489 -240 490 -245 q 486 -231 488 -234 q 515 -201 489 -222 q 577 -122 554 -166 q 606 -48 601 -78 z "},"‰":{"ha":1483,"x_min":25,"x_max":1460,"o":"m 217 963 q 149 906 170 959 q 128 735 128 853 q 147 568 128 627 q 222 507 165 509 q 227 509 225 508 q 228 510 228 510 q 300 571 281 510 q 319 746 319 632 q 298 908 318 854 q 217 963 277 963 m 800 475 q 748 451 767 473 q 719 380 728 428 q 708 250 710 332 q 729 84 708 142 q 811 25 750 25 q 868 55 848 25 q 895 136 888 84 q 903 261 903 188 q 880 422 900 369 q 800 475 860 475 m 1258 475 q 1189 420 1210 471 q 1167 247 1169 368 q 1188 81 1167 139 q 1270 22 1208 22 q 1326 52 1306 22 q 1354 133 1346 82 q 1361 258 1361 185 q 1338 420 1360 364 q 1258 475 1317 475 m 219 996 q 322 962 278 996 q 391 871 366 928 q 418 751 415 814 q 396 614 418 676 q 330 514 373 551 q 225 475 286 477 q 118 514 164 475 q 49 613 73 552 q 25 735 25 673 q 49 861 25 801 q 118 957 73 920 q 219 996 162 995 m 803 510 q 904 475 860 510 q 974 385 949 441 q 1001 265 999 328 q 979 127 1001 190 q 913 27 957 64 q 808 -11 869 -10 q 701 28 746 -11 q 632 127 656 66 q 608 250 608 189 q 632 375 608 316 q 700 471 655 434 q 803 510 744 508 m 1258 507 q 1362 473 1316 507 q 1432 382 1407 438 q 1460 262 1457 326 q 1409 69 1460 148 q 1264 -14 1357 -10 q 1158 25 1203 -14 q 1088 124 1112 64 q 1064 247 1064 185 q 1118 427 1064 349 q 1258 507 1173 505 m 729 960 q 812 1032 766 998 q 797 953 808 996 l 294 44 q 225 0 267 15 q 262 81 219 0 l 729 960 z "},"Â":{"ha":990,"x_min":-84,"x_max":1064,"o":"m 448 943 q 520 1068 493 1023 q 553 987 560 968 l 828 222 q 889 95 860 135 q 943 42 918 55 q 1015 29 968 29 q 1064 -1 1060 11 q 506 -1 825 4 q 551 29 509 14 q 627 48 568 29 q 686 114 686 68 q 669 196 686 146 l 608 372 l 265 372 l 225 261 q 196 136 201 196 q 223 57 198 80 q 309 25 248 34 q 342 1 336 10 q -77 0 276 0 q -60 20 -84 10 q 1 43 -36 30 q 72 77 37 56 q 127 143 107 98 q 182 262 146 189 l 407 863 q 448 943 406 858 m 594 407 l 435 839 l 276 407 l 594 407 m 236 1104 l 467 1332 q 494 1352 486 1352 q 524 1332 504 1352 l 757 1099 q 797 1051 778 1078 q 738 1081 760 1065 l 496 1221 l 258 1086 q 190 1052 237 1073 q 236 1104 213 1079 z "},"Ê":{"ha":990,"x_min":7,"x_max":1025,"o":"m 208 754 q 192 886 208 841 q 149 943 175 930 q 85 957 123 957 l 38 957 q 7 998 12 979 q 646 996 159 990 q 750 999 713 996 q 797 1021 787 1002 q 773 1093 799 1047 q 830 1025 832 1021 l 933 768 q 945 709 933 766 q 908 764 936 726 q 808 868 868 825 q 673 933 748 910 q 521 957 597 956 q 403 923 436 957 q 370 814 370 889 l 370 550 l 507 550 q 613 560 569 550 q 693 605 656 570 q 733 716 730 641 q 753 787 750 756 l 753 262 q 732 321 753 272 q 665 475 728 435 q 507 515 601 515 l 370 515 l 370 205 q 411 76 370 115 q 553 36 452 36 q 568 37 558 36 q 586 38 578 38 q 732 69 662 40 q 865 152 803 98 q 971 276 927 206 q 993 315 981 292 q 1004 299 1025 368 q 999 276 1004 293 l 840 -79 q 784 -171 827 -109 q 810 -80 797 -117 q 778 -9 822 -28 q 549 0 733 11 l 10 -2 q 38 38 7 33 q 106 41 77 39 q 157 58 134 43 q 194 122 180 74 q 208 265 208 171 l 208 754 m 239 1104 l 469 1332 q 497 1352 489 1352 q 526 1332 506 1352 l 760 1099 q 799 1051 780 1078 q 740 1081 763 1065 l 498 1221 l 261 1086 q 192 1052 240 1073 q 239 1104 215 1079 z "},"Á":{"ha":990,"x_min":-84,"x_max":1064,"o":"m 448 943 q 520 1068 493 1023 q 553 987 560 968 l 828 222 q 889 95 860 135 q 943 42 918 55 q 1015 29 968 29 q 1064 -1 1060 11 q 506 -1 825 4 q 551 29 509 14 q 627 48 568 29 q 686 114 686 68 q 669 196 686 146 l 608 372 l 265 372 l 225 261 q 196 136 201 196 q 223 57 198 80 q 309 25 248 34 q 342 1 336 10 q -77 0 276 0 q -60 20 -84 10 q 1 43 -36 30 q 72 77 37 56 q 127 143 107 98 q 182 262 146 189 l 407 863 q 448 943 406 858 m 594 407 l 435 839 l 276 407 l 594 407 m 600 1158 l 367 1083 q 352 1079 357 1080 q 336 1075 347 1078 q 328 1083 332 1075 q 347 1115 333 1101 l 507 1278 q 626 1344 545 1319 q 680 1316 657 1344 q 703 1256 703 1289 q 600 1158 703 1202 z "},"Ë":{"ha":990,"x_min":7,"x_max":1025,"o":"m 208 754 q 192 886 208 841 q 149 943 175 930 q 85 957 123 957 l 38 957 q 7 998 12 979 q 646 996 159 990 q 750 999 713 996 q 797 1021 787 1002 q 773 1093 799 1047 q 830 1025 832 1021 l 933 768 q 945 709 933 766 q 908 764 936 726 q 808 868 868 825 q 673 933 748 910 q 521 957 597 956 q 403 923 436 957 q 370 814 370 889 l 370 550 l 507 550 q 613 560 569 550 q 693 605 656 570 q 733 716 730 641 q 753 787 750 756 l 753 262 q 732 321 753 272 q 665 475 728 435 q 507 515 601 515 l 370 515 l 370 205 q 411 76 370 115 q 553 36 452 36 q 568 37 558 36 q 586 38 578 38 q 732 69 662 40 q 865 152 803 98 q 971 276 927 206 q 993 315 981 292 q 1004 299 1025 368 q 999 276 1004 293 l 840 -79 q 784 -171 827 -109 q 810 -80 797 -117 q 778 -9 822 -28 q 549 0 733 11 l 10 -2 q 38 38 7 33 q 106 41 77 39 q 157 58 134 43 q 194 122 180 74 q 208 265 208 171 l 208 754 m 344 1343 q 405 1322 382 1343 q 433 1267 429 1300 q 410 1191 433 1222 q 344 1159 386 1161 q 341 1161 342 1160 q 339 1161 339 1161 q 275 1192 298 1163 q 251 1260 251 1220 q 278 1319 253 1294 q 344 1343 303 1343 m 644 1343 q 714 1316 688 1343 q 743 1254 741 1290 q 715 1191 743 1220 q 653 1161 688 1161 q 586 1189 611 1161 q 558 1252 561 1216 q 583 1313 558 1285 q 644 1343 608 1341 z "},"È":{"ha":990,"x_min":7,"x_max":1025,"o":"m 208 754 q 192 886 208 841 q 149 943 175 930 q 85 957 123 957 l 38 957 q 7 998 12 979 q 646 996 159 990 q 750 999 713 996 q 797 1021 787 1002 q 773 1093 799 1047 q 830 1025 832 1021 l 933 768 q 945 709 933 766 q 908 764 936 726 q 808 868 868 825 q 673 933 748 910 q 521 957 597 956 q 403 923 436 957 q 370 814 370 889 l 370 550 l 507 550 q 613 560 569 550 q 693 605 656 570 q 733 716 730 641 q 753 787 750 756 l 753 262 q 732 321 753 272 q 665 475 728 435 q 507 515 601 515 l 370 515 l 370 205 q 411 76 370 115 q 553 36 452 36 q 568 37 558 36 q 586 38 578 38 q 732 69 662 40 q 865 152 803 98 q 971 276 927 206 q 993 315 981 292 q 1004 299 1025 368 q 999 276 1004 293 l 840 -79 q 784 -171 827 -109 q 810 -80 797 -117 q 778 -9 822 -28 q 549 0 733 11 l 10 -2 q 38 38 7 33 q 106 41 77 39 q 157 58 134 43 q 194 122 180 74 q 208 265 208 171 l 208 754 m 390 1161 q 328 1232 333 1180 q 352 1293 333 1266 q 404 1320 371 1320 q 483 1278 446 1320 l 643 1116 q 689 1064 675 1083 q 651 1072 673 1061 q 624 1083 628 1082 l 390 1161 z "},"Í":{"ha":615,"x_min":14,"x_max":602,"o":"m 228 751 q 196 918 228 878 q 105 957 164 957 l 60 957 q 14 997 19 980 q 602 995 151 996 q 555 960 602 978 q 462 950 495 960 q 408 902 429 941 q 388 779 388 863 l 388 208 q 408 99 388 136 q 464 50 428 62 q 551 32 500 38 q 582 21 566 31 q 596 2 598 10 q 22 0 514 1 q 54 29 33 9 q 158 47 123 29 q 211 104 193 65 q 228 217 228 142 l 228 751 m 415 1161 l 182 1086 q 167 1082 172 1083 q 152 1078 162 1081 q 143 1086 147 1078 q 162 1118 148 1104 l 322 1281 q 441 1347 360 1322 q 495 1319 472 1347 q 518 1259 518 1292 q 415 1161 518 1205 z "},"Î":{"ha":615,"x_min":5,"x_max":612,"o":"m 228 751 q 196 918 228 878 q 105 957 164 957 l 60 957 q 14 997 19 980 q 602 995 151 996 q 555 960 602 978 q 462 950 495 960 q 408 902 429 941 q 388 779 388 863 l 388 208 q 408 99 388 136 q 464 50 428 62 q 551 32 500 38 q 582 21 566 31 q 596 2 598 10 q 22 0 514 1 q 54 29 33 9 q 158 47 123 29 q 211 104 193 65 q 228 217 228 142 l 228 751 m 52 1104 l 282 1332 q 310 1352 302 1352 q 339 1332 319 1352 l 573 1099 q 612 1051 593 1078 q 553 1081 576 1065 l 312 1221 l 74 1086 q 5 1052 53 1073 q 52 1104 28 1079 z "},"Ï":{"ha":615,"x_min":14,"x_max":602,"o":"m 228 751 q 196 918 228 878 q 105 957 164 957 l 60 957 q 14 997 19 980 q 602 995 151 996 q 555 960 602 978 q 462 950 495 960 q 408 902 429 941 q 388 779 388 863 l 388 208 q 408 99 388 136 q 464 50 428 62 q 551 32 500 38 q 582 21 566 31 q 596 2 598 10 q 22 0 514 1 q 54 29 33 9 q 158 47 123 29 q 211 104 193 65 q 228 217 228 142 l 228 751 m 159 1343 q 220 1322 197 1343 q 248 1267 243 1300 q 224 1191 248 1222 q 159 1159 201 1161 q 156 1161 157 1160 q 154 1161 154 1161 q 90 1192 113 1163 q 66 1260 66 1220 q 93 1319 68 1294 q 159 1343 118 1343 m 459 1343 q 529 1316 503 1343 q 558 1254 555 1290 q 530 1191 558 1220 q 468 1161 503 1161 q 401 1189 426 1161 q 373 1252 375 1216 q 398 1313 373 1285 q 459 1343 422 1341 z "},"Ì":{"ha":615,"x_min":14,"x_max":602,"o":"m 228 751 q 196 918 228 878 q 105 957 164 957 l 60 957 q 14 997 19 980 q 602 995 151 996 q 555 960 602 978 q 462 950 495 960 q 408 902 429 941 q 388 779 388 863 l 388 208 q 408 99 388 136 q 464 50 428 62 q 551 32 500 38 q 582 21 566 31 q 596 2 598 10 q 22 0 514 1 q 54 29 33 9 q 158 47 123 29 q 211 104 193 65 q 228 217 228 142 l 228 751 m 203 1161 q 140 1232 145 1180 q 164 1293 145 1266 q 217 1320 183 1320 q 296 1278 258 1320 l 456 1116 q 501 1064 488 1083 q 463 1072 486 1061 q 436 1083 440 1082 l 203 1161 z "},"Ó":{"ha":1085,"x_min":38,"x_max":1047,"o":"m 529 985 q 343 908 420 984 q 247 762 266 832 q 208 559 228 692 q 206 504 206 542 q 237 279 206 381 q 320 117 267 176 q 535 11 373 59 q 688 40 625 12 q 805 129 750 68 q 868 279 860 190 q 877 500 877 368 l 877 544 q 784 868 873 751 q 529 985 694 985 m 524 1017 q 541 1017 529 1017 q 557 1018 552 1018 q 759 979 670 1018 q 909 874 848 941 q 1006 719 970 808 q 1045 525 1041 630 q 1047 475 1047 492 q 1018 291 1047 378 q 924 133 988 205 q 764 19 860 61 q 546 -22 668 -22 l 512 -22 q 307 30 396 -15 q 162 147 217 75 q 72 312 107 219 q 38 504 38 405 q 96 748 40 632 q 261 937 152 863 q 524 1017 371 1011 m 649 1158 l 415 1083 q 400 1079 405 1080 q 385 1075 395 1078 q 376 1083 380 1075 q 396 1115 381 1101 l 555 1278 q 675 1344 593 1319 q 728 1316 706 1344 q 751 1256 751 1289 q 649 1158 751 1202 z "},"Ô":{"ha":1085,"x_min":38,"x_max":1047,"o":"m 529 985 q 343 908 420 984 q 247 762 266 832 q 208 559 228 692 q 206 504 206 542 q 237 279 206 381 q 320 117 267 176 q 535 11 373 59 q 688 40 625 12 q 805 129 750 68 q 868 279 860 190 q 877 500 877 368 l 877 544 q 784 868 873 751 q 529 985 694 985 m 524 1017 q 541 1017 529 1017 q 557 1018 552 1018 q 759 979 670 1018 q 909 874 848 941 q 1006 719 970 808 q 1045 525 1041 630 q 1047 475 1047 492 q 1018 291 1047 378 q 924 133 988 205 q 764 19 860 61 q 546 -22 668 -22 l 512 -22 q 307 30 396 -15 q 162 147 217 75 q 72 312 107 219 q 38 504 38 405 q 96 748 40 632 q 261 937 152 863 q 524 1017 371 1011 m 288 1104 l 518 1332 q 546 1352 538 1352 q 575 1332 555 1352 l 808 1099 q 848 1051 829 1078 q 789 1081 811 1065 l 547 1221 l 310 1086 q 241 1052 289 1073 q 288 1104 264 1079 z "},"Ò":{"ha":1085,"x_min":38,"x_max":1047,"o":"m 529 985 q 343 908 420 984 q 247 762 266 832 q 208 559 228 692 q 206 504 206 542 q 237 279 206 381 q 320 117 267 176 q 535 11 373 59 q 688 40 625 12 q 805 129 750 68 q 868 279 860 190 q 877 500 877 368 l 877 544 q 784 868 873 751 q 529 985 694 985 m 524 1017 q 541 1017 529 1017 q 557 1018 552 1018 q 759 979 670 1018 q 909 874 848 941 q 1006 719 970 808 q 1045 525 1041 630 q 1047 475 1047 492 q 1018 291 1047 378 q 924 133 988 205 q 764 19 860 61 q 546 -22 668 -22 l 512 -22 q 307 30 396 -15 q 162 147 217 75 q 72 312 107 219 q 38 504 38 405 q 96 748 40 632 q 261 937 152 863 q 524 1017 371 1011 m 439 1161 q 376 1232 381 1180 q 400 1293 381 1266 q 453 1320 419 1320 q 532 1278 494 1320 l 692 1116 q 737 1064 724 1083 q 699 1072 722 1061 q 672 1083 676 1082 l 439 1161 z "},"Ú":{"ha":1085,"x_min":-43,"x_max":1137,"o":"m 165 754 q 148 887 165 842 q 101 944 130 931 q 29 957 73 957 l -8 965 q -43 997 -43 978 q 571 995 7 996 q 531 965 570 984 q 429 957 458 964 q 374 931 399 951 q 335 863 349 911 q 322 726 322 814 l 322 256 q 355 108 322 160 q 446 35 387 55 q 594 14 504 16 q 896 265 896 14 l 896 672 q 874 856 896 794 q 816 941 853 918 q 715 963 779 963 q 678 998 685 985 q 1107 996 724 997 q 1137 995 1116 996 q 1099 965 1135 984 q 1035 957 1056 963 q 989 926 1014 950 q 949 842 965 901 q 933 683 933 784 l 933 301 q 912 146 933 208 q 850 49 891 85 q 749 -3 808 13 q 603 -22 689 -20 l 555 -22 q 401 -11 470 -22 q 279 31 333 0 q 195 119 225 62 q 165 265 165 177 l 165 754 m 649 1161 l 415 1086 q 400 1082 405 1083 q 385 1078 395 1081 q 376 1086 380 1078 q 396 1118 381 1104 l 555 1281 q 675 1347 593 1322 q 728 1319 706 1347 q 751 1259 751 1292 q 649 1161 751 1205 z "},"Û":{"ha":1085,"x_min":-43,"x_max":1137,"o":"m 165 754 q 148 887 165 842 q 101 944 130 931 q 29 957 73 957 l -8 965 q -43 997 -43 978 q 571 995 7 996 q 531 965 570 984 q 429 957 458 964 q 374 931 399 951 q 335 863 349 911 q 322 726 322 814 l 322 256 q 355 108 322 160 q 446 35 387 55 q 594 14 504 16 q 896 265 896 14 l 896 672 q 874 856 896 794 q 816 941 853 918 q 715 963 779 963 q 678 998 685 985 q 1107 996 724 997 q 1137 995 1116 996 q 1099 965 1135 984 q 1035 957 1056 963 q 989 926 1014 950 q 949 842 965 901 q 933 683 933 784 l 933 301 q 912 146 933 208 q 850 49 891 85 q 749 -3 808 13 q 603 -22 689 -20 l 555 -22 q 401 -11 470 -22 q 279 31 333 0 q 195 119 225 62 q 165 265 165 177 l 165 754 m 285 1104 l 515 1332 q 543 1352 535 1352 q 572 1332 552 1352 l 806 1099 q 845 1051 826 1078 q 786 1081 809 1065 l 545 1221 l 307 1086 q 238 1052 286 1073 q 285 1104 261 1079 z "},"Ù":{"ha":1085,"x_min":-43,"x_max":1137,"o":"m 165 754 q 148 887 165 842 q 101 944 130 931 q 29 957 73 957 l -8 965 q -43 997 -43 978 q 571 995 7 996 q 531 965 570 984 q 429 957 458 964 q 374 931 399 951 q 335 863 349 911 q 322 726 322 814 l 322 256 q 355 108 322 160 q 446 35 387 55 q 594 14 504 16 q 896 265 896 14 l 896 672 q 874 856 896 794 q 816 941 853 918 q 715 963 779 963 q 678 998 685 985 q 1107 996 724 997 q 1137 995 1116 996 q 1099 965 1135 984 q 1035 957 1056 963 q 989 926 1014 950 q 949 842 965 901 q 933 683 933 784 l 933 301 q 912 146 933 208 q 850 49 891 85 q 749 -3 808 13 q 603 -22 689 -20 l 555 -22 q 401 -11 470 -22 q 279 31 333 0 q 195 119 225 62 q 165 265 165 177 l 165 754 m 439 1161 q 376 1232 381 1180 q 400 1293 381 1266 q 453 1320 419 1320 q 532 1278 494 1320 l 692 1116 q 737 1064 724 1083 q 699 1072 722 1061 q 672 1083 676 1082 l 439 1161 z "},"ı":{"ha":469,"x_min":14,"x_max":475,"o":"m 176 404 q 151 502 176 477 q 85 526 126 526 l 48 526 q 14 543 19 526 q 46 561 19 561 q 268 632 192 575 q 304 649 294 649 q 319 592 319 649 l 319 165 q 347 62 319 89 q 415 32 374 35 q 455 35 435 35 q 475 19 475 35 q 461 0 475 0 l 46 0 q 19 14 24 0 q 54 35 25 35 l 79 35 q 131 46 112 37 q 164 90 151 55 q 176 196 176 124 l 176 404 z "},"ˆ":{"ha":746,"x_min":70,"x_max":677,"o":"m 117 735 l 347 963 q 375 982 367 982 q 404 963 384 982 l 637 729 q 677 681 658 708 q 618 711 641 695 l 376 851 l 139 717 q 70 682 118 704 q 117 735 93 710 z "},"˜":{"ha":610,"x_min":100,"x_max":512,"o":"m 108 820 q 162 884 125 857 q 239 911 200 911 q 296 898 266 909 q 359 874 327 886 q 418 860 392 862 q 489 908 465 865 q 502 920 494 920 q 512 893 512 920 q 458 799 507 837 q 353 754 410 761 q 314 764 332 757 q 265 785 296 771 q 211 806 233 799 q 165 814 188 814 q 133 798 151 814 q 108 779 114 782 q 100 792 104 779 q 105 807 102 797 q 108 820 107 818 z "},"˘":{"ha":594,"x_min":97,"x_max":496,"o":"m 139 903 q 299 846 191 851 q 455 900 402 851 q 492 922 483 922 q 496 908 496 922 q 430 800 496 843 q 296 754 365 756 q 172 796 224 756 q 97 903 120 836 q 111 917 97 917 q 139 903 125 917 z "},"˚":{"ha":418,"x_min":97,"x_max":319,"o":"m 211 985 q 267 969 242 985 q 305 929 292 954 q 319 882 319 905 q 291 801 319 836 q 214 765 262 765 q 133 796 166 765 q 97 868 99 826 q 100 879 100 873 q 132 953 102 921 q 211 985 162 985 m 205 936 q 166 917 183 936 q 146 873 148 898 q 164 832 146 850 q 208 814 183 814 q 254 832 238 814 q 271 877 271 849 q 252 919 271 901 q 205 936 233 936 z "},"¸":{"ha":439,"x_min":97,"x_max":336,"o":"m 162 -2 l 211 0 l 211 -87 q 231 -85 218 -86 q 250 -82 244 -83 q 314 -105 292 -82 q 336 -160 336 -128 q 294 -223 336 -202 q 205 -244 253 -244 q 97 -208 109 -244 q 125 -210 107 -213 q 182 -211 173 -217 q 244 -165 237 -211 q 230 -129 244 -145 q 185 -111 215 -113 q 162 -122 162 -117 l 162 -2 z "},"€":{"ha":1178,"x_min":37,"x_max":1134,"o":"m 997 793 q 997 867 1011 852 q 878 925 941 904 q 749 946 816 946 q 634 928 689 946 q 526 877 578 910 q 440 801 477 843 q 377 704 403 759 l 873 704 l 834 600 l 348 599 q 343 569 344 584 q 343 535 343 553 q 343 501 343 516 q 348 471 344 486 l 789 471 l 750 372 l 377 372 q 440 271 403 315 q 526 193 477 227 q 634 144 578 159 q 749 129 689 129 q 882 149 820 129 q 997 213 944 168 q 1011 231 1004 217 q 1022 272 1018 246 l 1076 -57 q 1067 -43 1075 -53 q 1046 -22 1058 -33 q 1021 2 1035 -10 q 995 24 1007 15 q 974 40 982 34 q 964 46 965 46 q 909 23 933 32 q 860 8 884 14 q 809 2 835 3 q 749 0 783 0 q 587 25 667 0 q 437 99 508 50 q 317 222 366 155 q 238 372 268 290 l 110 372 l 38 256 l 144 510 l 149 471 l 219 471 q 214 488 215 478 q 214 505 214 498 l 214 535 l 214 569 q 214 584 214 577 q 219 599 215 592 l 110 599 l 37 463 l 149 748 l 149 704 l 238 704 q 317 852 268 785 q 437 971 366 919 q 585 1045 508 1020 q 749 1070 663 1070 q 828 1066 792 1070 q 898 1054 864 1063 q 962 1029 931 1044 q 1027 992 994 1014 q 1039 990 1032 989 q 1054 995 1046 991 q 1071 1004 1062 998 q 1088 1017 1080 1010 q 1104 1029 1097 1023 q 1118 1041 1112 1036 q 1129 1048 1125 1046 q 1134 1050 1133 1051 l 997 793 z "}}}
